STARTFONT 2.1
COMMENT
COMMENT Converted from OpenType font "Q:\font stuff\winfont\Adventure Subtitles Normal.ttf" by "otf2bdf 3.0".
COMMENT
FONT -FreeType-Adventure Subtitles-Medium-R-Normal--179-1800-72-72-P-868-ISO10646-1
SIZE 180 72 72
FONTBOUNDINGBOX 145 176 0 -50
STARTPROPERTIES 19
FOUNDRY "FreeType"
FAMILY_NAME "Adventure Subtitles"
WEIGHT_NAME "Medium"
SLANT "R"
SETWIDTH_NAME "Normal"
ADD_STYLE_NAME ""
PIXEL_SIZE 179
POINT_SIZE 1800
RESOLUTION_X 72
RESOLUTION_Y 72
SPACING "P"
AVERAGE_WIDTH 868
CHARSET_REGISTRY "ISO10646"
CHARSET_ENCODING "1"
FONT_ASCENT 127
FONT_DESCENT 52
COPYRIGHT "(C)2000 Neale Davidson"
_OTF_FONTFILE "Q:\font stuff\winfont\Adventure Subtitles Normal.ttf"
_OTF_PSNAME "AdventureSubtitlesNormal"
ENDPROPERTIES
CHARS 96
STARTCHAR 0020
ENCODING 32
SWIDTH 294 0
DWIDTH 53 0
BBX 0 0 0 0
BITMAP
ENDCHAR
STARTCHAR 0021
ENCODING 33
SWIDTH 216 0
DWIDTH 39 0
BBX 22 125 1 0
BITMAP
FFFFFC
FFFFFC
FFFFFC
FFFFFC
FFFFFC
FFFFFC
FFFFFC
FFFFFC
FFFFFC
FFFFFC
FFFFFC
FFFFFC
FFFFFC
FFFFFC
FFFFFC
FFFFFC
FFFFFC
FFFFFC
FFFFFC
FFFFFC
FFFFFC
FFFFFC
FFFFFC
FFFFFC
FFFFFC
FFFFFC
FFFFFC
FFFFFC
FFFFFC
FFFFFC
FFFFFC
FFFFFC
FFFFFC
FFFFFC
FFFFFC
FFFFFC
FFFFFC
FFFFFC
FFFFFC
FFFFFC
FFFFFC
FFFFFC
FFFFFC
FFFFFC
FFFFFC
FFFFFC
FFFFFC
FFFFFC
FFFFFC
FFFFFC
FFFFFC
FFFFFC
FFFFFC
FFFFFC
FFFFFC
FFFFFC
FFFFFC
FFFFFC
FFFFFC
FFFFFC
FFFFFC
FFFFFC
FFFFFC
FFFFFC
FFFFFC
FFFFFC
FFFFFC
FFFFFC
FFFFFC
FFFFFC
FFFFFC
FFFFFC
FFFFFC
FFFFFC
FFFFFC
FFFFFC
FFFFFC
FFFFFC
FFFFFC
FFFFFC
FFFFFC
FFFFFC
FFFFFC
FFFFFC
FFFFFC
FFFFFC
FFFFFC
FFFFFC
FFFFFC
FFFFFC
FFFFFC
FFFFFC
FFFFFC
FFFFFC
FFFFFC
000000
000000
000000
000000
000000
000000
000000
000000
000000
01FE00
0FFF80
1FFFE0
3FFFF0
7FFFF0
7FFFF8
FFFFF8
FFFFFC
FFFFFC
FFFFFC
FFFFFC
FFFFFC
FFFFFC
7FFFFC
7FFFF8
7FFFF8
3FFFF0
1FFFE0
0FFFC0
07FF80
00FE00
ENDCHAR
STARTCHAR 0022
ENCODING 34
SWIDTH 411 0
DWIDTH 74 0
BBX 57 33 1 92
BITMAP
01FE0000003FC000
0FFF800001FFF800
1FFFE00003FFFC00
3FFFF00007FFFE00
7FFFF8000FFFFF00
7FFFF8000FFFFF00
FFFFFC001FFFFF80
FFFFFC001FFFFF80
FFFFFC001FFFFF80
FFFFFC001FFFFF80
FFFFFC001FFFFF80
FFFFFC001FFFFF80
FFFFFC001FFFFF80
FFFFFC001FFFFF80
FFFFFC001FFFFF80
FFFFFC001FFFFF80
FFFFFC001FFFFF80
FFFFFC001FFFFF80
FFFFFC001FFFFF80
FFFFFC001FFFFF80
FFFFFC001FFFFF80
FFFFFC001FFFFF80
FFFFF8001FFFFF00
FFFFE0001FFFFC00
FFFF80001FFFF000
FFFE00001FFFC000
FFF800001FFF0000
FFE000001FFC0000
FF8000001FF00000
FE0000001FC00000
F80000001F000000
E00000001C000000
8000000010000000
ENDCHAR
STARTCHAR 0023
ENCODING 35
SWIDTH 494 0
DWIDTH 89 0
BBX 72 72 1 28
BITMAP
001FFFFF803FFFFF00
001FFFFF803FFFFF00
001FFFFF803FFFFF00
001FFFFF803FFFFF00
001FFFFF803FFFFF00
001FFFFF803FFFFF00
001FFFFF803FFFFF00
001FFFFF803FFFFF00
001FFFFF803FFFFF00
001FFFFF803FFFFF00
FFFFFFFFFFFFFFFFFF
FFFFFFFFFFFFFFFFFF
FFFFFFFFFFFFFFFFFF
FFFFFFFFFFFFFFFFFF
FFFFFFFFFFFFFFFFFF
FFFFFFFFFFFFFFFFFF
FFFFFFFFFFFFFFFFFF
FFFFFFFFFFFFFFFFFF
FFFFFFFFFFFFFFFFFF
FFFFFFFFFFFFFFFFFF
FFFFFFFFFFFFFFFFFF
FFFFFFFFFFFFFFFFFF
FFFFFFFFFFFFFFFFFF
FFFFFFFFFFFFFFFFFF
FFFFFFFFFFFFFFFFFF
FFFFFFFFFFFFFFFFFF
FFFFFFFFFFFFFFFFFF
FFFFFFFFFFFFFFFFFF
FFFFFFFFFFFFFFFFFF
FFFFFFFFFFFFFFFFFF
FFFFFFFFFFFFFFFFFF
FFFFFFFFFFFFFFFFFF
001FFFFF803FFFFF00
001FFFFF803FFFFF00
001FFFFF803FFFFF00
001FFFFF803FFFFF00
001FFFFF803FFFFF00
001FFFFF803FFFFF00
001FFFFF803FFFFF00
001FFFFF803FFFFF00
FFFFFFFFFFFFFFFFFF
FFFFFFFFFFFFFFFFFF
FFFFFFFFFFFFFFFFFF
FFFFFFFFFFFFFFFFFF
FFFFFFFFFFFFFFFFFF
FFFFFFFFFFFFFFFFFF
FFFFFFFFFFFFFFFFFF
FFFFFFFFFFFFFFFFFF
FFFFFFFFFFFFFFFFFF
FFFFFFFFFFFFFFFFFF
FFFFFFFFFFFFFFFFFF
FFFFFFFFFFFFFFFFFF
FFFFFFFFFFFFFFFFFF
FFFFFFFFFFFFFFFFFF
FFFFFFFFFFFFFFFFFF
FFFFFFFFFFFFFFFFFF
FFFFFFFFFFFFFFFFFF
FFFFFFFFFFFFFFFFFF
FFFFFFFFFFFFFFFFFF
FFFFFFFFFFFFFFFFFF
FFFFFFFFFFFFFFFFFF
FFFFFFFFFFFFFFFFFF
001FFFFF803FFFFF00
001FFFFF803FFFFF00
001FFFFF803FFFFF00
001FFFFF803FFFFF00
001FFFFF803FFFFF00
001FFFFF803FFFFF00
001FFFFF803FFFFF00
001FFFFF803FFFFF00
001FFFFF803FFFFF00
001FFFFF803FFFFF00
ENDCHAR
STARTCHAR 0024
ENCODING 36
SWIDTH 688 0
DWIDTH 124 0
BBX 108 175 1 -50
BITMAP
0000000000FFFFFC000000000000
0000000000FFFFFC000000000000
0000000000FFFFFC000000000000
0000000000FFFFFC000000000000
0000000000FFFFFC000000000000
0000000000FFFFFC000000000000
0000000000FFFFFC000000000000
0000000000FFFFFC000000000000
0000000000FFFFFC000000000000
0000000000FFFFFC000000000000
0000000000FFFFFC000000000000
0000000000FFFFFC000000000000
0000000000FFFFFC000000000000
0000000000FFFFFC000000000000
0000000000FFFFFC000000000000
0000000000FFFFFC000000000000
0000000000FFFFFC000000000000
0000000000FFFFFC000000000000
00007FFFFFFFFFFFFFFFFFFFFFF0
0003FFFFFFFFFFFFFFFFFFFFFFF0
000FFFFFFFFFFFFFFFFFFFFFFFF0
003FFFFFFFFFFFFFFFFFFFFFFFF0
007FFFFFFFFFFFFFFFFFFFFFFFF0
00FFFFFFFFFFFFFFFFFFFFFFFFF0
01FFFFFFFFFFFFFFFFFFFFFFFFF0
03FFFFFFFFFFFFFFFFFFFFFFFFF0
07FFFFFFFFFFFFFFFFFFFFFFFFF0
0FFFFFFFFFFFFFFFFFFFFFFFFFF0
1FFFFFFFFFFFFFFFFFFFFFFFFFF0
1FFFFFFFFFFFFFFFFFFFFFFFFFF0
3FFFFFFFFFFFFFFFFFFFFFFFFFF0
3FFFFFFFFFFFFFFFFFFFFFFFFFF0
7FFFFFFFFFFFFFFFFFFFFFFFFFF0
7FFFFFFFFFFFFFFFFFFFFFFFFFF0
7FFFFFFFFFFFFFFFFFFFFFFFFFF0
7FFFFFFFFFFFFFFFFFFFFFFFFFF0
FFFFFFFFFFFFFFFFFFFFFFFFFFF0
FFFFFFFFFFFFFFFFFFFFFFFFFFF0
FFFFFFFFFFFFFFFFFFFFFFFFFFF0
FFFFFFFFFFFFFFFFFFFFFFFFFFF0
FFFFFF8000FFFFFC000000000000
FFFFFF8000FFFFFC000000000000
FFFFFF8000FFFFFC000000000000
FFFFFF8000FFFFFC000000000000
FFFFFF8000FFFFFC000000000000
FFFFFF8000FFFFFC000000000000
FFFFFF8000FFFFFC000000000000
FFFFFF8000FFFFFC000000000000
FFFFFF8000FFFFFC000000000000
FFFFFF8000FFFFFC000000000000
FFFFFF8000FFFFFC000000000000
FFFFFF8000FFFFFC000000000000
FFFFFF8000FFFFFC000000000000
FFFFFF8000FFFFFC000000000000
FFFFFF8000FFFFFC000000000000
FFFFFF8000FFFFFC000000000000
FFFFFF8000FFFFFC000000000000
FFFFFF8000FFFFFC000000000000
FFFFFF8000FFFFFC000000000000
FFFFFF8000FFFFFC000000000000
FFFFFF8000FFFFFC000000000000
FFFFFFFFFFFFFFFFFFFFFFF00000
FFFFFFFFFFFFFFFFFFFFFFFF0000
FFFFFFFFFFFFFFFFFFFFFFFFE000
FFFFFFFFFFFFFFFFFFFFFFFFF000
FFFFFFFFFFFFFFFFFFFFFFFFF800
FFFFFFFFFFFFFFFFFFFFFFFFFC00
7FFFFFFFFFFFFFFFFFFFFFFFFE00
7FFFFFFFFFFFFFFFFFFFFFFFFF00
7FFFFFFFFFFFFFFFFFFFFFFFFF80
3FFFFFFFFFFFFFFFFFFFFFFFFF80
3FFFFFFFFFFFFFFFFFFFFFFFFFC0
3FFFFFFFFFFFFFFFFFFFFFFFFFC0
1FFFFFFFFFFFFFFFFFFFFFFFFFE0
0FFFFFFFFFFFFFFFFFFFFFFFFFE0
0FFFFFFFFFFFFFFFFFFFFFFFFFE0
07FFFFFFFFFFFFFFFFFFFFFFFFE0
03FFFFFFFFFFFFFFFFFFFFFFFFF0
01FFFFFFFFFFFFFFFFFFFFFFFFF0
00FFFFFFFFFFFFFFFFFFFFFFFFF0
003FFFFFFFFFFFFFFFFFFFFFFFF0
000FFFFFFFFFFFFFFFFFFFFFFFF0
0000FFFFFFFFFFFFFFFFFFFFFFF0
0000000000FFFFFC00001FFFFFF0
0000000000FFFFFC00001FFFFFF0
0000000000FFFFFC00001FFFFFF0
0000000000FFFFFC00001FFFFFF0
0000000000FFFFFC00001FFFFFF0
0000000000FFFFFC00001FFFFFF0
0000000000FFFFFC00001FFFFFF0
0000000000FFFFFC00001FFFFFF0
0000000000FFFFFC00001FFFFFF0
0000000000FFFFFC00001FFFFFF0
0000000000FFFFFC00001FFFFFF0
0000000000FFFFFC00001FFFFFF0
0000000000FFFFFC00001FFFFFF0
0000000000FFFFFC00001FFFFFF0
0000000000FFFFFC00001FFFFFF0
0000000000FFFFFC00001FFFFFF0
0000000000FFFFFC00001FFFFFF0
0000000000FFFFFC00001FFFFFF0
0000000000FFFFFC00001FFFFFF0
FFFFFFFFFFFFFFFFFFFFFFFFFFF0
FFFFFFFFFFFFFFFFFFFFFFFFFFF0
FFFFFFFFFFFFFFFFFFFFFFFFFFF0
FFFFFFFFFFFFFFFFFFFFFFFFFFF0
FFFFFFFFFFFFFFFFFFFFFFFFFFF0
FFFFFFFFFFFFFFFFFFFFFFFFFFF0
FFFFFFFFFFFFFFFFFFFFFFFFFFE0
FFFFFFFFFFFFFFFFFFFFFFFFFFE0
FFFFFFFFFFFFFFFFFFFFFFFFFFE0
FFFFFFFFFFFFFFFFFFFFFFFFFFC0
FFFFFFFFFFFFFFFFFFFFFFFFFFC0
FFFFFFFFFFFFFFFFFFFFFFFFFF80
FFFFFFFFFFFFFFFFFFFFFFFFFF80
FFFFFFFFFFFFFFFFFFFFFFFFFF00
FFFFFFFFFFFFFFFFFFFFFFFFFE00
FFFFFFFFFFFFFFFFFFFFFFFFFC00
FFFFFFFFFFFFFFFFFFFFFFFFF800
FFFFFFFFFFFFFFFFFFFFFFFFF000
FFFFFFFFFFFFFFFFFFFFFFFFE000
FFFFFFFFFFFFFFFFFFFFFFFFC000
FFFFFFFFFFFFFFFFFFFFFFFF0000
FFFFFFFFFFFFFFFFFFFFFFFC0000
FFFFFFFFFFFFFFFFFFFFFFE00000
0000000000FFFFFC000000000000
0000000000FFFFFC000000000000
0000000000FFFFFC000000000000
0000000000FFFFFC000000000000
0000000000FFFFFC000000000000
0000000000FFFFFC000000000000
0000000000FFFFFC000000000000
0000000000FFFFFC000000000000
0000000000FFFFFC000000000000
0000000000FFFFFC000000000000
0000000000FFFFFC000000000000
0000000000FFFFFC000000000000
0000000000FFFFFC000000000000
0000000000FFFFFC000000000000
0000000000FFFFFC000000000000
0000000000FFFFFC000000000000
0000000000FFFFFC000000000000
0000000000FFFFFC000000000000
0000000000FFFFFC000000000000
0000000000FFFFFC000000000000
0000000000FFFFFC000000000000
0000000000FFFFFC000000000000
0000000000FFFFFC000000000000
0000000000FFFFFC000000000000
0000000000FFFFFC000000000000
0000000000FFFFFC000000000000
0000000000FFFFFC000000000000
0000000000FFFFFC000000000000
0000000000FFFFFC000000000000
0000000000FFFFFC000000000000
0000000000FFFFFC000000000000
0000000000FFFFFC000000000000
0000000000FFFFFC000000000000
0000000000FFFFFC000000000000
0000000000FFFFFC000000000000
0000000000FFFFFC000000000000
0000000000FFFFFC000000000000
0000000000FFFFFC000000000000
0000000000FFFFFC000000000000
0000000000FFFFFC000000000000
0000000000FFFFFC000000000000
0000000000FFFFFC000000000000
0000000000FFFFFC000000000000
0000000000FFFFFC000000000000
0000000000FFFFFC000000000000
0000000000FFFFFC000000000000
0000000000FFFFFC000000000000
0000000000FFFFFC000000000000
0000000000FFFFFC000000000000
0000000000FFFFFC000000000000
ENDCHAR
STARTCHAR 0025
ENCODING 37
SWIDTH 883 0
DWIDTH 159 0
BBX 142 125 1 0
BITMAP
00000000000000000000000007FFFFFC0000
007FFFFFFFE00000000000000FFFFFF80000
01FFFFFFFFFC0000000000001FFFFFF80000
07FFFFFFFFFE0000000000001FFFFFF00000
0FFFFFFFFFFF0000000000003FFFFFE00000
1FFFFFFFFFFF8000000000007FFFFFE00000
3FFFFFFFFFFFC000000000007FFFFFC00000
3FFFFFFFFFFFE00000000000FFFFFF800000
7FFFFFFFFFFFE00000000001FFFFFF800000
7FFFFFFFFFFFE00000000001FFFFFF000000
FFFFFFFFFFFFF00000000003FFFFFE000000
FFFFFFFFFFFFF00000000007FFFFFE000000
FFFFFFFFFFFFF00000000007FFFFFC000000
FFF0000000FFF0000000000FFFFFF8000000
FFF0000000FFF0000000001FFFFFF8000000
FFF0000000FFF0000000001FFFFFF0000000
FFF0000000FFF0000000003FFFFFE0000000
FFF0000000FFF0000000007FFFFFE0000000
FFF0000000FFF0000000007FFFFFC0000000
FFF0000000FFF000000000FFFFFF80000000
FFF0000000FFF000000001FFFFFF80000000
FFF0000000FFF000000001FFFFFF00000000
FFF0000000FFF000000003FFFFFE00000000
FFF0000000FFF000000007FFFFFE00000000
FFF0000000FFF000000007FFFFFC00000000
FFF0000000FFF00000000FFFFFF800000000
FFF0000000FFF00000001FFFFFF800000000
FFF0000000FFF00000001FFFFFF000000000
FFF0000000FFF00000003FFFFFE000000000
FFF0000000FFF00000007FFFFFE000000000
FFF0000000FFF00000007FFFFFC000000000
FFF0000000FFF0000000FFFFFF8000000000
FFF0000000FFF0000001FFFFFF8000000000
FFF0000000FFF0000001FFFFFF0000000000
FFF0000000FFF0000003FFFFFE0000000000
FFF0000000FFF0000007FFFFFE0000000000
FFF0000000FFF0000007FFFFFC0000000000
FFF0000000FFF000000FFFFFF80000000000
FFF0000000FFF000001FFFFFF80000000000
FFF0000000FFF000001FFFFFF00000000000
FFF0000000FFF000003FFFFFE00000000000
FFF0000000FFF000007FFFFFE00000000000
FFF0000000FFF000007FFFFFC00000000000
FFF0000000FFF00000FFFFFF800000000000
FFF0000000FFF00001FFFFFF800000000000
FFF0000000FFF00001FFFFFF000000000000
FFF0000000FFF00003FFFFFE000000000000
FFF0000000FFF00007FFFFFE000000000000
FFF0000000FFF00007FFFFFC000000000000
FFF0000000FFF0000FFFFFF8000000000000
FFF0000000FFF0001FFFFFF8000000000000
FFF0000000FFF0001FFFFFF0000000000000
FFF0000000FFF0003FFFFFE0000000000000
FFF0000000FFF0007FFFFFE0000000000000
FFF0000000FFF0007FFFFFC0000000000000
FFF0000000FFF000FFFFFF801FFFFFFFF800
FFF0000000FFF001FFFFFF807FFFFFFFFF00
FFF0000000FFF001FFFFFF01FFFFFFFFFF80
FFF0000000FFF003FFFFFE03FFFFFFFFFFC0
FFFFFFFFFFFFF003FFFFFE07FFFFFFFFFFE0
FFFFFFFFFFFFF007FFFFFC0FFFFFFFFFFFF0
FFFFFFFFFFFFF00FFFFFF81FFFFFFFFFFFF8
7FFFFFFFFFFFE00FFFFFF81FFFFFFFFFFFF8
7FFFFFFFFFFFE01FFFFFF01FFFFFFFFFFFF8
3FFFFFFFFFFFC03FFFFFE03FFFFFFFFFFFFC
3FFFFFFFFFFFC03FFFFFE03FFFFFFFFFFFFC
1FFFFFFFFFFF807FFFFFC03FFFFFFFFFFFFC
0FFFFFFFFFFF00FFFFFF803FFC0000003FFC
07FFFFFFFFFE00FFFFFF803FFC0000003FFC
01FFFFFFFFF801FFFFFF003FFC0000003FFC
007FFFFFFFE003FFFFFE003FFC0000003FFC
00000000000003FFFFFE003FFC0000003FFC
00000000000007FFFFFC003FFC0000003FFC
0000000000000FFFFFF8003FFC0000003FFC
0000000000000FFFFFF8003FFC0000003FFC
0000000000001FFFFFF0003FFC0000003FFC
0000000000003FFFFFE0003FFC0000003FFC
0000000000003FFFFFE0003FFC0000003FFC
0000000000007FFFFFC0003FFC0000003FFC
000000000000FFFFFF80003FFC0000003FFC
000000000000FFFFFF80003FFC0000003FFC
000000000001FFFFFF00003FFC0000003FFC
000000000003FFFFFE00003FFC0000003FFC
000000000003FFFFFE00003FFC0000003FFC
000000000007FFFFFC00003FFC0000003FFC
00000000000FFFFFF800003FFC0000003FFC
00000000000FFFFFF800003FFC0000003FFC
00000000001FFFFFF000003FFC0000003FFC
00000000003FFFFFE000003FFC0000003FFC
00000000003FFFFFE000003FFC0000003FFC
00000000007FFFFFC000003FFC0000003FFC
0000000000FFFFFF8000003FFC0000003FFC
0000000000FFFFFF8000003FFC0000003FFC
0000000001FFFFFF0000003FFC0000003FFC
0000000003FFFFFE0000003FFC0000003FFC
0000000003FFFFFE0000003FFC0000003FFC
0000000007FFFFFC0000003FFC0000003FFC
000000000FFFFFF80000003FFC0000003FFC
000000000FFFFFF80000003FFC0000003FFC
000000001FFFFFF00000003FFC0000003FFC
000000003FFFFFF00000003FFC0000003FFC
000000003FFFFFE00000003FFC0000003FFC
000000007FFFFFC00000003FFC0000003FFC
00000000FFFFFFC00000003FFC0000003FFC
00000000FFFFFF800000003FFC0000003FFC
00000001FFFFFF000000003FFC0000003FFC
00000003FFFFFF000000003FFC0000003FFC
00000003FFFFFE000000003FFC0000003FFC
00000007FFFFFC000000003FFC0000003FFC
0000000FFFFFFC000000003FFC0000003FFC
0000000FFFFFF8000000003FFC0000003FFC
0000001FFFFFF0000000003FFC0000003FFC
0000003FFFFFF0000000003FFC0000003FFC
0000003FFFFFE0000000003FFFFFFFFFFFFC
0000007FFFFFC0000000003FFFFFFFFFFFFC
000000FFFFFFC0000000003FFFFFFFFFFFFC
000000FFFFFF80000000001FFFFFFFFFFFF8
000001FFFFFF00000000001FFFFFFFFFFFF8
000003FFFFFF00000000000FFFFFFFFFFFF0
000003FFFFFE00000000000FFFFFFFFFFFF0
000007FFFFFC000000000007FFFFFFFFFFE0
00000FFFFFFC000000000003FFFFFFFFFFC0
00000FFFFFF8000000000001FFFFFFFFFF80
00001FFFFFF00000000000007FFFFFFFFF00
00003FFFFFF00000000000001FFFFFFFF800
ENDCHAR
STARTCHAR 0026
ENCODING 38
SWIDTH 633 0
DWIDTH 114 0
BBX 99 125 1 0
BITMAP
00007FFFFFFFFE000000000000
0003FFFFFFFFFFC00000000000
000FFFFFFFFFFFF00000000000
003FFFFFFFFFFFFC0000000000
007FFFFFFFFFFFFE0000000000
01FFFFFFFFFFFFFF8000000000
03FFFFFFFFFFFFFFC000000000
07FFFFFFFFFFFFFFE000000000
07FFFFFFFFFFFFFFE000000000
0FFFFFFFFFFFFFFFF000000000
1FFFFFFFFFFFFFFFF800000000
1FFFFFFFFFFFFFFFF800000000
3FFFFFFFFFFFFFFFFC00000000
3FFFFFFFFFFFFFFFFC00000000
7FFFFFFFFFFFFFFFFE00000000
7FFFFFFFFFFFFFFFFE00000000
7FFFFFFFFFFFFFFFFE00000000
FFFFFFFFFFFFFFFFFF00000000
FFFFFFFFFFFFFFFFFF00000000
FFFFFFFFFFFFFFFFFF00000000
FFFFFFFFFFFFFFFFFF00000000
FFFFFFFFFFFFFFFFFF00000000
FFFFFC0000003FFFFF00000000
FFFFFC0000003FFFFF00000000
FFFFFC0000003FFFFF00000000
FFFFFC0000003FFFFF00000000
FFFFFC0000003FFFFF00000000
FFFFFC0000003FFFFF00000000
FFFFFC0000003FFFFF00000000
FFFFFC0000003FFFFF00000000
FFFFFC0000003FFFFF00000000
FFFFFC0000003FFFFF00000000
FFFFFC0000003FFFFF00000000
FFFFFC0000003FFFFF00000000
FFFFFC0000003FFFFF00000000
FFFFFC0000003FFFFF00000000
FFFFFC0000003FFFFF00000000
FFFFFC0000003FFFFF00000000
FFFFFC0000003FFFFF00000000
FFFFFC0000003FFFFF00000000
FFFFFC0000003FFFFF00000000
FFFFFC0000003FFFFF00000000
FFFFFC0000003FFFFF00000000
FFFFFC0000003FFFFF00000000
FFFFFC0000003FFFFF00000000
FFFFFC0000003FFFFF00000000
FFFFFC0000003FFFFF00000000
FFFFFC0000003FFFFF00000000
FFFFFC0000003FFFFF00000000
FFFFFC0000003FFFFF00000000
FFFFFC0000003FFFFF00000000
FFFFFC0000003FFFFF00000000
FFFFFFFFFFFFFFFFFF00000000
FFFFFFFFFFFFFFFFFF00000000
FFFFFFFFFFFFFFFFFF00000000
FFFFFFFFFFFFFFFFFF00000000
7FFFFFFFFFFFFFFFFE00000000
7FFFFFFFFFFFFFFFFE00000000
3FFFFFFFFFFFFFFFFE00000000
3FFFFFFFFFFFFFFFFE00000000
1FFFFFFFFFFFFFFFFC00000000
0FFFFFFFFFFFFFFFFC00000000
07FFFFFFFFFFFFFFF800000000
03FFFFFFFFFFFFFFF800000000
07FFFFFFFFFFFFFFF000000000
0FFFFFFFFFFFFFFFE000000000
3FFFFFFFFFFFFFFFC000000000
7FFFFFFFFFFFFFFF8000000000
7FFFFFFFFFFFFFFF0000000000
FFFFFFFFFFFFFFFE0000000000
FFFFFFFFFFFFFFF80000000000
FFFFFFFFFFFFFFE00000000000
FFFFFFFFFFFFFE000FFFFFC000
FFFFFFFFFFFFFE000FFFFFC000
FFFFFDFFFFFFFF000FFFFFC000
FFFFFC7FFFFFFFC00FFFFFC000
FFFFFC3FFFFFFFE00FFFFFC000
FFFFFC0FFFFFFFF80FFFFFC000
FFFFFC07FFFFFFFC0FFFFFC000
FFFFFC01FFFFFFFF0FFFFFC000
FFFFFC00FFFFFFFF8FFFFFC000
FFFFFC003FFFFFFFEFFFFFC000
FFFFFC001FFFFFFFFFFFFFC000
FFFFFC0007FFFFFFFFFFFFC000
FFFFFC0003FFFFFFFFFFFFC000
FFFFFC0000FFFFFFFFFFFFC000
FFFFFC00003FFFFFFFFFFFC000
FFFFFC00001FFFFFFFFFFFC000
FFFFFC000007FFFFFFFFFFC000
FFFFFC000003FFFFFFFFFFC000
FFFFFC000000FFFFFFFFFFC000
FFFFFC0000007FFFFFFFFFC000
FFFFFC0000001FFFFFFFFFC000
FFFFFC0000000FFFFFFFFFC000
FFFFFC00000003FFFFFFFFC000
FFFFFC00000001FFFFFFFFC000
FFFFFC000000007FFFFFFFC000
FFFFFC000000003FFFFFFFE000
FFFFFC000000000FFFFFFFF800
FFFFFC0000000007FFFFFFFC00
FFFFFC0000000001FFFFFFFF00
FFFFFC0000000000FFFFFFFF80
FFFFFC00000000003FFFFFFFE0
FFFFFFFFFFFFFFFFFFFFFFFFE0
FFFFFFFFFFFFFFFFFFFFFFFFE0
FFFFFFFFFFFFFFFFFFFFFFFFE0
FFFFFFFFFFFFFFFFFFFFFFFFE0
7FFFFFFFFFFFFFFFFFFFFFFFE0
7FFFFFFFFFFFFFFFFFFFFFFFE0
7FFFFFFFFFFFFFFFFFFFFFFFE0
7FFFFFFFFFFFFFFFFFFFFFFFE0
3FFFFFFFFFFFFFFFFFFFFFFFE0
3FFFFFFFFFFFFFFFFFFFFFFFE0
1FFFFFFFFFFFFFFFFFFFFFFFE0
1FFFFFFFFFFFFFFFFFFFFFFFE0
0FFFFFFFFFFFFFFFFFFFFFFFE0
07FFFFFFFFFFFFFFFFFFFDFFE0
03FFFFFFFFFFFFFFFFFFF8FFE0
01FFFFFFFFFFFFFFFFFFF03FE0
00FFFFFFFFFFFFFFFFFFE01FE0
007FFFFFFFFFFFFFFFFF8007E0
003FFFFFFFFFFFFFFFFF0003E0
000FFFFFFFFFFFFFFFFC0000E0
0003FFFFFFFFFFFFFFF0000060
00003FFFFFFFFFFFFF80000000
ENDCHAR
STARTCHAR 0027
ENCODING 39
SWIDTH 211 0
DWIDTH 38 0
BBX 22 33 1 92
BITMAP
01FE00
0FFF80
1FFFE0
3FFFF0
7FFFF8
7FFFF8
FFFFFC
FFFFFC
FFFFFC
FFFFFC
FFFFFC
FFFFFC
FFFFFC
FFFFFC
FFFFFC
FFFFFC
FFFFFC
FFFFFC
FFFFFC
FFFFFC
FFFFFC
FFFFFC
FFFFF8
FFFFE0
FFFF80
FFFE00
FFF800
FFE000
FF8000
FE0000
F80000
E00000
800000
ENDCHAR
STARTCHAR 0028
ENCODING 40
SWIDTH 377 0
DWIDTH 68 0
BBX 54 125 1 0
BITMAP
00007FFFFFFFFC
0003FFFFFFFFFC
000FFFFFFFFFFC
003FFFFFFFFFFC
007FFFFFFFFFFC
00FFFFFFFFFFFC
03FFFFFFFFFFFC
03FFFFFFFFFFFC
07FFFFFFFFFFFC
0FFFFFFFFFFFFC
1FFFFFFFFFFFFC
1FFFFFFFFFFFFC
3FFFFFFFFFFFFC
3FFFFFFFFFFFFC
7FFFFFFFFFFFFC
7FFFFFFFFFFFFC
7FFFFFFFFFFFFC
FFFFFFFFFFFFFC
FFFFFFFFFFFFFC
FFFFFFFFFFFFFC
FFFFFFFFFFFFFC
FFFFFFFFFFFFFC
FFFFFC00000000
FFFFFC00000000
FFFFFC00000000
FFFFFC00000000
FFFFFC00000000
FFFFFC00000000
FFFFFC00000000
FFFFFC00000000
FFFFFC00000000
FFFFFC00000000
FFFFFC00000000
FFFFFC00000000
FFFFFC00000000
FFFFFC00000000
FFFFFC00000000
FFFFFC00000000
FFFFFC00000000
FFFFFC00000000
FFFFFC00000000
FFFFFC00000000
FFFFFC00000000
FFFFFC00000000
FFFFFC00000000
FFFFFC00000000
FFFFFC00000000
FFFFFC00000000
FFFFFC00000000
FFFFFC00000000
FFFFFC00000000
FFFFFC00000000
FFFFFC00000000
FFFFFC00000000
FFFFFC00000000
FFFFFC00000000
FFFFFC00000000
FFFFFC00000000
FFFFFC00000000
FFFFFC00000000
FFFFFC00000000
FFFFFC00000000
FFFFFC00000000
FFFFFC00000000
FFFFFC00000000
FFFFFC00000000
FFFFFC00000000
FFFFFC00000000
FFFFFC00000000
FFFFFC00000000
FFFFFC00000000
FFFFFC00000000
FFFFFC00000000
FFFFFC00000000
FFFFFC00000000
FFFFFC00000000
FFFFFC00000000
FFFFFC00000000
FFFFFC00000000
FFFFFC00000000
FFFFFC00000000
FFFFFC00000000
FFFFFC00000000
FFFFFC00000000
FFFFFC00000000
FFFFFC00000000
FFFFFC00000000
FFFFFC00000000
FFFFFC00000000
FFFFFC00000000
FFFFFC00000000
FFFFFC00000000
FFFFFC00000000
FFFFFC00000000
FFFFFC00000000
FFFFFC00000000
FFFFFC00000000
FFFFFC00000000
FFFFFC00000000
FFFFFC00000000
FFFFFC00000000
FFFFFC00000000
FFFFFC00000000
FFFFFFFFFFFFFC
FFFFFFFFFFFFFC
FFFFFFFFFFFFFC
FFFFFFFFFFFFFC
7FFFFFFFFFFFFC
7FFFFFFFFFFFFC
7FFFFFFFFFFFFC
7FFFFFFFFFFFFC
3FFFFFFFFFFFFC
3FFFFFFFFFFFFC
1FFFFFFFFFFFFC
1FFFFFFFFFFFFC
0FFFFFFFFFFFFC
07FFFFFFFFFFFC
03FFFFFFFFFFFC
01FFFFFFFFFFFC
00FFFFFFFFFFFC
007FFFFFFFFFFC
003FFFFFFFFFFC
000FFFFFFFFFFC
0003FFFFFFFFFC
00003FFFFFFFFC
ENDCHAR
STARTCHAR 0029
ENCODING 41
SWIDTH 400 0
DWIDTH 72 0
BBX 54 125 1 0
BITMAP
FFFFFFFFF80000
FFFFFFFFFF0000
FFFFFFFFFFC000
FFFFFFFFFFF000
FFFFFFFFFFF800
FFFFFFFFFFFE00
FFFFFFFFFFFF00
FFFFFFFFFFFF80
FFFFFFFFFFFF80
FFFFFFFFFFFFC0
FFFFFFFFFFFFE0
FFFFFFFFFFFFE0
FFFFFFFFFFFFF0
FFFFFFFFFFFFF0
FFFFFFFFFFFFF8
FFFFFFFFFFFFF8
FFFFFFFFFFFFF8
FFFFFFFFFFFFF8
FFFFFFFFFFFFFC
FFFFFFFFFFFFFC
FFFFFFFFFFFFFC
FFFFFFFFFFFFFC
00000000FFFFFC
00000000FFFFFC
00000000FFFFFC
00000000FFFFFC
00000000FFFFFC
00000000FFFFFC
00000000FFFFFC
00000000FFFFFC
00000000FFFFFC
00000000FFFFFC
00000000FFFFFC
00000000FFFFFC
00000000FFFFFC
00000000FFFFFC
00000000FFFFFC
00000000FFFFFC
00000000FFFFFC
00000000FFFFFC
00000000FFFFFC
00000000FFFFFC
00000000FFFFFC
00000000FFFFFC
00000000FFFFFC
00000000FFFFFC
00000000FFFFFC
00000000FFFFFC
00000000FFFFFC
00000000FFFFFC
00000000FFFFFC
00000000FFFFFC
00000000FFFFFC
00000000FFFFFC
00000000FFFFFC
00000000FFFFFC
00000000FFFFFC
00000000FFFFFC
00000000FFFFFC
00000000FFFFFC
00000000FFFFFC
00000000FFFFFC
00000000FFFFFC
00000000FFFFFC
00000000FFFFFC
00000000FFFFFC
00000000FFFFFC
00000000FFFFFC
00000000FFFFFC
00000000FFFFFC
00000000FFFFFC
00000000FFFFFC
00000000FFFFFC
00000000FFFFFC
00000000FFFFFC
00000000FFFFFC
00000000FFFFFC
00000000FFFFFC
00000000FFFFFC
00000000FFFFFC
00000000FFFFFC
00000000FFFFFC
00000000FFFFFC
00000000FFFFFC
00000000FFFFFC
00000000FFFFFC
00000000FFFFFC
00000000FFFFFC
00000000FFFFFC
00000000FFFFFC
00000000FFFFFC
00000000FFFFFC
00000000FFFFFC
00000000FFFFFC
00000000FFFFFC
00000000FFFFFC
00000000FFFFFC
00000000FFFFFC
00000000FFFFFC
00000000FFFFFC
00000000FFFFFC
00000000FFFFFC
00000000FFFFFC
FFFFFFFFFFFFFC
FFFFFFFFFFFFFC
FFFFFFFFFFFFFC
FFFFFFFFFFFFFC
FFFFFFFFFFFFF8
FFFFFFFFFFFFF8
FFFFFFFFFFFFF8
FFFFFFFFFFFFF8
FFFFFFFFFFFFF0
FFFFFFFFFFFFF0
FFFFFFFFFFFFE0
FFFFFFFFFFFFE0
FFFFFFFFFFFFC0
FFFFFFFFFFFF80
FFFFFFFFFFFF00
FFFFFFFFFFFE00
FFFFFFFFFFFC00
FFFFFFFFFFF800
FFFFFFFFFFF000
FFFFFFFFFFC000
FFFFFFFFFF0000
FFFFFFFFF80000
ENDCHAR
STARTCHAR 002A
ENCODING 42
SWIDTH 516 0
DWIDTH 93 0
BBX 77 73 1 27
BITMAP
7FFFFC00000003FFFFF8
7FFFFC00000003FFFFF0
3FFFFE00000007FFFFE0
1FFFFF0000000FFFFFE0
0FFFFF8000001FFFFFC0
0FFFFF8000003FFFFF80
07FFFFC000003FFFFF00
03FFFFE000007FFFFF00
03FFFFE00000FFFFFE00
01FFFFF00001FFFFFC00
00FFFFF80001FFFFF800
007FFFFC0003FFFFF800
007FFFFC0007FFFFF000
003FFFFE000FFFFFE000
001FFFFF000FFFFFC000
001FFFFF001FFFFFC000
000FFFFF803FFFFF8000
0007FFFFC07FFFFF0000
0003FFFFE07FFFFE0000
0003FFFFE0FFFFFC0000
0001FFFFF1FFFFFC0000
0000FFFFFBFFFFF80000
00007FFFFFFFFFF00000
00007FFFFFFFFFE00000
00003FFFFFFFFFE00000
00001FFFFFFFFFC00000
FFFFFFFFFFFFFFFFFF00
FFFFFFFFFFFFFFFFFF00
FFFFFFFFFFFFFFFFFF00
FFFFFFFFFFFFFFFFFF00
FFFFFFFFFFFFFFFFFF00
FFFFFFFFFFFFFFFFFF00
FFFFFFFFFFFFFFFFFF00
FFFFFFFFFFFFFFFFFF00
FFFFFFFFFFFFFFFFFF00
FFFFFFFFFFFFFFFFFF00
FFFFFFFFFFFFFFFFFF00
FFFFFFFFFFFFFFFFFF00
FFFFFFFFFFFFFFFFFF00
FFFFFFFFFFFFFFFFFF00
FFFFFFFFFFFFFFFFFF00
FFFFFFFFFFFFFFFFFF00
FFFFFFFFFFFFFFFFFF00
FFFFFFFFFFFFFFFFFF00
FFFFFFFFFFFFFFFFFF00
FFFFFFFFFFFFFFFFFF00
FFFFFFFFFFFFFFFFFF00
FFFFFFFFFFFFFFFFFF00
00003FFFFFFFFF800000
00007FFFFFFFFFC00000
00007FFFFFFFFFE00000
0000FFFFFFFFFFF00000
0001FFFFFBFFFFF00000
0003FFFFF1FFFFF80000
0003FFFFF0FFFFFC0000
0007FFFFE0FFFFFC0000
000FFFFFC07FFFFE0000
001FFFFF803FFFFF0000
001FFFFF803FFFFF8000
003FFFFF001FFFFF8000
007FFFFE000FFFFFC000
00FFFFFC0007FFFFE000
00FFFFFC0007FFFFE000
01FFFFF80003FFFFF000
03FFFFF00001FFFFF800
07FFFFE00001FFFFFC00
0FFFFFC00000FFFFFC00
0FFFFFC000007FFFFE00
1FFFFF8000003FFFFF00
3FFFFF0000003FFFFF80
7FFFFE0000001FFFFF80
7FFFFE0000000FFFFFC0
0000000000000FFFFFE0
ENDCHAR
STARTCHAR 002B
ENCODING 43
SWIDTH 483 0
DWIDTH 87 0
BBX 73 72 1 28
BITMAP
0000003FFFFF00000000
0000003FFFFF00000000
0000003FFFFF00000000
0000003FFFFF00000000
0000003FFFFF00000000
0000003FFFFF00000000
0000003FFFFF00000000
0000003FFFFF00000000
0000003FFFFF00000000
0000003FFFFF00000000
0000003FFFFF00000000
0000003FFFFF00000000
0000003FFFFF00000000
0000003FFFFF00000000
0000003FFFFF00000000
0000003FFFFF00000000
0000003FFFFF00000000
0000003FFFFF00000000
0000003FFFFF00000000
0000003FFFFF00000000
0000003FFFFF00000000
0000003FFFFF00000000
0000003FFFFF00000000
0000003FFFFF00000000
0000003FFFFF00000000
0000003FFFFF00000000
FFFFFFFFFFFFFFFFFF80
FFFFFFFFFFFFFFFFFF80
FFFFFFFFFFFFFFFFFF80
FFFFFFFFFFFFFFFFFF80
FFFFFFFFFFFFFFFFFF80
FFFFFFFFFFFFFFFFFF80
FFFFFFFFFFFFFFFFFF80
FFFFFFFFFFFFFFFFFF80
FFFFFFFFFFFFFFFFFF80
FFFFFFFFFFFFFFFFFF80
FFFFFFFFFFFFFFFFFF80
FFFFFFFFFFFFFFFFFF80
FFFFFFFFFFFFFFFFFF80
FFFFFFFFFFFFFFFFFF80
FFFFFFFFFFFFFFFFFF80
FFFFFFFFFFFFFFFFFF80
FFFFFFFFFFFFFFFFFF80
FFFFFFFFFFFFFFFFFF80
FFFFFFFFFFFFFFFFFF80
FFFFFFFFFFFFFFFFFF80
FFFFFFFFFFFFFFFFFF80
FFFFFFFFFFFFFFFFFF80
0000003FFFFF00000000
0000003FFFFF00000000
0000003FFFFF00000000
0000003FFFFF00000000
0000003FFFFF00000000
0000003FFFFF00000000
0000003FFFFF00000000
0000003FFFFF00000000
0000003FFFFF00000000
0000003FFFFF00000000
0000003FFFFF00000000
0000003FFFFF00000000
0000003FFFFF00000000
0000003FFFFF00000000
0000003FFFFF00000000
0000003FFFFF00000000
0000003FFFFF00000000
0000003FFFFF00000000
0000003FFFFF00000000
0000003FFFFF00000000
0000003FFFFF00000000
0000003FFFFF00000000
0000003FFFFF00000000
0000003FFFFF00000000
ENDCHAR
STARTCHAR 002C
ENCODING 44
SWIDTH 216 0
DWIDTH 39 0
BBX 22 33 1 -12
BITMAP
01FE00
0FFF80
1FFFE0
3FFFF0
7FFFF0
7FFFF8
FFFFF8
FFFFFC
FFFFFC
FFFFFC
FFFFFC
FFFFFC
FFFFFC
FFFFFC
FFFFFC
FFFFFC
FFFFFC
FFFFFC
FFFFFC
FFFFFC
FFFFFC
FFFFFC
FFFFF8
FFFFE0
FFFF80
FFFE00
FFF800
FFE000
FF8000
FE0000
F80000
E00000
800000
ENDCHAR
STARTCHAR 002D
ENCODING 45
SWIDTH 500 0
DWIDTH 90 0
BBX 72 22 1 52
BITMAP
FFFFFFFFFFFFFFFFFF
FFFFFFFFFFFFFFFFFF
FFFFFFFFFFFFFFFFFF
FFFFFFFFFFFFFFFFFF
FFFFFFFFFFFFFFFFFF
FFFFFFFFFFFFFFFFFF
FFFFFFFFFFFFFFFFFF
FFFFFFFFFFFFFFFFFF
FFFFFFFFFFFFFFFFFF
FFFFFFFFFFFFFFFFFF
FFFFFFFFFFFFFFFFFF
FFFFFFFFFFFFFFFFFF
FFFFFFFFFFFFFFFFFF
FFFFFFFFFFFFFFFFFF
FFFFFFFFFFFFFFFFFF
FFFFFFFFFFFFFFFFFF
FFFFFFFFFFFFFFFFFF
FFFFFFFFFFFFFFFFFF
FFFFFFFFFFFFFFFFFF
FFFFFFFFFFFFFFFFFF
FFFFFFFFFFFFFFFFFF
FFFFFFFFFFFFFFFFFF
ENDCHAR
STARTCHAR 002E
ENCODING 46
SWIDTH 211 0
DWIDTH 38 0
BBX 22 21 0 0
BITMAP
01FE00
0FFF80
1FFFE0
3FFFF0
7FFFF0
7FFFF8
FFFFF8
FFFFFC
FFFFFC
FFFFFC
FFFFFC
FFFFFC
FFFFFC
7FFFFC
7FFFF8
7FFFF8
3FFFF0
1FFFE0
0FFFC0
07FF80
00FE00
ENDCHAR
STARTCHAR 002F
ENCODING 47
SWIDTH 633 0
DWIDTH 114 0
BBX 107 125 1 0
BITMAP
000000000000000000001FFFFFE0
000000000000000000003FFFFFC0
000000000000000000007FFFFF80
000000000000000000007FFFFF80
00000000000000000000FFFFFF00
00000000000000000001FFFFFE00
00000000000000000001FFFFFE00
00000000000000000003FFFFFC00
00000000000000000007FFFFF800
00000000000000000007FFFFF800
0000000000000000000FFFFFF000
0000000000000000001FFFFFE000
0000000000000000001FFFFFE000
0000000000000000003FFFFFC000
0000000000000000007FFFFF8000
0000000000000000007FFFFF8000
000000000000000000FFFFFF0000
000000000000000001FFFFFE0000
000000000000000001FFFFFE0000
000000000000000003FFFFFC0000
000000000000000007FFFFF80000
000000000000000007FFFFF80000
00000000000000000FFFFFF00000
00000000000000001FFFFFE00000
00000000000000001FFFFFE00000
00000000000000003FFFFFC00000
00000000000000007FFFFF800000
00000000000000007FFFFF800000
0000000000000000FFFFFF000000
0000000000000001FFFFFE000000
0000000000000001FFFFFE000000
0000000000000003FFFFFC000000
0000000000000007FFFFF8000000
0000000000000007FFFFF8000000
000000000000000FFFFFF0000000
000000000000001FFFFFE0000000
000000000000001FFFFFE0000000
000000000000003FFFFFC0000000
000000000000007FFFFF80000000
000000000000007FFFFF80000000
00000000000000FFFFFF00000000
00000000000001FFFFFE00000000
00000000000001FFFFFE00000000
00000000000003FFFFFC00000000
00000000000007FFFFF800000000
00000000000007FFFFF800000000
0000000000000FFFFFF000000000
0000000000001FFFFFE000000000
0000000000001FFFFFE000000000
0000000000003FFFFFC000000000
0000000000007FFFFF8000000000
0000000000007FFFFF8000000000
000000000000FFFFFF0000000000
000000000001FFFFFE0000000000
000000000001FFFFFE0000000000
000000000003FFFFFC0000000000
000000000007FFFFF80000000000
000000000007FFFFF80000000000
00000000000FFFFFF00000000000
00000000001FFFFFE00000000000
00000000001FFFFFE00000000000
00000000003FFFFFC00000000000
00000000007FFFFF800000000000
00000000007FFFFF800000000000
0000000000FFFFFF000000000000
0000000001FFFFFE000000000000
0000000001FFFFFE000000000000
0000000003FFFFFC000000000000
0000000007FFFFF8000000000000
0000000007FFFFF8000000000000
000000000FFFFFF0000000000000
000000001FFFFFE0000000000000
000000001FFFFFE0000000000000
000000003FFFFFC0000000000000
000000007FFFFFC0000000000000
000000007FFFFF80000000000000
00000000FFFFFF00000000000000
00000001FFFFFF00000000000000
00000001FFFFFE00000000000000
00000003FFFFFC00000000000000
00000007FFFFFC00000000000000
00000007FFFFF800000000000000
0000000FFFFFF000000000000000
0000000FFFFFF000000000000000
0000001FFFFFE000000000000000
0000003FFFFFC000000000000000
0000003FFFFFC000000000000000
0000007FFFFF8000000000000000
000000FFFFFF0000000000000000
000000FFFFFF0000000000000000
000001FFFFFE0000000000000000
000003FFFFFC0000000000000000
000003FFFFFC0000000000000000
000007FFFFF80000000000000000
00000FFFFFF00000000000000000
00000FFFFFF00000000000000000
00001FFFFFE00000000000000000
00003FFFFFC00000000000000000
00003FFFFFC00000000000000000
00007FFFFF800000000000000000
0000FFFFFF000000000000000000
0000FFFFFF000000000000000000
0001FFFFFE000000000000000000
0003FFFFFC000000000000000000
0003FFFFFC000000000000000000
0007FFFFF8000000000000000000
000FFFFFF0000000000000000000
000FFFFFF0000000000000000000
001FFFFFE0000000000000000000
003FFFFFC0000000000000000000
003FFFFFC0000000000000000000
007FFFFF80000000000000000000
00FFFFFF00000000000000000000
00FFFFFF00000000000000000000
01FFFFFE00000000000000000000
03FFFFFC00000000000000000000
03FFFFFC00000000000000000000
07FFFFF800000000000000000000
0FFFFFF000000000000000000000
0FFFFFF000000000000000000000
1FFFFFE000000000000000000000
3FFFFFC000000000000000000000
3FFFFFC000000000000000000000
7FFFFF8000000000000000000000
FFFFFF0000000000000000000000
ENDCHAR
STARTCHAR 0030
ENCODING 48
SWIDTH 694 0
DWIDTH 125 0
BBX 108 125 1 0
BITMAP
00003FFFFFFFFFFFFFFFFFE00000
0003FFFFFFFFFFFFFFFFFFFC0000
000FFFFFFFFFFFFFFFFFFFFF0000
003FFFFFFFFFFFFFFFFFFFFFC000
007FFFFFFFFFFFFFFFFFFFFFE000
00FFFFFFFFFFFFFFFFFFFFFFF800
03FFFFFFFFFFFFFFFFFFFFFFFC00
03FFFFFFFFFFFFFFFFFFFFFFFE00
07FFFFFFFFFFFFFFFFFFFFFFFE00
0FFFFFFFFFFFFFFFFFFFFFFFFF00
1FFFFFFFFFFFFFFFFFFFFFFFFF80
1FFFFFFFFFFFFFFFFFFFFFFFFF80
3FFFFFFFFFFFFFFFFFFFFFFFFFC0
3FFFFFFFFFFFFFFFFFFFFFFFFFC0
7FFFFFFFFFFFFFFFFFFFFFFFFFE0
7FFFFFFFFFFFFFFFFFFFFFFFFFE0
7FFFFFFFFFFFFFFFFFFFFFFFFFE0
FFFFFFFFFFFFFFFFFFFFFFFFFFE0
FFFFFFFFFFFFFFFFFFFFFFFFFFF0
FFFFFFFFFFFFFFFFFFFFFFFFFFF0
FFFFFFFFFFFFFFFFFFFFFFFFFFF0
FFFFFFFFFFFFFFFFFFFFFFFFFFF0
FFFFFC0000000000000003FFFFF0
FFFFFC0000000000000003FFFFF0
FFFFFC0000000000000003FFFFF0
FFFFFC0000000000000003FFFFF0
FFFFFC0000000000000003FFFFF0
FFFFFC0000000000000003FFFFF0
FFFFFC0000000000000003FFFFF0
FFFFFC0000000000000003FFFFF0
FFFFFC0000000000000003FFFFF0
FFFFFC0000000000000003FFFFF0
FFFFFC0000000000000003FFFFF0
FFFFFC0000000000000003FFFFF0
FFFFFC0000000000000003FFFFF0
FFFFFC0000000000000003FFFFF0
FFFFFC0000000000000003FFFFF0
FFFFFC0000000000000003FFFFF0
FFFFFC0000000000000003FFFFF0
FFFFFC0000000000000003FFFFF0
FFFFFC0000000000000003FFFFF0
FFFFFC0000000000000003FFFFF0
FFFFFC0000000000000003FFFFF0
FFFFFC0000000000000003FFFFF0
FFFFFC0000000000000003FFFFF0
FFFFFC0000000000000003FFFFF0
FFFFFC0000000000000003FFFFF0
FFFFFC0000000000000003FFFFF0
FFFFFC0000000000000003FFFFF0
FFFFFC0000000000000003FFFFF0
FFFFFC0000000000000003FFFFF0
FFFFFC0000000000000003FFFFF0
FFFFFC0000000000000003FFFFF0
FFFFFC0000000000000003FFFFF0
FFFFFC0000000000000003FFFFF0
FFFFFC0000000000000003FFFFF0
FFFFFC0000000000000003FFFFF0
FFFFFC0000000000000003FFFFF0
FFFFFC0000000000000003FFFFF0
FFFFFC0000000000000003FFFFF0
FFFFFC0000000000000003FFFFF0
FFFFFC0000000000000003FFFFF0
FFFFFC0000000000000003FFFFF0
FFFFFC0000000000000003FFFFF0
FFFFFC0000000000000003FFFFF0
FFFFFC0000000000000003FFFFF0
FFFFFC0000000000000003FFFFF0
FFFFFC0000000000000003FFFFF0
FFFFFC0000000000000003FFFFF0
FFFFFC0000000000000003FFFFF0
FFFFFC0000000000000003FFFFF0
FFFFFC0000000000000003FFFFF0
FFFFFC0000000000000003FFFFF0
FFFFFC0000000000000003FFFFF0
FFFFFC0000000000000003FFFFF0
FFFFFC0000000000000003FFFFF0
FFFFFC0000000000000003FFFFF0
FFFFFC0000000000000003FFFFF0
FFFFFC0000000000000003FFFFF0
FFFFFC0000000000000003FFFFF0
FFFFFC0000000000000003FFFFF0
FFFFFC0000000000000003FFFFF0
FFFFFC0000000000000003FFFFF0
FFFFFC0000000000000003FFFFF0
FFFFFC0000000000000003FFFFF0
FFFFFC0000000000000003FFFFF0
FFFFFC0000000000000003FFFFF0
FFFFFC0000000000000003FFFFF0
FFFFFC0000000000000003FFFFF0
FFFFFC0000000000000003FFFFF0
FFFFFC0000000000000003FFFFF0
FFFFFC0000000000000003FFFFF0
FFFFFC0000000000000003FFFFF0
FFFFFC0000000000000003FFFFF0
FFFFFC0000000000000003FFFFF0
FFFFFC0000000000000003FFFFF0
FFFFFC0000000000000003FFFFF0
FFFFFC0000000000000003FFFFF0
FFFFFC0000000000000003FFFFF0
FFFFFC0000000000000003FFFFF0
FFFFFC0000000000000003FFFFF0
FFFFFC0000000000000003FFFFF0
FFFFFC0000000000000003FFFFF0
FFFFFFFFFFFFFFFFFFFFFFFFFFF0
FFFFFFFFFFFFFFFFFFFFFFFFFFF0
FFFFFFFFFFFFFFFFFFFFFFFFFFF0
FFFFFFFFFFFFFFFFFFFFFFFFFFF0
7FFFFFFFFFFFFFFFFFFFFFFFFFF0
7FFFFFFFFFFFFFFFFFFFFFFFFFE0
7FFFFFFFFFFFFFFFFFFFFFFFFFE0
7FFFFFFFFFFFFFFFFFFFFFFFFFE0
3FFFFFFFFFFFFFFFFFFFFFFFFFC0
3FFFFFFFFFFFFFFFFFFFFFFFFFC0
1FFFFFFFFFFFFFFFFFFFFFFFFF80
1FFFFFFFFFFFFFFFFFFFFFFFFF80
0FFFFFFFFFFFFFFFFFFFFFFFFF00
07FFFFFFFFFFFFFFFFFFFFFFFE00
03FFFFFFFFFFFFFFFFFFFFFFFC00
01FFFFFFFFFFFFFFFFFFFFFFF800
00FFFFFFFFFFFFFFFFFFFFFFF000
007FFFFFFFFFFFFFFFFFFFFFE000
003FFFFFFFFFFFFFFFFFFFFFC000
000FFFFFFFFFFFFFFFFFFFFF0000
0003FFFFFFFFFFFFFFFFFFFC0000
00003FFFFFFFFFFFFFFFFFE00000
ENDCHAR
STARTCHAR 0031
ENCODING 49
SWIDTH 416 0
DWIDTH 75 0
BBX 57 125 1 0
BITMAP
0000000000000080
0000000000000380
0000000000001F80
0000000000007F80
000000000001FF80
000000000007FF80
00000000003FFF80
0000000000FFFF80
0000000003FFFF80
000000001FFFFF80
000000007FFFFF80
00000001FFFFFF80
00000007FFFFFF80
0000003FFFFFFF80
000000FFFFFFFF80
000003FFFFFFFF80
00000FFFFFFFFF80
00007FFFFFFFFF80
0001FFFFFFFFFF80
0007FFFFFFFFFF80
001FFFFFFFFFFF80
00FFFFFFFFFFFF80
03FFFFFFFFFFFF80
0FFFFFFFFFFFFF80
3FFFFFFFFFFFFF80
FFFFFFFFFFFFFF80
FFFFFFFFFFFFFF80
FFFFFFFFFFFFFF80
FFFFFFFFFFFFFF80
FFFFFFFFFFFFFF80
FFFFFFFFFFFFFF80
FFFFFFFFFFFFFF80
FFFFFFFFFFFFFF80
FFFFFFFFFFFFFF80
FFFFFFFFFFFFFF80
FFFFFFFEFFFFFF80
FFFFFFF8FFFFFF80
FFFFFFE0FFFFFF80
FFFFFF80FFFFFF80
FFFFFE00FFFFFF80
FFFFF800FFFFFF80
FFFFE000FFFFFF80
FFFF8000FFFFFF80
FFFE0000FFFFFF80
FFF80000FFFFFF80
FFE00000FFFFFF80
FF000000FFFFFF80
FC000000FFFFFF80
F0000000FFFFFF80
C0000000FFFFFF80
00000000FFFFFF80
00000000FFFFFF80
00000000FFFFFF80
00000000FFFFFF80
00000000FFFFFF80
00000000FFFFFF80
00000000FFFFFF80
00000000FFFFFF80
00000000FFFFFF80
00000000FFFFFF80
00000000FFFFFF80
00000000FFFFFF80
00000000FFFFFF80
00000000FFFFFF80
00000000FFFFFF80
00000000FFFFFF80
00000000FFFFFF80
00000000FFFFFF80
00000000FFFFFF80
00000000FFFFFF80
00000000FFFFFF80
00000000FFFFFF80
00000000FFFFFF80
00000000FFFFFF80
00000000FFFFFF80
00000000FFFFFF80
00000000FFFFFF80
00000000FFFFFF80
00000000FFFFFF80
00000000FFFFFF80
00000000FFFFFF80
00000000FFFFFF80
00000000FFFFFF80
00000000FFFFFF80
00000000FFFFFF80
00000000FFFFFF80
00000000FFFFFF80
00000000FFFFFF80
00000000FFFFFF80
00000000FFFFFF80
00000000FFFFFF80
00000000FFFFFF80
00000000FFFFFF80
00000000FFFFFF80
00000000FFFFFF80
00000000FFFFFF80
00000000FFFFFF80
00000000FFFFFF80
00000000FFFFFF80
00000000FFFFFF80
00000000FFFFFF80
00000000FFFFFF80
00000000FFFFFF80
00000000FFFFFF80
00000000FFFFFF80
00000000FFFFFF80
00000000FFFFFF80
00000000FFFFFF80
00000000FFFFFF80
00000000FFFFFF80
00000000FFFFFF80
00000000FFFFFF80
00000000FFFFFF80
00000000FFFFFF80
00000000FFFFFF80
00000000FFFFFF80
00000000FFFFFF80
00000000FFFFFF80
00000000FFFFFF80
00000000FFFFFF80
00000000FFFFFF80
00000000FFFFFF80
00000000FFFFFF80
00000000FFFFFF80
00000000FFFFFF80
ENDCHAR
STARTCHAR 0032
ENCODING 50
SWIDTH 677 0
DWIDTH 122 0
BBX 108 125 1 0
BITMAP
007FFFFFFFFFFFFFFFFFFFE00000
007FFFFFFFFFFFFFFFFFFFFC0000
007FFFFFFFFFFFFFFFFFFFFF0000
007FFFFFFFFFFFFFFFFFFFFFC000
007FFFFFFFFFFFFFFFFFFFFFE000
007FFFFFFFFFFFFFFFFFFFFFF000
007FFFFFFFFFFFFFFFFFFFFFFC00
007FFFFFFFFFFFFFFFFFFFFFFC00
007FFFFFFFFFFFFFFFFFFFFFFE00
007FFFFFFFFFFFFFFFFFFFFFFF00
007FFFFFFFFFFFFFFFFFFFFFFF80
007FFFFFFFFFFFFFFFFFFFFFFF80
007FFFFFFFFFFFFFFFFFFFFFFFC0
007FFFFFFFFFFFFFFFFFFFFFFFC0
007FFFFFFFFFFFFFFFFFFFFFFFE0
007FFFFFFFFFFFFFFFFFFFFFFFE0
007FFFFFFFFFFFFFFFFFFFFFFFE0
007FFFFFFFFFFFFFFFFFFFFFFFE0
007FFFFFFFFFFFFFFFFFFFFFFFF0
007FFFFFFFFFFFFFFFFFFFFFFFF0
007FFFFFFFFFFFFFFFFFFFFFFFF0
007FFFFFFFFFFFFFFFFFFFFFFFF0
0000000000000000000003FFFFF0
0000000000000000000003FFFFF0
0000000000000000000003FFFFF0
0000000000000000000003FFFFF0
0000000000000000000003FFFFF0
0000000000000000000003FFFFF0
0000000000000000000003FFFFF0
0000000000000000000003FFFFF0
0000000000000000000003FFFFF0
0000000000000000000003FFFFF0
0000000000000000000003FFFFF0
0000000000000000000003FFFFF0
0000000000000000000003FFFFF0
0000000000000000000003FFFFF0
0000000000000000000003FFFFF0
0000000000000000000003FFFFF0
0000000000000000000003FFFFF0
0000000000000000000003FFFFF0
0000000000000000000003FFFFF0
0000000000000000000003FFFFF0
0000000000000000000003FFFFF0
0000000000000000000003FFFFF0
0000000000000000000003FFFFF0
0000000000000000000003FFFFF0
0000000000000000000003FFFFF0
0000000000000000000003FFFFF0
0000000000000000000003FFFFF0
0000000000000000000003FFFFF0
0000000000000000000003FFFFF0
0000000000000000000003FFFFF0
0000000000000000000003FFFFF0
00000FFFFFFFFFFFFFFFFFFFFFF0
00007FFFFFFFFFFFFFFFFFFFFFF0
0003FFFFFFFFFFFFFFFFFFFFFFF0
000FFFFFFFFFFFFFFFFFFFFFFFF0
001FFFFFFFFFFFFFFFFFFFFFFFE0
007FFFFFFFFFFFFFFFFFFFFFFFE0
00FFFFFFFFFFFFFFFFFFFFFFFFE0
01FFFFFFFFFFFFFFFFFFFFFFFFE0
03FFFFFFFFFFFFFFFFFFFFFFFFC0
07FFFFFFFFFFFFFFFFFFFFFFFFC0
0FFFFFFFFFFFFFFFFFFFFFFFFF80
1FFFFFFFFFFFFFFFFFFFFFFFFF80
1FFFFFFFFFFFFFFFFFFFFFFFFF00
3FFFFFFFFFFFFFFFFFFFFFFFFE00
3FFFFFFFFFFFFFFFFFFFFFFFFC00
7FFFFFFFFFFFFFFFFFFFFFFFF800
7FFFFFFFFFFFFFFFFFFFFFFFF000
7FFFFFFFFFFFFFFFFFFFFFFFE000
FFFFFFFFFFFFFFFFFFFFFFFFC000
FFFFFFFFFFFFFFFFFFFFFFFF0000
FFFFFFFFFFFFFFFFFFFFFFFC0000
FFFFFFFFFFFFFFFFFFFFFFE00000
FFFFFC0000000000000000000000
FFFFFC0000000000000000000000
FFFFFC0000000000000000000000
FFFFFC0000000000000000000000
FFFFFC0000000000000000000000
FFFFFC0000000000000000000000
FFFFFC0000000000000000000000
FFFFFC0000000000000000000000
FFFFFC0000000000000000000000
FFFFFC0000000000000000000000
FFFFFC0000000000000000000000
FFFFFC0000000000000000000000
FFFFFC0000000000000000000000
FFFFFC0000000000000000000000
FFFFFC0000000000000000000000
FFFFFC0000000000000000000000
FFFFFC0000000000000000000000
FFFFFC0000000000000000000000
FFFFFC0000000000000000000000
FFFFFC0000000000000000000000
FFFFFC0000000000000000000000
FFFFFC0000000000000000000000
FFFFFC0000000000000000000000
FFFFFC0000000000000000000000
FFFFFC0000000000000000000000
FFFFFC0000000000000000000000
FFFFFC0000000000000000000000
FFFFFC0000000000000000000000
FFFFFFFFFFFFFFFFFFFFFFFFFFF0
FFFFFFFFFFFFFFFFFFFFFFFFFFF0
FFFFFFFFFFFFFFFFFFFFFFFFFFF0
FFFFFFFFFFFFFFFFFFFFFFFFFFF0
FFFFFFFFFFFFFFFFFFFFFFFFFFF0
FFFFFFFFFFFFFFFFFFFFFFFFFFF0
FFFFFFFFFFFFFFFFFFFFFFFFFFF0
FFFFFFFFFFFFFFFFFFFFFFFFFFF0
FFFFFFFFFFFFFFFFFFFFFFFFFFF0
FFFFFFFFFFFFFFFFFFFFFFFFFFF0
FFFFFFFFFFFFFFFFFFFFFFFFFFF0
FFFFFFFFFFFFFFFFFFFFFFFFFFF0
FFFFFFFFFFFFFFFFFFFFFFFFFFF0
FFFFFFFFFFFFFFFFFFFFFFFFFFF0
FFFFFFFFFFFFFFFFFFFFFFFFFFF0
FFFFFFFFFFFFFFFFFFFFFFFFFFF0
FFFFFFFFFFFFFFFFFFFFFFFFFFF0
FFFFFFFFFFFFFFFFFFFFFFFFFFF0
FFFFFFFFFFFFFFFFFFFFFFFFFFF0
FFFFFFFFFFFFFFFFFFFFFFFFFFF0
FFFFFFFFFFFFFFFFFFFFFFFFFFF0
FFFFFFFFFFFFFFFFFFFFFFFFFFF0
ENDCHAR
STARTCHAR 0033
ENCODING 51
SWIDTH 700 0
DWIDTH 126 0
BBX 108 125 1 0
BITMAP
FFFFFFFFFFFFFFFFFFFFFFC00000
FFFFFFFFFFFFFFFFFFFFFFFC0000
FFFFFFFFFFFFFFFFFFFFFFFF0000
FFFFFFFFFFFFFFFFFFFFFFFFC000
FFFFFFFFFFFFFFFFFFFFFFFFE000
FFFFFFFFFFFFFFFFFFFFFFFFF000
FFFFFFFFFFFFFFFFFFFFFFFFF800
FFFFFFFFFFFFFFFFFFFFFFFFFC00
FFFFFFFFFFFFFFFFFFFFFFFFFE00
FFFFFFFFFFFFFFFFFFFFFFFFFF00
FFFFFFFFFFFFFFFFFFFFFFFFFF80
FFFFFFFFFFFFFFFFFFFFFFFFFF80
FFFFFFFFFFFFFFFFFFFFFFFFFFC0
FFFFFFFFFFFFFFFFFFFFFFFFFFC0
FFFFFFFFFFFFFFFFFFFFFFFFFFE0
FFFFFFFFFFFFFFFFFFFFFFFFFFE0
FFFFFFFFFFFFFFFFFFFFFFFFFFE0
FFFFFFFFFFFFFFFFFFFFFFFFFFE0
FFFFFFFFFFFFFFFFFFFFFFFFFFF0
FFFFFFFFFFFFFFFFFFFFFFFFFFF0
FFFFFFFFFFFFFFFFFFFFFFFFFFF0
FFFFFFFFFFFFFFFFFFFFFFFFFFF0
0000000000000000000003FFFFF0
0000000000000000000003FFFFF0
0000000000000000000003FFFFF0
0000000000000000000003FFFFF0
0000000000000000000003FFFFF0
0000000000000000000003FFFFF0
0000000000000000000003FFFFF0
0000000000000000000003FFFFF0
0000000000000000000003FFFFF0
0000000000000000000003FFFFF0
0000000000000000000003FFFFF0
0000000000000000000003FFFFF0
0000000000000000000003FFFFF0
0000000000000000000003FFFFF0
0000000000000000000003FFFFF0
0000000000000000000003FFFFF0
0000000000000000000003FFFFF0
0000000000000000000003FFFFF0
0000000000000000000003FFFFF0
0000000000000000000003FFFFF0
0000000000000000000003FFFFF0
0000000000000000000003FFFFF0
0000000000000000000003FFFFF0
0000000000000000000003FFFFF0
0000000000000000000003FFFFF0
0000000000000000000003FFFFF0
0000000000000000000003FFFFF0
0000000000000000000003FFFFF0
0000000000000000000003FFFFF0
0000000000000000000003FFFFF0
000003FFFFFFFFFFFFFFFFFFFFF0
000003FFFFFFFFFFFFFFFFFFFFF0
000003FFFFFFFFFFFFFFFFFFFFF0
000003FFFFFFFFFFFFFFFFFFFFF0
000003FFFFFFFFFFFFFFFFFFFFF0
000003FFFFFFFFFFFFFFFFFFFFE0
000003FFFFFFFFFFFFFFFFFFFFE0
000003FFFFFFFFFFFFFFFFFFFFC0
000003FFFFFFFFFFFFFFFFFFFF80
000003FFFFFFFFFFFFFFFFFFFF00
000003FFFFFFFFFFFFFFFFFFFE00
000003FFFFFFFFFFFFFFFFFFFC00
000003FFFFFFFFFFFFFFFFFFFE00
000003FFFFFFFFFFFFFFFFFFFF00
000003FFFFFFFFFFFFFFFFFFFF80
000003FFFFFFFFFFFFFFFFFFFFC0
000003FFFFFFFFFFFFFFFFFFFFE0
000003FFFFFFFFFFFFFFFFFFFFF0
000003FFFFFFFFFFFFFFFFFFFFF0
000003FFFFFFFFFFFFFFFFFFFFF0
000003FFFFFFFFFFFFFFFFFFFFF0
000003FFFFFFFFFFFFFFFFFFFFF0
0000000000000000000003FFFFF0
0000000000000000000003FFFFF0
0000000000000000000003FFFFF0
0000000000000000000003FFFFF0
0000000000000000000003FFFFF0
0000000000000000000003FFFFF0
0000000000000000000003FFFFF0
0000000000000000000003FFFFF0
0000000000000000000003FFFFF0
0000000000000000000003FFFFF0
0000000000000000000003FFFFF0
0000000000000000000003FFFFF0
0000000000000000000003FFFFF0
0000000000000000000003FFFFF0
0000000000000000000003FFFFF0
0000000000000000000003FFFFF0
0000000000000000000003FFFFF0
0000000000000000000003FFFFF0
0000000000000000000003FFFFF0
0000000000000000000003FFFFF0
0000000000000000000003FFFFF0
0000000000000000000003FFFFF0
0000000000000000000003FFFFF0
0000000000000000000003FFFFF0
0000000000000000000003FFFFF0
0000000000000000000003FFFFF0
0000000000000000000003FFFFF0
0000000000000000000003FFFFF0
0000000000000000000003FFFFF0
FFFFFFFFFFFFFFFFFFFFFFFFFFF0
FFFFFFFFFFFFFFFFFFFFFFFFFFF0
FFFFFFFFFFFFFFFFFFFFFFFFFFF0
FFFFFFFFFFFFFFFFFFFFFFFFFFF0
FFFFFFFFFFFFFFFFFFFFFFFFFFE0
FFFFFFFFFFFFFFFFFFFFFFFFFFE0
FFFFFFFFFFFFFFFFFFFFFFFFFFE0
FFFFFFFFFFFFFFFFFFFFFFFFFFE0
FFFFFFFFFFFFFFFFFFFFFFFFFFC0
FFFFFFFFFFFFFFFFFFFFFFFFFFC0
FFFFFFFFFFFFFFFFFFFFFFFFFF80
FFFFFFFFFFFFFFFFFFFFFFFFFF80
FFFFFFFFFFFFFFFFFFFFFFFFFF00
FFFFFFFFFFFFFFFFFFFFFFFFFE00
FFFFFFFFFFFFFFFFFFFFFFFFFC00
FFFFFFFFFFFFFFFFFFFFFFFFF800
FFFFFFFFFFFFFFFFFFFFFFFFF000
FFFFFFFFFFFFFFFFFFFFFFFFE000
FFFFFFFFFFFFFFFFFFFFFFFFC000
FFFFFFFFFFFFFFFFFFFFFFFF0000
FFFFFFFFFFFFFFFFFFFFFFFC0000
FFFFFFFFFFFFFFFFFFFFFFE00000
ENDCHAR
STARTCHAR 0034
ENCODING 52
SWIDTH 700 0
DWIDTH 126 0
BBX 108 125 1 0
BITMAP
0000000000000000000003FFFFF0
000000000FFFFFC0000003FFFFF0
000000000FFFFF80000003FFFFF0
000000001FFFFF80000003FFFFF0
000000001FFFFF80000003FFFFF0
000000003FFFFF00000003FFFFF0
000000003FFFFF00000003FFFFF0
000000007FFFFE00000003FFFFF0
000000007FFFFE00000003FFFFF0
00000000FFFFFC00000003FFFFF0
00000000FFFFFC00000003FFFFF0
00000001FFFFF800000003FFFFF0
00000001FFFFF800000003FFFFF0
00000003FFFFF800000003FFFFF0
00000003FFFFF000000003FFFFF0
00000007FFFFF000000003FFFFF0
00000007FFFFE000000003FFFFF0
0000000FFFFFE000000003FFFFF0
0000000FFFFFC000000003FFFFF0
0000001FFFFFC000000003FFFFF0
0000001FFFFFC000000003FFFFF0
0000003FFFFF8000000003FFFFF0
0000003FFFFF8000000003FFFFF0
0000007FFFFF0000000003FFFFF0
0000007FFFFF0000000003FFFFF0
000000FFFFFE0000000003FFFFF0
000000FFFFFE0000000003FFFFF0
000001FFFFFC0000000003FFFFF0
000001FFFFFC0000000003FFFFF0
000003FFFFFC0000000003FFFFF0
000003FFFFF80000000003FFFFF0
000007FFFFF80000000003FFFFF0
000007FFFFF00000000003FFFFF0
00000FFFFFF00000000003FFFFF0
00001FFFFFE00000000003FFFFF0
00001FFFFFE00000000003FFFFF0
00003FFFFFC00000000003FFFFF0
00003FFFFFC00000000003FFFFF0
00007FFFFFC00000000003FFFFF0
00007FFFFF800000000003FFFFF0
0000FFFFFF800000000003FFFFF0
0000FFFFFF000000000003FFFFF0
0001FFFFFF000000000003FFFFF0
0001FFFFFE000000000003FFFFF0
0003FFFFFE000000000003FFFFF0
0003FFFFFC000000000003FFFFF0
0007FFFFFC000000000003FFFFF0
0007FFFFFC000000000003FFFFF0
000FFFFFF8000000000003FFFFF0
000FFFFFF8000000000003FFFFF0
001FFFFFF0000000000003FFFFF0
001FFFFFFFFFFFFFFFFFFFFFFFF0
003FFFFFFFFFFFFFFFFFFFFFFFF0
003FFFFFFFFFFFFFFFFFFFFFFFF0
007FFFFFFFFFFFFFFFFFFFFFFFF0
007FFFFFFFFFFFFFFFFFFFFFFFF0
00FFFFFFFFFFFFFFFFFFFFFFFFF0
00FFFFFFFFFFFFFFFFFFFFFFFFF0
01FFFFFFFFFFFFFFFFFFFFFFFFF0
01FFFFFFFFFFFFFFFFFFFFFFFFF0
03FFFFFFFFFFFFFFFFFFFFFFFFF0
03FFFFFFFFFFFFFFFFFFFFFFFFF0
07FFFFFFFFFFFFFFFFFFFFFFFFF0
07FFFFFFFFFFFFFFFFFFFFFFFFF0
0FFFFFFFFFFFFFFFFFFFFFFFFFF0
0FFFFFFFFFFFFFFFFFFFFFFFFFF0
1FFFFFFFFFFFFFFFFFFFFFFFFFF0
1FFFFFFFFFFFFFFFFFFFFFFFFFF0
3FFFFFFFFFFFFFFFFFFFFFFFFFF0
3FFFFFFFFFFFFFFFFFFFFFFFFFF0
7FFFFFFFFFFFFFFFFFFFFFFFFFF0
7FFFFFFFFFFFFFFFFFFFFFFFFFF0
FFFFFFFFFFFFFFFFFFFFFFFFFFF0
0000000000000000000003FFFFF0
0000000000000000000003FFFFF0
0000000000000000000003FFFFF0
0000000000000000000003FFFFF0
0000000000000000000003FFFFF0
0000000000000000000003FFFFF0
0000000000000000000003FFFFF0
0000000000000000000003FFFFF0
0000000000000000000003FFFFF0
0000000000000000000003FFFFF0
0000000000000000000003FFFFF0
0000000000000000000003FFFFF0
0000000000000000000003FFFFF0
0000000000000000000003FFFFF0
0000000000000000000003FFFFF0
0000000000000000000003FFFFF0
0000000000000000000003FFFFF0
0000000000000000000003FFFFF0
0000000000000000000003FFFFF0
0000000000000000000003FFFFF0
0000000000000000000003FFFFF0
0000000000000000000003FFFFF0
0000000000000000000003FFFFF0
0000000000000000000003FFFFF0
0000000000000000000003FFFFF0
0000000000000000000003FFFFF0
0000000000000000000003FFFFF0
0000000000000000000003FFFFF0
0000000000000000000003FFFFF0
0000000000000000000003FFFFF0
0000000000000000000003FFFFF0
0000000000000000000003FFFFF0
0000000000000000000003FFFFF0
0000000000000000000003FFFFF0
0000000000000000000003FFFFF0
0000000000000000000003FFFFF0
0000000000000000000003FFFFF0
0000000000000000000003FFFFF0
0000000000000000000003FFFFF0
0000000000000000000003FFFFF0
0000000000000000000003FFFFF0
0000000000000000000003FFFFF0
0000000000000000000003FFFFF0
0000000000000000000003FFFFF0
0000000000000000000003FFFFF0
0000000000000000000003FFFFF0
0000000000000000000003FFFFF0
0000000000000000000003FFFFF0
0000000000000000000003FFFFF0
0000000000000000000003FFFFF0
0000000000000000000003FFFFF0
0000000000000000000003FFFFF0
ENDCHAR
STARTCHAR 0035
ENCODING 53
SWIDTH 700 0
DWIDTH 126 0
BBX 108 125 1 0
BITMAP
FFFFFFFFFFFFFFFFFFFFFFFFFFF0
FFFFFFFFFFFFFFFFFFFFFFFFFFF0
FFFFFFFFFFFFFFFFFFFFFFFFFFF0
FFFFFFFFFFFFFFFFFFFFFFFFFFF0
FFFFFFFFFFFFFFFFFFFFFFFFFFF0
FFFFFFFFFFFFFFFFFFFFFFFFFFF0
FFFFFFFFFFFFFFFFFFFFFFFFFFF0
FFFFFFFFFFFFFFFFFFFFFFFFFFF0
FFFFFFFFFFFFFFFFFFFFFFFFFFF0
FFFFFFFFFFFFFFFFFFFFFFFFFFF0
FFFFFFFFFFFFFFFFFFFFFFFFFFF0
FFFFFFFFFFFFFFFFFFFFFFFFFFF0
FFFFFFFFFFFFFFFFFFFFFFFFFFF0
FFFFFFFFFFFFFFFFFFFFFFFFFFF0
FFFFFFFFFFFFFFFFFFFFFFFFFFF0
FFFFFFFFFFFFFFFFFFFFFFFFFFF0
FFFFFFFFFFFFFFFFFFFFFFFFFFF0
FFFFFFFFFFFFFFFFFFFFFFFFFFF0
FFFFFFFFFFFFFFFFFFFFFFFFFFF0
FFFFFFFFFFFFFFFFFFFFFFFFFFF0
FFFFFFFFFFFFFFFFFFFFFFFFFFF0
FFFFFFFFFFFFFFFFFFFFFFFFFFF0
FFFFFC0000000000000003FFFFF0
FFFFFC0000000000000003FFFFF0
FFFFFC0000000000000003FFFFF0
FFFFFC0000000000000003FFFFF0
FFFFFC0000000000000003FFFFF0
FFFFFC0000000000000003FFFFF0
FFFFFC0000000000000003FFFFF0
FFFFFC0000000000000003FFFFF0
FFFFFC0000000000000003FFFFF0
FFFFFC0000000000000003FFFFF0
FFFFFC0000000000000003FFFFF0
FFFFFC0000000000000003FFFFF0
FFFFFC0000000000000003FFFFF0
FFFFFC0000000000000000000000
FFFFFC0000000000000000000000
FFFFFC0000000000000000000000
FFFFFC0000000000000000000000
FFFFFC0000000000000000000000
FFFFFC0000000000000000000000
FFFFFC0000000000000000000000
FFFFFC0000000000000000000000
FFFFFC0000000000000000000000
FFFFFC0000000000000000000000
FFFFFC0000000000000000000000
FFFFFC0000000000000000000000
FFFFFC0000000000000000000000
FFFFFC0000000000000000000000
FFFFFC0000000000000000000000
FFFFFC0000000000000000000000
FFFFFC0000000000000000000000
FFFFFFFFFFFFFFFFFFFFFFC00000
FFFFFFFFFFFFFFFFFFFFFFF80000
FFFFFFFFFFFFFFFFFFFFFFFF0000
FFFFFFFFFFFFFFFFFFFFFFFF8000
FFFFFFFFFFFFFFFFFFFFFFFFE000
7FFFFFFFFFFFFFFFFFFFFFFFF000
7FFFFFFFFFFFFFFFFFFFFFFFF800
7FFFFFFFFFFFFFFFFFFFFFFFFC00
3FFFFFFFFFFFFFFFFFFFFFFFFE00
3FFFFFFFFFFFFFFFFFFFFFFFFF00
1FFFFFFFFFFFFFFFFFFFFFFFFF80
1FFFFFFFFFFFFFFFFFFFFFFFFF80
0FFFFFFFFFFFFFFFFFFFFFFFFFC0
0FFFFFFFFFFFFFFFFFFFFFFFFFC0
07FFFFFFFFFFFFFFFFFFFFFFFFE0
03FFFFFFFFFFFFFFFFFFFFFFFFE0
01FFFFFFFFFFFFFFFFFFFFFFFFE0
00FFFFFFFFFFFFFFFFFFFFFFFFF0
003FFFFFFFFFFFFFFFFFFFFFFFF0
001FFFFFFFFFFFFFFFFFFFFFFFF0
0007FFFFFFFFFFFFFFFFFFFFFFF0
00007FFFFFFFFFFFFFFFFFFFFFF0
0000000000000000000003FFFFF0
0000000000000000000003FFFFF0
0000000000000000000003FFFFF0
0000000000000000000003FFFFF0
0000000000000000000003FFFFF0
0000000000000000000003FFFFF0
0000000000000000000003FFFFF0
0000000000000000000003FFFFF0
0000000000000000000003FFFFF0
0000000000000000000003FFFFF0
0000000000000000000003FFFFF0
0000000000000000000003FFFFF0
0000000000000000000003FFFFF0
0000000000000000000003FFFFF0
0000000000000000000003FFFFF0
0000000000000000000003FFFFF0
0000000000000000000003FFFFF0
0000000000000000000003FFFFF0
0000000000000000000003FFFFF0
0000000000000000000003FFFFF0
0000000000000000000003FFFFF0
0000000000000000000003FFFFF0
0000000000000000000003FFFFF0
0000000000000000000003FFFFF0
0000000000000000000003FFFFF0
0000000000000000000003FFFFF0
0000000000000000000003FFFFF0
0000000000000000000003FFFFF0
0000000000000000000003FFFFF0
FFFFFFFFFFFFFFFFFFFFFFFFFFF0
FFFFFFFFFFFFFFFFFFFFFFFFFFF0
FFFFFFFFFFFFFFFFFFFFFFFFFFF0
FFFFFFFFFFFFFFFFFFFFFFFFFFF0
FFFFFFFFFFFFFFFFFFFFFFFFFFE0
FFFFFFFFFFFFFFFFFFFFFFFFFFE0
FFFFFFFFFFFFFFFFFFFFFFFFFFE0
FFFFFFFFFFFFFFFFFFFFFFFFFFE0
FFFFFFFFFFFFFFFFFFFFFFFFFFC0
FFFFFFFFFFFFFFFFFFFFFFFFFFC0
FFFFFFFFFFFFFFFFFFFFFFFFFF80
FFFFFFFFFFFFFFFFFFFFFFFFFF00
FFFFFFFFFFFFFFFFFFFFFFFFFE00
FFFFFFFFFFFFFFFFFFFFFFFFFE00
FFFFFFFFFFFFFFFFFFFFFFFFFC00
FFFFFFFFFFFFFFFFFFFFFFFFF000
FFFFFFFFFFFFFFFFFFFFFFFFE000
FFFFFFFFFFFFFFFFFFFFFFFF8000
FFFFFFFFFFFFFFFFFFFFFFFF0000
FFFFFFFFFFFFFFFFFFFFFFF80000
FFFFFFFFFFFFFFFFFFFFFFE00000
FFFFFFFFFFFFFFFFFFFFFE000000
ENDCHAR
STARTCHAR 0036
ENCODING 54
SWIDTH 694 0
DWIDTH 125 0
BBX 108 125 1 0
BITMAP
00003FFFFFFFFFFFFFFFFFE00000
0003FFFFFFFFFFFFFFFFFFFC0000
000FFFFFFFFFFFFFFFFFFFFF0000
003FFFFFFFFFFFFFFFFFFFFFC000
007FFFFFFFFFFFFFFFFFFFFFE000
00FFFFFFFFFFFFFFFFFFFFFFF000
03FFFFFFFFFFFFFFFFFFFFFFF800
03FFFFFFFFFFFFFFFFFFFFFFFC00
07FFFFFFFFFFFFFFFFFFFFFFFE00
0FFFFFFFFFFFFFFFFFFFFFFFFF00
1FFFFFFFFFFFFFFFFFFFFFFFFF80
1FFFFFFFFFFFFFFFFFFFFFFFFF80
3FFFFFFFFFFFFFFFFFFFFFFFFFC0
3FFFFFFFFFFFFFFFFFFFFFFFFFC0
7FFFFFFFFFFFFFFFFFFFFFFFFFC0
7FFFFFFFFFFFFFFFFFFFFFFFFFE0
7FFFFFFFFFFFFFFFFFFFFFFFFFE0
FFFFFFFFFFFFFFFFFFFFFFFFFFE0
FFFFFFFFFFFFFFFFFFFFFFFFFFF0
FFFFFFFFFFFFFFFFFFFFFFFFFFF0
FFFFFFFFFFFFFFFFFFFFFFFFFFF0
FFFFFFFFFFFFFFFFFFFFFFFFFFF0
FFFFFC0000000000000003FFFFF0
FFFFFC0000000000000003FFFFF0
FFFFFC0000000000000003FFFFF0
FFFFFC0000000000000003FFFFF0
FFFFFC0000000000000003FFFFF0
FFFFFC0000000000000003FFFFF0
FFFFFC0000000000000003FFFFF0
FFFFFC0000000000000003FFFFF0
FFFFFC0000000000000003FFFFF0
FFFFFC0000000000000003FFFFF0
FFFFFC0000000000000003FFFFF0
FFFFFC0000000000000003FFFFF0
FFFFFC0000000000000003FFFFF0
FFFFFC0000000000000000000000
FFFFFC0000000000000000000000
FFFFFC0000000000000000000000
FFFFFC0000000000000000000000
FFFFFC0000000000000000000000
FFFFFC0000000000000000000000
FFFFFC0000000000000000000000
FFFFFC0000000000000000000000
FFFFFC0000000000000000000000
FFFFFC0000000000000000000000
FFFFFC0000000000000000000000
FFFFFC0000000000000000000000
FFFFFC0000000000000000000000
FFFFFC0000000000000000000000
FFFFFC0000000000000000000000
FFFFFC0000000000000000000000
FFFFFC0000000000000000000000
FFFFFFFFFFFFFFFFFFFFFFC00000
FFFFFFFFFFFFFFFFFFFFFFF80000
FFFFFFFFFFFFFFFFFFFFFFFF0000
FFFFFFFFFFFFFFFFFFFFFFFF8000
FFFFFFFFFFFFFFFFFFFFFFFFE000
FFFFFFFFFFFFFFFFFFFFFFFFF000
FFFFFFFFFFFFFFFFFFFFFFFFF800
FFFFFFFFFFFFFFFFFFFFFFFFFC00
FFFFFFFFFFFFFFFFFFFFFFFFFE00
FFFFFFFFFFFFFFFFFFFFFFFFFF00
FFFFFFFFFFFFFFFFFFFFFFFFFF80
FFFFFFFFFFFFFFFFFFFFFFFFFF80
FFFFFFFFFFFFFFFFFFFFFFFFFFC0
FFFFFFFFFFFFFFFFFFFFFFFFFFC0
FFFFFFFFFFFFFFFFFFFFFFFFFFE0
FFFFFFFFFFFFFFFFFFFFFFFFFFE0
FFFFFFFFFFFFFFFFFFFFFFFFFFE0
FFFFFFFFFFFFFFFFFFFFFFFFFFF0
FFFFFFFFFFFFFFFFFFFFFFFFFFF0
FFFFFFFFFFFFFFFFFFFFFFFFFFF0
FFFFFFFFFFFFFFFFFFFFFFFFFFF0
FFFFFFFFFFFFFFFFFFFFFFFFFFF0
FFFFFC0000000000000003FFFFF0
FFFFFC0000000000000003FFFFF0
FFFFFC0000000000000003FFFFF0
FFFFFC0000000000000003FFFFF0
FFFFFC0000000000000003FFFFF0
FFFFFC0000000000000003FFFFF0
FFFFFC0000000000000003FFFFF0
FFFFFC0000000000000003FFFFF0
FFFFFC0000000000000003FFFFF0
FFFFFC0000000000000003FFFFF0
FFFFFC0000000000000003FFFFF0
FFFFFC0000000000000003FFFFF0
FFFFFC0000000000000003FFFFF0
FFFFFC0000000000000003FFFFF0
FFFFFC0000000000000003FFFFF0
FFFFFC0000000000000003FFFFF0
FFFFFC0000000000000003FFFFF0
FFFFFC0000000000000003FFFFF0
FFFFFC0000000000000003FFFFF0
FFFFFC0000000000000003FFFFF0
FFFFFC0000000000000003FFFFF0
FFFFFC0000000000000003FFFFF0
FFFFFC0000000000000003FFFFF0
FFFFFC0000000000000003FFFFF0
FFFFFC0000000000000003FFFFF0
FFFFFC0000000000000003FFFFF0
FFFFFC0000000000000003FFFFF0
FFFFFC0000000000000003FFFFF0
FFFFFC0000000000000003FFFFF0
FFFFFFFFFFFFFFFFFFFFFFFFFFF0
FFFFFFFFFFFFFFFFFFFFFFFFFFF0
FFFFFFFFFFFFFFFFFFFFFFFFFFF0
FFFFFFFFFFFFFFFFFFFFFFFFFFF0
7FFFFFFFFFFFFFFFFFFFFFFFFFE0
7FFFFFFFFFFFFFFFFFFFFFFFFFE0
7FFFFFFFFFFFFFFFFFFFFFFFFFE0
7FFFFFFFFFFFFFFFFFFFFFFFFFE0
3FFFFFFFFFFFFFFFFFFFFFFFFFC0
3FFFFFFFFFFFFFFFFFFFFFFFFFC0
1FFFFFFFFFFFFFFFFFFFFFFFFF80
1FFFFFFFFFFFFFFFFFFFFFFFFF00
0FFFFFFFFFFFFFFFFFFFFFFFFE00
07FFFFFFFFFFFFFFFFFFFFFFFE00
03FFFFFFFFFFFFFFFFFFFFFFFC00
01FFFFFFFFFFFFFFFFFFFFFFF000
00FFFFFFFFFFFFFFFFFFFFFFE000
007FFFFFFFFFFFFFFFFFFFFF8000
003FFFFFFFFFFFFFFFFFFFFF0000
000FFFFFFFFFFFFFFFFFFFF80000
0003FFFFFFFFFFFFFFFFFFE00000
00003FFFFFFFFFFFFFFFFE000000
ENDCHAR
STARTCHAR 0037
ENCODING 55
SWIDTH 633 0
DWIDTH 114 0
BBX 109 125 1 0
BITMAP
7FFFFFFFFFFFFFFFFFFFFFFFFFF8
7FFFFFFFFFFFFFFFFFFFFFFFFFF0
7FFFFFFFFFFFFFFFFFFFFFFFFFE0
7FFFFFFFFFFFFFFFFFFFFFFFFFE0
7FFFFFFFFFFFFFFFFFFFFFFFFFC0
7FFFFFFFFFFFFFFFFFFFFFFFFF80
7FFFFFFFFFFFFFFFFFFFFFFFFF00
7FFFFFFFFFFFFFFFFFFFFFFFFF00
7FFFFFFFFFFFFFFFFFFFFFFFFE00
7FFFFFFFFFFFFFFFFFFFFFFFFC00
7FFFFFFFFFFFFFFFFFFFFFFFFC00
7FFFFFFFFFFFFFFFFFFFFFFFF800
7FFFFFFFFFFFFFFFFFFFFFFFF000
7FFFFFFFFFFFFFFFFFFFFFFFF000
7FFFFFFFFFFFFFFFFFFFFFFFE000
7FFFFFFFFFFFFFFFFFFFFFFFC000
7FFFFFFFFFFFFFFFFFFFFFFFC000
7FFFFFFFFFFFFFFFFFFFFFFF8000
7FFFFFFFFFFFFFFFFFFFFFFF0000
7FFFFFFFFFFFFFFFFFFFFFFE0000
7FFFFFFFFFFFFFFFFFFFFFFE0000
7FFFFFFFFFFFFFFFFFFFFFFC0000
000000000000000001FFFFF80000
000000000000000001FFFFF80000
000000000000000003FFFFF00000
000000000000000007FFFFE00000
000000000000000007FFFFE00000
00000000000000000FFFFFC00000
00000000000000001FFFFF800000
00000000000000003FFFFF000000
00000000000000003FFFFF000000
00000000000000007FFFFE000000
0000000000000000FFFFFC000000
0000000000000000FFFFFC000000
0000000000000001FFFFF8000000
0000000000000003FFFFF0000000
0000000000000003FFFFF0000000
0000000000000007FFFFE0000000
000000000000000FFFFFC0000000
000000000000000FFFFF80000000
000000000000001FFFFF80000000
000000000000003FFFFF00000000
000000000000007FFFFE00000000
000000000000007FFFFE00000000
00000000000000FFFFFC00000000
00000000000001FFFFF800000000
00000000000001FFFFF800000000
00000000000003FFFFF000000000
00000000000007FFFFE000000000
00000000000007FFFFE000000000
0000000000000FFFFFC000000000
0000000000001FFFFF8000000000
0000000000003FFFFF0000000000
0000000000003FFFFF0000000000
0000000000007FFFFE0000000000
000000000000FFFFFC0000000000
000000000000FFFFFC0000000000
000000000001FFFFF80000000000
000000000003FFFFF00000000000
000000000003FFFFF00000000000
000000000007FFFFE00000000000
00000000000FFFFFC00000000000
00000000000FFFFF800000000000
00000000001FFFFF800000000000
00000000003FFFFF000000000000
00000000007FFFFE000000000000
00000000007FFFFE000000000000
0000000000FFFFFC000000000000
0000000001FFFFF8000000000000
0000000001FFFFF8000000000000
0000000003FFFFF0000000000000
0000000007FFFFE0000000000000
0000000007FFFFE0000000000000
000000000FFFFFC0000000000000
000000001FFFFF80000000000000
000000003FFFFF00000000000000
000000003FFFFF00000000000000
000000007FFFFE00000000000000
00000000FFFFFC00000000000000
00000000FFFFFC00000000000000
00000001FFFFF800000000000000
00000003FFFFF000000000000000
00000003FFFFF000000000000000
00000007FFFFE000000000000000
0000000FFFFFC000000000000000
0000001FFFFF8000000000000000
0000001FFFFF8000000000000000
0000003FFFFF0000000000000000
0000007FFFFE0000000000000000
0000007FFFFE0000000000000000
000000FFFFFC0000000000000000
000001FFFFF80000000000000000
000001FFFFF80000000000000000
000003FFFFF00000000000000000
000007FFFFE00000000000000000
000007FFFFE00000000000000000
00000FFFFFC00000000000000000
00001FFFFF800000000000000000
00003FFFFF000000000000000000
00003FFFFF000000000000000000
00007FFFFE000000000000000000
0000FFFFFC000000000000000000
0000FFFFFC000000000000000000
0001FFFFF8000000000000000000
0003FFFFF0000000000000000000
0003FFFFF0000000000000000000
0007FFFFE0000000000000000000
000FFFFFC0000000000000000000
001FFFFF80000000000000000000
001FFFFF80000000000000000000
003FFFFF00000000000000000000
007FFFFE00000000000000000000
007FFFFE00000000000000000000
00FFFFFC00000000000000000000
01FFFFF800000000000000000000
01FFFFF800000000000000000000
03FFFFF000000000000000000000
07FFFFE000000000000000000000
07FFFFC000000000000000000000
0FFFFFC000000000000000000000
1FFFFF8000000000000000000000
3FFFFF0000000000000000000000
3FFFFF0000000000000000000000
7FFFFE0000000000000000000000
FFFFFC0000000000000000000000
ENDCHAR
STARTCHAR 0038
ENCODING 56
SWIDTH 700 0
DWIDTH 126 0
BBX 108 125 1 0
BITMAP
00007FFFFFFFFFFFFFFFFFC00000
0003FFFFFFFFFFFFFFFFFFFC0000
000FFFFFFFFFFFFFFFFFFFFF0000
003FFFFFFFFFFFFFFFFFFFFFC000
007FFFFFFFFFFFFFFFFFFFFFE000
00FFFFFFFFFFFFFFFFFFFFFFF000
03FFFFFFFFFFFFFFFFFFFFFFF800
03FFFFFFFFFFFFFFFFFFFFFFFC00
07FFFFFFFFFFFFFFFFFFFFFFFE00
0FFFFFFFFFFFFFFFFFFFFFFFFF00
1FFFFFFFFFFFFFFFFFFFFFFFFF80
1FFFFFFFFFFFFFFFFFFFFFFFFF80
3FFFFFFFFFFFFFFFFFFFFFFFFFC0
3FFFFFFFFFFFFFFFFFFFFFFFFFC0
7FFFFFFFFFFFFFFFFFFFFFFFFFE0
7FFFFFFFFFFFFFFFFFFFFFFFFFE0
7FFFFFFFFFFFFFFFFFFFFFFFFFE0
FFFFFFFFFFFFFFFFFFFFFFFFFFE0
FFFFFFFFFFFFFFFFFFFFFFFFFFF0
FFFFFFFFFFFFFFFFFFFFFFFFFFF0
FFFFFFFFFFFFFFFFFFFFFFFFFFF0
FFFFFFFFFFFFFFFFFFFFFFFFFFF0
FFFFFC0000000000000003FFFFF0
FFFFFC0000000000000003FFFFF0
FFFFFC0000000000000003FFFFF0
FFFFFC0000000000000003FFFFF0
FFFFFC0000000000000003FFFFF0
FFFFFC0000000000000003FFFFF0
FFFFFC0000000000000003FFFFF0
FFFFFC0000000000000003FFFFF0
FFFFFC0000000000000003FFFFF0
FFFFFC0000000000000003FFFFF0
FFFFFC0000000000000003FFFFF0
FFFFFC0000000000000003FFFFF0
FFFFFC0000000000000003FFFFF0
FFFFFC0000000000000003FFFFF0
FFFFFC0000000000000003FFFFF0
FFFFFC0000000000000003FFFFF0
FFFFFC0000000000000003FFFFF0
FFFFFC0000000000000003FFFFF0
FFFFFC0000000000000003FFFFF0
FFFFFC0000000000000003FFFFF0
FFFFFC0000000000000003FFFFF0
FFFFFC0000000000000003FFFFF0
FFFFFC0000000000000003FFFFF0
FFFFFC0000000000000003FFFFF0
FFFFFC0000000000000003FFFFF0
FFFFFC0000000000000003FFFFF0
FFFFFC0000000000000003FFFFF0
FFFFFC0000000000000003FFFFF0
FFFFFC0000000000000003FFFFF0
FFFFFC0000000000000003FFFFF0
FFFFFFFFFFFFFFFFFFFFFFFFFFF0
FFFFFFFFFFFFFFFFFFFFFFFFFFF0
FFFFFFFFFFFFFFFFFFFFFFFFFFF0
FFFFFFFFFFFFFFFFFFFFFFFFFFF0
FFFFFFFFFFFFFFFFFFFFFFFFFFF0
7FFFFFFFFFFFFFFFFFFFFFFFFFE0
7FFFFFFFFFFFFFFFFFFFFFFFFFE0
3FFFFFFFFFFFFFFFFFFFFFFFFFC0
1FFFFFFFFFFFFFFFFFFFFFFFFF80
0FFFFFFFFFFFFFFFFFFFFFFFFF00
07FFFFFFFFFFFFFFFFFFFFFFFE00
03FFFFFFFFFFFFFFFFFFFFFFFE00
07FFFFFFFFFFFFFFFFFFFFFFFE00
0FFFFFFFFFFFFFFFFFFFFFFFFF00
1FFFFFFFFFFFFFFFFFFFFFFFFF80
3FFFFFFFFFFFFFFFFFFFFFFFFFC0
7FFFFFFFFFFFFFFFFFFFFFFFFFE0
FFFFFFFFFFFFFFFFFFFFFFFFFFF0
FFFFFFFFFFFFFFFFFFFFFFFFFFF0
FFFFFFFFFFFFFFFFFFFFFFFFFFF0
FFFFFFFFFFFFFFFFFFFFFFFFFFF0
FFFFFFFFFFFFFFFFFFFFFFFFFFF0
FFFFFC0000000000000003FFFFF0
FFFFFC0000000000000003FFFFF0
FFFFFC0000000000000003FFFFF0
FFFFFC0000000000000003FFFFF0
FFFFFC0000000000000003FFFFF0
FFFFFC0000000000000003FFFFF0
FFFFFC0000000000000003FFFFF0
FFFFFC0000000000000003FFFFF0
FFFFFC0000000000000003FFFFF0
FFFFFC0000000000000003FFFFF0
FFFFFC0000000000000003FFFFF0
FFFFFC0000000000000003FFFFF0
FFFFFC0000000000000003FFFFF0
FFFFFC0000000000000003FFFFF0
FFFFFC0000000000000003FFFFF0
FFFFFC0000000000000003FFFFF0
FFFFFC0000000000000003FFFFF0
FFFFFC0000000000000003FFFFF0
FFFFFC0000000000000003FFFFF0
FFFFFC0000000000000003FFFFF0
FFFFFC0000000000000003FFFFF0
FFFFFC0000000000000003FFFFF0
FFFFFC0000000000000003FFFFF0
FFFFFC0000000000000003FFFFF0
FFFFFC0000000000000003FFFFF0
FFFFFC0000000000000003FFFFF0
FFFFFC0000000000000003FFFFF0
FFFFFC0000000000000003FFFFF0
FFFFFC0000000000000003FFFFF0
FFFFFFFFFFFFFFFFFFFFFFFFFFF0
FFFFFFFFFFFFFFFFFFFFFFFFFFF0
FFFFFFFFFFFFFFFFFFFFFFFFFFF0
FFFFFFFFFFFFFFFFFFFFFFFFFFF0
FFFFFFFFFFFFFFFFFFFFFFFFFFE0
7FFFFFFFFFFFFFFFFFFFFFFFFFE0
7FFFFFFFFFFFFFFFFFFFFFFFFFE0
7FFFFFFFFFFFFFFFFFFFFFFFFFE0
3FFFFFFFFFFFFFFFFFFFFFFFFFC0
3FFFFFFFFFFFFFFFFFFFFFFFFFC0
1FFFFFFFFFFFFFFFFFFFFFFFFF80
1FFFFFFFFFFFFFFFFFFFFFFFFF80
0FFFFFFFFFFFFFFFFFFFFFFFFF00
07FFFFFFFFFFFFFFFFFFFFFFFE00
03FFFFFFFFFFFFFFFFFFFFFFFC00
01FFFFFFFFFFFFFFFFFFFFFFF800
00FFFFFFFFFFFFFFFFFFFFFFF000
007FFFFFFFFFFFFFFFFFFFFFE000
003FFFFFFFFFFFFFFFFFFFFFC000
000FFFFFFFFFFFFFFFFFFFFF0000
0003FFFFFFFFFFFFFFFFFFFC0000
00007FFFFFFFFFFFFFFFFFE00000
ENDCHAR
STARTCHAR 0039
ENCODING 57
SWIDTH 700 0
DWIDTH 126 0
BBX 108 125 1 0
BITMAP
00000FFFFFFFFFFFFFFFFFC00000
0000FFFFFFFFFFFFFFFFFFFC0000
0003FFFFFFFFFFFFFFFFFFFF0000
000FFFFFFFFFFFFFFFFFFFFFC000
003FFFFFFFFFFFFFFFFFFFFFE000
007FFFFFFFFFFFFFFFFFFFFFF000
00FFFFFFFFFFFFFFFFFFFFFFF800
01FFFFFFFFFFFFFFFFFFFFFFFC00
03FFFFFFFFFFFFFFFFFFFFFFFE00
07FFFFFFFFFFFFFFFFFFFFFFFF00
0FFFFFFFFFFFFFFFFFFFFFFFFF80
1FFFFFFFFFFFFFFFFFFFFFFFFF80
1FFFFFFFFFFFFFFFFFFFFFFFFFC0
3FFFFFFFFFFFFFFFFFFFFFFFFFC0
3FFFFFFFFFFFFFFFFFFFFFFFFFE0
7FFFFFFFFFFFFFFFFFFFFFFFFFE0
7FFFFFFFFFFFFFFFFFFFFFFFFFE0
7FFFFFFFFFFFFFFFFFFFFFFFFFE0
FFFFFFFFFFFFFFFFFFFFFFFFFFF0
FFFFFFFFFFFFFFFFFFFFFFFFFFF0
FFFFFFFFFFFFFFFFFFFFFFFFFFF0
FFFFFFFFFFFFFFFFFFFFFFFFFFF0
FFFFFC0000000000000003FFFFF0
FFFFFC0000000000000003FFFFF0
FFFFFC0000000000000003FFFFF0
FFFFFC0000000000000003FFFFF0
FFFFFC0000000000000003FFFFF0
FFFFFC0000000000000003FFFFF0
FFFFFC0000000000000003FFFFF0
FFFFFC0000000000000003FFFFF0
FFFFFC0000000000000003FFFFF0
FFFFFC0000000000000003FFFFF0
FFFFFC0000000000000003FFFFF0
FFFFFC0000000000000003FFFFF0
FFFFFC0000000000000003FFFFF0
FFFFFC0000000000000003FFFFF0
FFFFFC0000000000000003FFFFF0
FFFFFC0000000000000003FFFFF0
FFFFFC0000000000000003FFFFF0
FFFFFC0000000000000003FFFFF0
FFFFFC0000000000000003FFFFF0
FFFFFC0000000000000003FFFFF0
FFFFFC0000000000000003FFFFF0
FFFFFC0000000000000003FFFFF0
FFFFFC0000000000000003FFFFF0
FFFFFC0000000000000003FFFFF0
FFFFFC0000000000000003FFFFF0
FFFFFC0000000000000003FFFFF0
FFFFFC0000000000000003FFFFF0
FFFFFC0000000000000003FFFFF0
FFFFFC0000000000000003FFFFF0
FFFFFC0000000000000003FFFFF0
FFFFFFFFFFFFFFFFFFFFFFFFFFF0
FFFFFFFFFFFFFFFFFFFFFFFFFFF0
FFFFFFFFFFFFFFFFFFFFFFFFFFF0
FFFFFFFFFFFFFFFFFFFFFFFFFFF0
FFFFFFFFFFFFFFFFFFFFFFFFFFF0
7FFFFFFFFFFFFFFFFFFFFFFFFFF0
7FFFFFFFFFFFFFFFFFFFFFFFFFF0
7FFFFFFFFFFFFFFFFFFFFFFFFFF0
3FFFFFFFFFFFFFFFFFFFFFFFFFF0
3FFFFFFFFFFFFFFFFFFFFFFFFFF0
1FFFFFFFFFFFFFFFFFFFFFFFFFF0
1FFFFFFFFFFFFFFFFFFFFFFFFFF0
0FFFFFFFFFFFFFFFFFFFFFFFFFF0
07FFFFFFFFFFFFFFFFFFFFFFFFF0
03FFFFFFFFFFFFFFFFFFFFFFFFF0
01FFFFFFFFFFFFFFFFFFFFFFFFF0
00FFFFFFFFFFFFFFFFFFFFFFFFF0
007FFFFFFFFFFFFFFFFFFFFFFFF0
001FFFFFFFFFFFFFFFFFFFFFFFF0
000FFFFFFFFFFFFFFFFFFFFFFFF0
0003FFFFFFFFFFFFFFFFFFFFFFF0
00003FFFFFFFFFFFFFFFFFFFFFF0
0000000000000000000003FFFFF0
0000000000000000000003FFFFF0
0000000000000000000003FFFFF0
0000000000000000000003FFFFF0
0000000000000000000003FFFFF0
0000000000000000000003FFFFF0
0000000000000000000003FFFFF0
0000000000000000000003FFFFF0
0000000000000000000003FFFFF0
0000000000000000000003FFFFF0
0000000000000000000003FFFFF0
0000000000000000000003FFFFF0
0000000000000000000003FFFFF0
0000000000000000000003FFFFF0
0000000000000000000003FFFFF0
0000000000000000000003FFFFF0
FFFFFC0000000000000003FFFFF0
FFFFFC0000000000000003FFFFF0
FFFFFC0000000000000003FFFFF0
FFFFFC0000000000000003FFFFF0
FFFFFC0000000000000003FFFFF0
FFFFFC0000000000000003FFFFF0
FFFFFC0000000000000003FFFFF0
FFFFFC0000000000000003FFFFF0
FFFFFC0000000000000003FFFFF0
FFFFFC0000000000000003FFFFF0
FFFFFC0000000000000003FFFFF0
FFFFFC0000000000000003FFFFF0
FFFFFC0000000000000003FFFFF0
FFFFFFFFFFFFFFFFFFFFFFFFFFF0
FFFFFFFFFFFFFFFFFFFFFFFFFFF0
FFFFFFFFFFFFFFFFFFFFFFFFFFF0
FFFFFFFFFFFFFFFFFFFFFFFFFFF0
7FFFFFFFFFFFFFFFFFFFFFFFFFE0
7FFFFFFFFFFFFFFFFFFFFFFFFFE0
7FFFFFFFFFFFFFFFFFFFFFFFFFE0
7FFFFFFFFFFFFFFFFFFFFFFFFFE0
3FFFFFFFFFFFFFFFFFFFFFFFFFC0
3FFFFFFFFFFFFFFFFFFFFFFFFFC0
1FFFFFFFFFFFFFFFFFFFFFFFFF80
1FFFFFFFFFFFFFFFFFFFFFFFFF80
0FFFFFFFFFFFFFFFFFFFFFFFFF00
07FFFFFFFFFFFFFFFFFFFFFFFE00
03FFFFFFFFFFFFFFFFFFFFFFFC00
01FFFFFFFFFFFFFFFFFFFFFFF800
00FFFFFFFFFFFFFFFFFFFFFFF000
007FFFFFFFFFFFFFFFFFFFFFE000
003FFFFFFFFFFFFFFFFFFFFFC000
000FFFFFFFFFFFFFFFFFFFFF0000
0003FFFFFFFFFFFFFFFFFFFC0000
00007FFFFFFFFFFFFFFFFFE00000
ENDCHAR
STARTCHAR 003A
ENCODING 58
SWIDTH 211 0
DWIDTH 38 0
BBX 22 66 0 0
BITMAP
01FE00
0FFF80
1FFFE0
3FFFF0
7FFFF0
7FFFF8
FFFFF8
FFFFFC
FFFFFC
FFFFFC
FFFFFC
FFFFFC
FFFFFC
7FFFFC
7FFFF8
7FFFF8
3FFFF0
1FFFE0
0FFFC0
07FF80
00FE00
000000
000000
000000
000000
000000
000000
000000
000000
000000
000000
000000
000000
000000
000000
000000
000000
000000
000000
000000
000000
000000
000000
000000
000000
01FE00
0FFF80
1FFFE0
3FFFF0
7FFFF0
7FFFF8
FFFFF8
FFFFFC
FFFFFC
FFFFFC
FFFFFC
FFFFFC
FFFFFC
7FFFFC
7FFFF8
7FFFF8
3FFFF0
1FFFE0
0FFFC0
07FF80
00FE00
ENDCHAR
STARTCHAR 003B
ENCODING 59
SWIDTH 205 0
DWIDTH 37 0
BBX 22 78 0 -12
BITMAP
01FE00
0FFF80
1FFFE0
3FFFF0
7FFFF0
7FFFF8
FFFFF8
FFFFFC
FFFFFC
FFFFFC
FFFFFC
FFFFFC
FFFFFC
7FFFFC
7FFFF8
7FFFF8
3FFFF0
1FFFE0
0FFFC0
07FF80
00FE00
000000
000000
000000
000000
000000
000000
000000
000000
000000
000000
000000
000000
000000
000000
000000
000000
000000
000000
000000
000000
000000
000000
000000
000000
01FC00
0FFF80
1FFFE0
3FFFF0
7FFFF0
7FFFF8
FFFFF8
FFFFFC
FFFFFC
FFFFFC
FFFFFC
FFFFFC
FFFFFC
FFFFFC
FFFFFC
FFFFFC
FFFFFC
FFFFFC
FFFFFC
FFFFFC
FFFFFC
FFFFFC
FFFFF8
FFFFE0
FFFF80
FFFE00
FFF800
FFE000
FF8000
FE0000
F80000
E00000
800000
ENDCHAR
STARTCHAR 003C
ENCODING 60
SWIDTH 494 0
DWIDTH 89 0
BBX 73 58 1 25
BITMAP
00000000000000000380
00000000000000003F80
0000000000000003FF80
000000000000007FFF80
00000000000007FFFF80
0000000000007FFFFF80
00000000000FFFFFFF80
0000000000FFFFFFFF80
000000000FFFFFFFFF80
00000001FFFFFFFFFF80
0000001FFFFFFFFFFF80
000001FFFFFFFFFFFF80
00003FFFFFFFFFFFFF80
0003FFFFFFFFFFFFFF80
003FFFFFFFFFFFFFFF80
07FFFFFFFFFFFFFFFF80
7FFFFFFFFFFFFFFFFF80
FFFFFFFFFFFFFFFFFF80
FFFFFFFFFFFFFFFFFF80
FFFFFFFFFFFFFFFFFF80
FFFFFFFFFFFFFFFFFF80
FFFFFFFFFFFFFFFFF000
FFFFFFFFFFFFFFFF0000
FFFFFFFFFFFFFFF00000
FFFFFFFFFFFFFE000000
FFFFFFFFFFFFE0000000
FFFFFFFFFFFE00000000
FFFFFFFFFFC000000000
FFFFFFFFFF8000000000
FFFFFFFFFFF000000000
FFFFFFFFFFFF00000000
FFFFFFFFFFFFF0000000
FFFFFFFFFFFFFE000000
FFFFFFFFFFFFFFE00000
FFFFFFFFFFFFFFFE0000
FFFFFFFFFFFFFFFFC000
FFFFFFFFFFFFFFFFFC00
FFFFFFFFFFFFFFFFFF80
3FFFFFFFFFFFFFFFFF80
07FFFFFFFFFFFFFFFF80
007FFFFFFFFFFFFFFF80
0007FFFFFFFFFFFFFF80
0000FFFFFFFFFFFFFF80
00000FFFFFFFFFFFFF80
000001FFFFFFFFFFFF80
0000001FFFFFFFFFFF80
00000001FFFFFFFFFF80
000000003FFFFFFFFF80
0000000003FFFFFFFF80
00000000003FFFFFFF80
000000000007FFFFFF80
0000000000007FFFFF80
00000000000007FFFF80
00000000000000FFFF80
000000000000000FFF80
0000000000000000FF80
00000000000000001F80
00000000000000000180
ENDCHAR
STARTCHAR 003D
ENCODING 61
SWIDTH 483 0
DWIDTH 87 0
BBX 72 58 1 25
BITMAP
FFFFFFFFFFFFFFFFFF
FFFFFFFFFFFFFFFFFF
FFFFFFFFFFFFFFFFFF
FFFFFFFFFFFFFFFFFF
FFFFFFFFFFFFFFFFFF
FFFFFFFFFFFFFFFFFF
FFFFFFFFFFFFFFFFFF
FFFFFFFFFFFFFFFFFF
FFFFFFFFFFFFFFFFFF
FFFFFFFFFFFFFFFFFF
FFFFFFFFFFFFFFFFFF
FFFFFFFFFFFFFFFFFF
FFFFFFFFFFFFFFFFFF
FFFFFFFFFFFFFFFFFF
FFFFFFFFFFFFFFFFFF
FFFFFFFFFFFFFFFFFF
FFFFFFFFFFFFFFFFFF
FFFFFFFFFFFFFFFFFF
FFFFFFFFFFFFFFFFFF
FFFFFFFFFFFFFFFFFF
FFFFFFFFFFFFFFFFFF
FFFFFFFFFFFFFFFFFF
000000000000000000
000000000000000000
000000000000000000
000000000000000000
000000000000000000
000000000000000000
000000000000000000
000000000000000000
000000000000000000
000000000000000000
000000000000000000
000000000000000000
000000000000000000
000000000000000000
FFFFFFFFFFFFFFFFFF
FFFFFFFFFFFFFFFFFF
FFFFFFFFFFFFFFFFFF
FFFFFFFFFFFFFFFFFF
FFFFFFFFFFFFFFFFFF
FFFFFFFFFFFFFFFFFF
FFFFFFFFFFFFFFFFFF
FFFFFFFFFFFFFFFFFF
FFFFFFFFFFFFFFFFFF
FFFFFFFFFFFFFFFFFF
FFFFFFFFFFFFFFFFFF
FFFFFFFFFFFFFFFFFF
FFFFFFFFFFFFFFFFFF
FFFFFFFFFFFFFFFFFF
FFFFFFFFFFFFFFFFFF
FFFFFFFFFFFFFFFFFF
FFFFFFFFFFFFFFFFFF
FFFFFFFFFFFFFFFFFF
FFFFFFFFFFFFFFFFFF
FFFFFFFFFFFFFFFFFF
FFFFFFFFFFFFFFFFFF
FFFFFFFFFFFFFFFFFF
ENDCHAR
STARTCHAR 003E
ENCODING 62
SWIDTH 477 0
DWIDTH 86 0
BBX 72 58 1 25
BITMAP
C00000000000000000
FC0000000000000000
FFC000000000000000
FFFC00000000000000
FFFFC0000000000000
FFFFFC000000000000
FFFFFFC00000000000
FFFFFFFC0000000000
FFFFFFFFC000000000
FFFFFFFFFC00000000
FFFFFFFFFFC0000000
FFFFFFFFFFFC000000
FFFFFFFFFFFFC00000
FFFFFFFFFFFFFC0000
FFFFFFFFFFFFFFC000
FFFFFFFFFFFFFFFC00
FFFFFFFFFFFFFFFFC0
FFFFFFFFFFFFFFFFFE
FFFFFFFFFFFFFFFFFF
FFFFFFFFFFFFFFFFFF
FFFFFFFFFFFFFFFFFF
0FFFFFFFFFFFFFFFFF
00FFFFFFFFFFFFFFFF
000FFFFFFFFFFFFFFF
0000FFFFFFFFFFFFFF
00000FFFFFFFFFFFFF
000000FFFFFFFFFFFF
0000000FFFFFFFFFFF
00000000FFFFFFFFFF
00000001FFFFFFFFFF
0000001FFFFFFFFFFF
000001FFFFFFFFFFFF
00001FFFFFFFFFFFFF
0001FFFFFFFFFFFFFF
001FFFFFFFFFFFFFFF
01FFFFFFFFFFFFFFFF
1FFFFFFFFFFFFFFFFF
FFFFFFFFFFFFFFFFFF
FFFFFFFFFFFFFFFFFF
FFFFFFFFFFFFFFFFFF
FFFFFFFFFFFFFFFFF0
FFFFFFFFFFFFFFFF00
FFFFFFFFFFFFFFF000
FFFFFFFFFFFFFF0000
FFFFFFFFFFFFF80000
FFFFFFFFFFFF800000
FFFFFFFFFFF8000000
FFFFFFFFFF80000000
FFFFFFFFF800000000
FFFFFFFF8000000000
FFFFFFF80000000000
FFFFFF800000000000
FFFFF8000000000000
FFFFC0000000000000
FFFC00000000000000
FFC000000000000000
FC0000000000000000
C00000000000000000
ENDCHAR
STARTCHAR 003F
ENCODING 63
SWIDTH 661 0
DWIDTH 119 0
BBX 108 125 1 0
BITMAP
FFFFFFFFFFFFFFFFFFFFFFE00000
FFFFFFFFFFFFFFFFFFFFFFFC0000
FFFFFFFFFFFFFFFFFFFFFFFF0000
FFFFFFFFFFFFFFFFFFFFFFFFC000
FFFFFFFFFFFFFFFFFFFFFFFFE000
FFFFFFFFFFFFFFFFFFFFFFFFF000
FFFFFFFFFFFFFFFFFFFFFFFFFC00
FFFFFFFFFFFFFFFFFFFFFFFFFC00
FFFFFFFFFFFFFFFFFFFFFFFFFE00
FFFFFFFFFFFFFFFFFFFFFFFFFF00
FFFFFFFFFFFFFFFFFFFFFFFFFF80
FFFFFFFFFFFFFFFFFFFFFFFFFF80
FFFFFFFFFFFFFFFFFFFFFFFFFFC0
FFFFFFFFFFFFFFFFFFFFFFFFFFC0
FFFFFFFFFFFFFFFFFFFFFFFFFFE0
FFFFFFFFFFFFFFFFFFFFFFFFFFE0
FFFFFFFFFFFFFFFFFFFFFFFFFFE0
FFFFFFFFFFFFFFFFFFFFFFFFFFE0
FFFFFFFFFFFFFFFFFFFFFFFFFFF0
FFFFFFFFFFFFFFFFFFFFFFFFFFF0
FFFFFFFFFFFFFFFFFFFFFFFFFFF0
FFFFFFFFFFFFFFFFFFFFFFFFFFF0
0000000000000000000003FFFFF0
0000000000000000000003FFFFF0
0000000000000000000003FFFFF0
0000000000000000000003FFFFF0
0000000000000000000003FFFFF0
0000000000000000000003FFFFF0
0000000000000000000003FFFFF0
0000000000000000000003FFFFF0
0000000000000000000003FFFFF0
0000000000000000000003FFFFF0
0000000000000000000003FFFFF0
0000000000000000000003FFFFF0
0000000000000000000003FFFFF0
0000000000000000000003FFFFF0
0000000000000000000003FFFFF0
0000000000000000000003FFFFF0
0000000000000000000003FFFFF0
0000000000000000000003FFFFF0
0000000000000000000003FFFFF0
0000000000000000000003FFFFF0
0000000000000000000003FFFFF0
0000000000000000000003FFFFF0
0000000000000000000003FFFFF0
0000000000000000000003FFFFF0
0000000000000000000003FFFFF0
0000000000000000000003FFFFF0
0000000000000000000003FFFFF0
0000000000000000000003FFFFF0
0000000000000000000003FFFFF0
0000000000000000000003FFFFF0
0000000000000000000003FFFFF0
00007FFFFFFFFFFFFFFFFFFFFFF0
0003FFFFFFFFFFFFFFFFFFFFFFF0
000FFFFFFFFFFFFFFFFFFFFFFFF0
003FFFFFFFFFFFFFFFFFFFFFFFF0
00FFFFFFFFFFFFFFFFFFFFFFFFE0
01FFFFFFFFFFFFFFFFFFFFFFFFE0
03FFFFFFFFFFFFFFFFFFFFFFFFE0
07FFFFFFFFFFFFFFFFFFFFFFFFE0
0FFFFFFFFFFFFFFFFFFFFFFFFFC0
1FFFFFFFFFFFFFFFFFFFFFFFFFC0
1FFFFFFFFFFFFFFFFFFFFFFFFF80
3FFFFFFFFFFFFFFFFFFFFFFFFF80
3FFFFFFFFFFFFFFFFFFFFFFFFF00
7FFFFFFFFFFFFFFFFFFFFFFFFE00
7FFFFFFFFFFFFFFFFFFFFFFFFC00
7FFFFFFFFFFFFFFFFFFFFFFFF800
7FFFFFFFFFFFFFFFFFFFFFFFF000
FFFFFFFFFFFFFFFFFFFFFFFFE000
FFFFFFFFFFFFFFFFFFFFFFFFC000
FFFFFFFFFFFFFFFFFFFFFFFF0000
FFFFFFFFFFFFFFFFFFFFFFFC0000
FFFFFFFFFFFFFFFFFFFFFFE00000
FFFFFC0000000000000000000000
FFFFFC0000000000000000000000
FFFFFC0000000000000000000000
FFFFFC0000000000000000000000
FFFFFC0000000000000000000000
FFFFFC0000000000000000000000
FFFFFC0000000000000000000000
FFFFFC0000000000000000000000
FFFFFC0000000000000000000000
FFFFFC0000000000000000000000
FFFFFC0000000000000000000000
FFFFFC0000000000000000000000
FFFFFC0000000000000000000000
FFFFFC0000000000000000000000
FFFFFC0000000000000000000000
FFFFFC0000000000000000000000
FFFFFC0000000000000000000000
FFFFFC0000000000000000000000
FFFFFC0000000000000000000000
FFFFFC0000000000000000000000
0000000000000000000000000000
0000000000000000000000000000
0000000000000000000000000000
0000000000000000000000000000
0000000000000000000000000000
0000000000000000000000000000
0000000000000000000000000000
0000000000000000000000000000
0000000000000000000000000000
01FE000000000000000000000000
0FFF800000000000000000000000
1FFFE00000000000000000000000
3FFFF00000000000000000000000
7FFFF00000000000000000000000
7FFFF80000000000000000000000
FFFFF80000000000000000000000
FFFFFC0000000000000000000000
FFFFFC0000000000000000000000
FFFFFC0000000000000000000000
FFFFFC0000000000000000000000
FFFFFC0000000000000000000000
FFFFFC0000000000000000000000
7FFFFC0000000000000000000000
7FFFF80000000000000000000000
7FFFF80000000000000000000000
3FFFF00000000000000000000000
1FFFE00000000000000000000000
0FFFC00000000000000000000000
07FF800000000000000000000000
00FE000000000000000000000000
ENDCHAR
STARTCHAR 0040
ENCODING 64
SWIDTH 794 0
DWIDTH 143 0
BBX 126 125 1 0
BITMAP
00003FFFFFFFFFFFFFFFFFFFFFF80000
0003FFFFFFFFFFFFFFFFFFFFFFFF0000
000FFFFFFFFFFFFFFFFFFFFFFFFFC000
003FFFFFFFFFFFFFFFFFFFFFFFFFF000
007FFFFFFFFFFFFFFFFFFFFFFFFFF800
00FFFFFFFFFFFFFFFFFFFFFFFFFFFC00
03FFFFFFFFFFFFFFFFFFFFFFFFFFFF00
03FFFFFFFFFFFFFFFFFFFFFFFFFFFF00
07FFFFFFFFFFFFFFFFFFFFFFFFFFFF80
0FFFFFFFFFFFFFFFFFFFFFFFFFFFFFC0
1FFFFFFFFFFFFFFFFFFFFFFFFFFFFFE0
1FFFFFFFFFFFFFFFFFFFFFFFFFFFFFE0
3FFFFFFFFFFFFFFFFFFFFFFFFFFFFFF0
3FFFFFFFFFFFFFFFFFFFFFFFFFFFFFF0
7FFFFFFFFFFFFFFFFFFFFFFFFFFFFFF8
7FFFFFFFFFFFFFFFFFFFFFFFFFFFFFF8
7FFFFFFFFFFFFFFFFFFFFFFFFFFFFFF8
FFFFFFFFFFFFFFFFFFFFFFFFFFFFFFF8
FFFFFFFFFFFFFFFFFFFFFFFFFFFFFFFC
FFFFFFFFFFFFFFFFFFFFFFFFFFFFFFFC
FFFFFFFFFFFFFFFFFFFFFFFFFFFFFFFC
FFFFFFFFFFFFFFFFFFFFFFFFFFFFFFFC
FFFFFC00000000000000000000FFFFFC
FFFFFC00000000000000000000FFFFFC
FFFFFC00000000000000000000FFFFFC
FFFFFC00000000000000000000FFFFFC
FFFFFC00000000000000000000FFFFFC
FFFFFC00000000000000000000FFFFFC
FFFFFC00000000000000000000FFFFFC
FFFFFC00000000000000000000FFFFFC
FFFFFC00000000000000000000FFFFFC
FFFFFC00000000000000000000FFFFFC
FFFFFC00000000000000000000FFFFFC
FFFFFC00003FFFFFFFFF000000FFFFFC
FFFFFC0003FFFFFFFFFFF00000FFFFFC
FFFFFC000FFFFFFFFFFFFC0000FFFFFC
FFFFFC001FFFFFFFFFFFFE0000FFFFFC
FFFFFC007FFFFFFFFFFFFF8000FFFFFC
FFFFFC00FFFFFFFFFFFFFFC000FFFFFC
FFFFFC01FFFFFFFFFFFFFFE000FFFFFC
FFFFFC03FFFFFFFFFFFFFFF000FFFFFC
FFFFFC07FFFFFFFFFFFFFFF000FFFFFC
FFFFFC07FFFFFFFFFFFFFFF800FFFFFC
FFFFFC0FFFFFFFFFFFFFFFFC00FFFFFC
FFFFFC0FFFFFFFFFFFFFFFFC00FFFFFC
FFFFFC1FFFFFFFFFFFFFFFFC00FFFFFC
FFFFFC1FFFFFFFFFFFFFFFFE00FFFFFC
FFFFFC1FFFFFFFFFFFFFFFFE00FFFFFC
FFFFFC1FFFFFFFFFFFFFFFFE00FFFFFC
FFFFFC1FFFE00000000FFFFE00FFFFFC
FFFFFC1FFFE00000000FFFFE00FFFFFC
FFFFFC1FFFE00000000FFFFE00FFFFFC
FFFFFC1FFFE00000000FFFFE00FFFFFC
FFFFFC1FFFE00000000FFFFE00FFFFFC
FFFFFC0000000000000FFFFE00FFFFFC
FFFFFC0000000000007FFFFE00FFFFFC
FFFFFC00000000003FFFFFFE00FFFFFC
FFFFFC000000001FFFFFFFFE00FFFFFC
FFFFFC0000000FFFFFFFFFFE00FFFFFC
FFFFFC000003FFFFFFFFFFFE00FFFFFC
FFFFFC0000FFFFFFFFFFFFFE00FFFFFC
FFFFFC000FFFFFFFFFFFFFFE00FFFFFC
FFFFFC003FFFFFFFFFFFFFFE00FFFFFC
FFFFFC00FFFFFFFFFFFFFFFE00FFFFFC
FFFFFC01FFFFFFFFFFFFFFFE00FFFFFC
FFFFFC03FFFFFFFFFFFFFFFE00FFFFFC
FFFFFC07FFFFFFFFFFFFFFFE00FFFFFC
FFFFFC07FFFFFFFFFFFFFFFE00FFFFFC
FFFFFC0FFFFFFFFFFFCFFFFE00FFFFFC
FFFFFC0FFFFFFFFFE00FFFFE00FFFFFC
FFFFFC1FFFFFFFF0000FFFFE00FFFFFC
FFFFFC1FFFFFF800000FFFFE00FFFFFC
FFFFFC1FFFFC0000000FFFFE00FFFFFC
FFFFFC1FFFFFFFFFFFFFFFFE00FFFFFC
FFFFFC1FFFFFFFFFFFFFFFFE00FFFFFC
FFFFFC1FFFFFFFFFFFFFFFFE00FFFFFC
FFFFFC1FFFFFFFFFFFFFFFFE00FFFFFC
FFFFFC0FFFFFFFFFFFFFFFFE00FFFFFC
FFFFFC0FFFFFFFFFFFFFFFFE00FFFFFC
FFFFFC07FFFFFFFFFFFFFFFE00FFFFFC
FFFFFC07FFFFFFFFFFFFFFFE00FFFFFC
FFFFFC03FFFFFFFFFFFFFFFE00FFFFFC
FFFFFC01FFFFFFFFFFFFFFFE00FFFFFC
FFFFFC01FFFFFFFFFFFFFFFE00FFFFFC
FFFFFC007FFFFFFFFFFFFFFE00FFFFFC
FFFFFC003FFFFFFFFFFFFFFE00FFFFFC
FFFFFC001FFFFFFFFFFFFFFE00FFFFFC
FFFFFC0007FFFFFFFFFFFFFE00FFFFFC
FFFFFC0000FFFFFFFFFFFFFE00FFFFFC
FFFFFC00000000000000000000FFFFFC
FFFFFC00000000000000000000FFFFFC
FFFFFC00000000000000000000FFFFFC
FFFFFC00000000000000000000FFFFFC
FFFFFC00000000000000000000FFFFFC
FFFFFC00000000000000000000FFFFFC
FFFFFC00000000000000000000FFFFFC
FFFFFC00000000000000000000FFFFFC
FFFFFC00000000000000000000FFFFFC
FFFFFC00000000000000000000FFFFFC
FFFFFC00000000000000000000FFFFFC
FFFFFC00000000000000000000FFFFFC
FFFFFC00000000000000000000FFFFFC
FFFFFC00000000000000000000FFFFFC
FFFFFFFFFFFFFFFFFFFFFFFFFFFFFFFC
FFFFFFFFFFFFFFFFFFFFFFFFFFFFFFFC
FFFFFFFFFFFFFFFFFFFFFFFFFFFFFFFC
FFFFFFFFFFFFFFFFFFFFFFFFFFFFFFFC
7FFFFFFFFFFFFFFFFFFFFFFFFFFFFFFC
7FFFFFFFFFFFFFFFFFFFFFFFFFFFFFF8
7FFFFFFFFFFFFFFFFFFFFFFFFFFFFFF8
7FFFFFFFFFFFFFFFFFFFFFFFFFFFFFF8
3FFFFFFFFFFFFFFFFFFFFFFFFFFFFFF0
3FFFFFFFFFFFFFFFFFFFFFFFFFFFFFF0
1FFFFFFFFFFFFFFFFFFFFFFFFFFFFFE0
1FFFFFFFFFFFFFFFFFFFFFFFFFFFFFE0
0FFFFFFFFFFFFFFFFFFFFFFFFFFFFFC0
07FFFFFFFFFFFFFFFFFFFFFFFFFFFF80
03FFFFFFFFFFFFFFFFFFFFFFFFFFFF00
01FFFFFFFFFFFFFFFFFFFFFFFFFFFE00
00FFFFFFFFFFFFFFFFFFFFFFFFFFFC00
007FFFFFFFFFFFFFFFFFFFFFFFFFF800
003FFFFFFFFFFFFFFFFFFFFFFFFFF000
000FFFFFFFFFFFFFFFFFFFFFFFFFC000
0003FFFFFFFFFFFFFFFFFFFFFFFF0000
00003FFFFFFFFFFFFFFFFFFFFFF80000
ENDCHAR
STARTCHAR 0041
ENCODING 65
SWIDTH 700 0
DWIDTH 126 0
BBX 108 125 1 0
BITMAP
00007FFFFFFFFFFFFFFFFFC00000
0003FFFFFFFFFFFFFFFFFFFC0000
000FFFFFFFFFFFFFFFFFFFFF0000
003FFFFFFFFFFFFFFFFFFFFFC000
007FFFFFFFFFFFFFFFFFFFFFE000
00FFFFFFFFFFFFFFFFFFFFFFF000
03FFFFFFFFFFFFFFFFFFFFFFF800
03FFFFFFFFFFFFFFFFFFFFFFFC00
07FFFFFFFFFFFFFFFFFFFFFFFE00
0FFFFFFFFFFFFFFFFFFFFFFFFF00
1FFFFFFFFFFFFFFFFFFFFFFFFF80
1FFFFFFFFFFFFFFFFFFFFFFFFF80
3FFFFFFFFFFFFFFFFFFFFFFFFFC0
3FFFFFFFFFFFFFFFFFFFFFFFFFC0
7FFFFFFFFFFFFFFFFFFFFFFFFFE0
7FFFFFFFFFFFFFFFFFFFFFFFFFE0
7FFFFFFFFFFFFFFFFFFFFFFFFFE0
FFFFFFFFFFFFFFFFFFFFFFFFFFE0
FFFFFFFFFFFFFFFFFFFFFFFFFFF0
FFFFFFFFFFFFFFFFFFFFFFFFFFF0
FFFFFFFFFFFFFFFFFFFFFFFFFFF0
FFFFFFFFFFFFFFFFFFFFFFFFFFF0
FFFFFC0000000000000003FFFFF0
FFFFFC0000000000000003FFFFF0
FFFFFC0000000000000003FFFFF0
FFFFFC0000000000000003FFFFF0
FFFFFC0000000000000003FFFFF0
FFFFFC0000000000000003FFFFF0
FFFFFC0000000000000003FFFFF0
FFFFFC0000000000000003FFFFF0
FFFFFC0000000000000003FFFFF0
FFFFFC0000000000000003FFFFF0
FFFFFC0000000000000003FFFFF0
FFFFFC0000000000000003FFFFF0
FFFFFC0000000000000003FFFFF0
FFFFFC0000000000000003FFFFF0
FFFFFC0000000000000003FFFFF0
FFFFFC0000000000000003FFFFF0
FFFFFC0000000000000003FFFFF0
FFFFFC0000000000000003FFFFF0
FFFFFC0000000000000003FFFFF0
FFFFFC0000000000000003FFFFF0
FFFFFC0000000000000003FFFFF0
FFFFFC0000000000000003FFFFF0
FFFFFC0000000000000003FFFFF0
FFFFFC0000000000000003FFFFF0
FFFFFC0000000000000003FFFFF0
FFFFFC0000000000000003FFFFF0
FFFFFC0000000000000003FFFFF0
FFFFFC0000000000000003FFFFF0
FFFFFC0000000000000003FFFFF0
FFFFFC0000000000000003FFFFF0
FFFFFC0000000000000003FFFFF0
FFFFFC0000000000000003FFFFF0
FFFFFC0000000000000003FFFFF0
FFFFFC0000000000000003FFFFF0
FFFFFC0000000000000003FFFFF0
FFFFFC0000000000000003FFFFF0
FFFFFC0000000000000003FFFFF0
FFFFFC0000000000000003FFFFF0
FFFFFFFFFFFFFFFFFFFFFFFFFFF0
FFFFFFFFFFFFFFFFFFFFFFFFFFF0
FFFFFFFFFFFFFFFFFFFFFFFFFFF0
FFFFFFFFFFFFFFFFFFFFFFFFFFF0
FFFFFFFFFFFFFFFFFFFFFFFFFFF0
FFFFFFFFFFFFFFFFFFFFFFFFFFF0
FFFFFFFFFFFFFFFFFFFFFFFFFFF0
FFFFFFFFFFFFFFFFFFFFFFFFFFF0
FFFFFFFFFFFFFFFFFFFFFFFFFFF0
FFFFFFFFFFFFFFFFFFFFFFFFFFF0
FFFFFFFFFFFFFFFFFFFFFFFFFFF0
FFFFFFFFFFFFFFFFFFFFFFFFFFF0
FFFFFFFFFFFFFFFFFFFFFFFFFFF0
FFFFFFFFFFFFFFFFFFFFFFFFFFF0
FFFFFFFFFFFFFFFFFFFFFFFFFFF0
FFFFFFFFFFFFFFFFFFFFFFFFFFF0
FFFFFFFFFFFFFFFFFFFFFFFFFFF0
FFFFFFFFFFFFFFFFFFFFFFFFFFF0
FFFFFFFFFFFFFFFFFFFFFFFFFFF0
FFFFFFFFFFFFFFFFFFFFFFFFFFF0
FFFFFFFFFFFFFFFFFFFFFFFFFFF0
FFFFFFFFFFFFFFFFFFFFFFFFFFF0
FFFFFC0000000000000003FFFFF0
FFFFFC0000000000000003FFFFF0
FFFFFC0000000000000003FFFFF0
FFFFFC0000000000000003FFFFF0
FFFFFC0000000000000003FFFFF0
FFFFFC0000000000000003FFFFF0
FFFFFC0000000000000003FFFFF0
FFFFFC0000000000000003FFFFF0
FFFFFC0000000000000003FFFFF0
FFFFFC0000000000000003FFFFF0
FFFFFC0000000000000003FFFFF0
FFFFFC0000000000000003FFFFF0
FFFFFC0000000000000003FFFFF0
FFFFFC0000000000000003FFFFF0
FFFFFC0000000000000003FFFFF0
FFFFFC0000000000000003FFFFF0
FFFFFC0000000000000003FFFFF0
FFFFFC0000000000000003FFFFF0
FFFFFC0000000000000003FFFFF0
FFFFFC0000000000000003FFFFF0
FFFFFC0000000000000003FFFFF0
FFFFFC0000000000000003FFFFF0
FFFFFC0000000000000003FFFFF0
FFFFFC0000000000000003FFFFF0
FFFFFC0000000000000003FFFFF0
FFFFFC0000000000000003FFFFF0
FFFFFC0000000000000003FFFFF0
FFFFFC0000000000000003FFFFF0
FFFFFC0000000000000003FFFFF0
FFFFFC0000000000000003FFFFF0
FFFFFC0000000000000003FFFFF0
FFFFFC0000000000000003FFFFF0
FFFFFC0000000000000003FFFFF0
FFFFFC0000000000000003FFFFF0
FFFFFC0000000000000003FFFFF0
FFFFFC0000000000000003FFFFF0
FFFFFC0000000000000003FFFFF0
FFFFFC0000000000000003FFFFF0
FFFFFC0000000000000003FFFFF0
FFFFFC0000000000000003FFFFF0
FFFFFC0000000000000003FFFFF0
FFFFFC0000000000000003FFFFF0
FFFFFC0000000000000003FFFFF0
ENDCHAR
STARTCHAR 0042
ENCODING 66
SWIDTH 700 0
DWIDTH 126 0
BBX 108 125 1 0
BITMAP
FFFFFFFFFFFFFFFFFFFFFFC00000
FFFFFFFFFFFFFFFFFFFFFFFC0000
FFFFFFFFFFFFFFFFFFFFFFFF0000
FFFFFFFFFFFFFFFFFFFFFFFFC000
FFFFFFFFFFFFFFFFFFFFFFFFE000
FFFFFFFFFFFFFFFFFFFFFFFFF000
FFFFFFFFFFFFFFFFFFFFFFFFF800
FFFFFFFFFFFFFFFFFFFFFFFFFC00
FFFFFFFFFFFFFFFFFFFFFFFFFE00
FFFFFFFFFFFFFFFFFFFFFFFFFF00
FFFFFFFFFFFFFFFFFFFFFFFFFF80
FFFFFFFFFFFFFFFFFFFFFFFFFF80
FFFFFFFFFFFFFFFFFFFFFFFFFFC0
FFFFFFFFFFFFFFFFFFFFFFFFFFC0
FFFFFFFFFFFFFFFFFFFFFFFFFFE0
FFFFFFFFFFFFFFFFFFFFFFFFFFE0
FFFFFFFFFFFFFFFFFFFFFFFFFFE0
FFFFFFFFFFFFFFFFFFFFFFFFFFE0
FFFFFFFFFFFFFFFFFFFFFFFFFFF0
FFFFFFFFFFFFFFFFFFFFFFFFFFF0
FFFFFFFFFFFFFFFFFFFFFFFFFFF0
FFFFFFFFFFFFFFFFFFFFFFFFFFF0
FFFFFC0000000000000003FFFFF0
FFFFFC0000000000000003FFFFF0
FFFFFC0000000000000003FFFFF0
FFFFFC0000000000000003FFFFF0
FFFFFC0000000000000003FFFFF0
FFFFFC0000000000000003FFFFF0
FFFFFC0000000000000003FFFFF0
FFFFFC0000000000000003FFFFF0
FFFFFC0000000000000003FFFFF0
FFFFFC0000000000000003FFFFF0
FFFFFC0000000000000003FFFFF0
FFFFFC0000000000000003FFFFF0
FFFFFC0000000000000003FFFFF0
FFFFFC0000000000000003FFFFF0
FFFFFC0000000000000003FFFFF0
FFFFFC0000000000000003FFFFF0
FFFFFC0000000000000003FFFFF0
FFFFFC0000000000000003FFFFF0
FFFFFC0000000000000003FFFFF0
FFFFFC0000000000000003FFFFF0
FFFFFC0000000000000003FFFFF0
FFFFFC0000000000000003FFFFF0
FFFFFC0000000000000003FFFFF0
FFFFFC0000000000000003FFFFF0
FFFFFC0000000000000003FFFFF0
FFFFFC0000000000000003FFFFF0
FFFFFC0000000000000003FFFFF0
FFFFFC0000000000000003FFFFF0
FFFFFC0000000000000003FFFFF0
FFFFFC0000000000000003FFFFF0
FFFFFFFFFFFFFFFFFFFFFFFFFFF0
FFFFFFFFFFFFFFFFFFFFFFFFFFF0
FFFFFFFFFFFFFFFFFFFFFFFFFFF0
FFFFFFFFFFFFFFFFFFFFFFFFFFF0
FFFFFFFFFFFFFFFFFFFFFFFFFFF0
FFFFFFFFFFFFFFFFFFFFFFFFFFE0
FFFFFFFFFFFFFFFFFFFFFFFFFFE0
FFFFFFFFFFFFFFFFFFFFFFFFFFC0
FFFFFFFFFFFFFFFFFFFFFFFFFF80
FFFFFFFFFFFFFFFFFFFFFFFFFF00
FFFFFFFFFFFFFFFFFFFFFFFFFE00
FFFFFFFFFFFFFFFFFFFFFFFFFC00
FFFFFFFFFFFFFFFFFFFFFFFFFE00
FFFFFFFFFFFFFFFFFFFFFFFFFF00
FFFFFFFFFFFFFFFFFFFFFFFFFF80
FFFFFFFFFFFFFFFFFFFFFFFFFFC0
FFFFFFFFFFFFFFFFFFFFFFFFFFE0
FFFFFFFFFFFFFFFFFFFFFFFFFFF0
FFFFFFFFFFFFFFFFFFFFFFFFFFF0
FFFFFFFFFFFFFFFFFFFFFFFFFFF0
FFFFFFFFFFFFFFFFFFFFFFFFFFF0
FFFFFFFFFFFFFFFFFFFFFFFFFFF0
FFFFFC0000000000000003FFFFF0
FFFFFC0000000000000003FFFFF0
FFFFFC0000000000000003FFFFF0
FFFFFC0000000000000003FFFFF0
FFFFFC0000000000000003FFFFF0
FFFFFC0000000000000003FFFFF0
FFFFFC0000000000000003FFFFF0
FFFFFC0000000000000003FFFFF0
FFFFFC0000000000000003FFFFF0
FFFFFC0000000000000003FFFFF0
FFFFFC0000000000000003FFFFF0
FFFFFC0000000000000003FFFFF0
FFFFFC0000000000000003FFFFF0
FFFFFC0000000000000003FFFFF0
FFFFFC0000000000000003FFFFF0
FFFFFC0000000000000003FFFFF0
FFFFFC0000000000000003FFFFF0
FFFFFC0000000000000003FFFFF0
FFFFFC0000000000000003FFFFF0
FFFFFC0000000000000003FFFFF0
FFFFFC0000000000000003FFFFF0
FFFFFC0000000000000003FFFFF0
FFFFFC0000000000000003FFFFF0
FFFFFC0000000000000003FFFFF0
FFFFFC0000000000000003FFFFF0
FFFFFC0000000000000003FFFFF0
FFFFFC0000000000000003FFFFF0
FFFFFC0000000000000003FFFFF0
FFFFFC0000000000000003FFFFF0
FFFFFFFFFFFFFFFFFFFFFFFFFFF0
FFFFFFFFFFFFFFFFFFFFFFFFFFF0
FFFFFFFFFFFFFFFFFFFFFFFFFFF0
FFFFFFFFFFFFFFFFFFFFFFFFFFF0
FFFFFFFFFFFFFFFFFFFFFFFFFFE0
FFFFFFFFFFFFFFFFFFFFFFFFFFE0
FFFFFFFFFFFFFFFFFFFFFFFFFFE0
FFFFFFFFFFFFFFFFFFFFFFFFFFE0
FFFFFFFFFFFFFFFFFFFFFFFFFFC0
FFFFFFFFFFFFFFFFFFFFFFFFFFC0
FFFFFFFFFFFFFFFFFFFFFFFFFF80
FFFFFFFFFFFFFFFFFFFFFFFFFF80
FFFFFFFFFFFFFFFFFFFFFFFFFF00
FFFFFFFFFFFFFFFFFFFFFFFFFE00
FFFFFFFFFFFFFFFFFFFFFFFFFC00
FFFFFFFFFFFFFFFFFFFFFFFFF800
FFFFFFFFFFFFFFFFFFFFFFFFF000
FFFFFFFFFFFFFFFFFFFFFFFFE000
FFFFFFFFFFFFFFFFFFFFFFFFC000
FFFFFFFFFFFFFFFFFFFFFFFF0000
FFFFFFFFFFFFFFFFFFFFFFFC0000
FFFFFFFFFFFFFFFFFFFFFFE00000
ENDCHAR
STARTCHAR 0043
ENCODING 67
SWIDTH 638 0
DWIDTH 115 0
BBX 108 125 1 0
BITMAP
00003FFFFFFFFFFFFFFFFFFFFFF0
0003FFFFFFFFFFFFFFFFFFFFFFF0
000FFFFFFFFFFFFFFFFFFFFFFFF0
003FFFFFFFFFFFFFFFFFFFFFFFF0
007FFFFFFFFFFFFFFFFFFFFFFFF0
00FFFFFFFFFFFFFFFFFFFFFFFFF0
01FFFFFFFFFFFFFFFFFFFFFFFFF0
03FFFFFFFFFFFFFFFFFFFFFFFFF0
07FFFFFFFFFFFFFFFFFFFFFFFFF0
0FFFFFFFFFFFFFFFFFFFFFFFFFF0
1FFFFFFFFFFFFFFFFFFFFFFFFFF0
1FFFFFFFFFFFFFFFFFFFFFFFFFF0
3FFFFFFFFFFFFFFFFFFFFFFFFFF0
3FFFFFFFFFFFFFFFFFFFFFFFFFF0
7FFFFFFFFFFFFFFFFFFFFFFFFFF0
7FFFFFFFFFFFFFFFFFFFFFFFFFF0
7FFFFFFFFFFFFFFFFFFFFFFFFFF0
FFFFFFFFFFFFFFFFFFFFFFFFFFF0
FFFFFFFFFFFFFFFFFFFFFFFFFFF0
FFFFFFFFFFFFFFFFFFFFFFFFFFF0
FFFFFFFFFFFFFFFFFFFFFFFFFFF0
FFFFFFFFFFFFFFFFFFFFFFFFFFF0
FFFFFC0000000000000000000000
FFFFFC0000000000000000000000
FFFFFC0000000000000000000000
FFFFFC0000000000000000000000
FFFFFC0000000000000000000000
FFFFFC0000000000000000000000
FFFFFC0000000000000000000000
FFFFFC0000000000000000000000
FFFFFC0000000000000000000000
FFFFFC0000000000000000000000
FFFFFC0000000000000000000000
FFFFFC0000000000000000000000
FFFFFC0000000000000000000000
FFFFFC0000000000000000000000
FFFFFC0000000000000000000000
FFFFFC0000000000000000000000
FFFFFC0000000000000000000000
FFFFFC0000000000000000000000
FFFFFC0000000000000000000000
FFFFFC0000000000000000000000
FFFFFC0000000000000000000000
FFFFFC0000000000000000000000
FFFFFC0000000000000000000000
FFFFFC0000000000000000000000
FFFFFC0000000000000000000000
FFFFFC0000000000000000000000
FFFFFC0000000000000000000000
FFFFFC0000000000000000000000
FFFFFC0000000000000000000000
FFFFFC0000000000000000000000
FFFFFC0000000000000000000000
FFFFFC0000000000000000000000
FFFFFC0000000000000000000000
FFFFFC0000000000000000000000
FFFFFC0000000000000000000000
FFFFFC0000000000000000000000
FFFFFC0000000000000000000000
FFFFFC0000000000000000000000
FFFFFC0000000000000000000000
FFFFFC0000000000000000000000
FFFFFC0000000000000000000000
FFFFFC0000000000000000000000
FFFFFC0000000000000000000000
FFFFFC0000000000000000000000
FFFFFC0000000000000000000000
FFFFFC0000000000000000000000
FFFFFC0000000000000000000000
FFFFFC0000000000000000000000
FFFFFC0000000000000000000000
FFFFFC0000000000000000000000
FFFFFC0000000000000000000000
FFFFFC0000000000000000000000
FFFFFC0000000000000000000000
FFFFFC0000000000000000000000
FFFFFC0000000000000000000000
FFFFFC0000000000000000000000
FFFFFC0000000000000000000000
FFFFFC0000000000000000000000
FFFFFC0000000000000000000000
FFFFFC0000000000000000000000
FFFFFC0000000000000000000000
FFFFFC0000000000000000000000
FFFFFC0000000000000000000000
FFFFFC0000000000000000000000
FFFFFC0000000000000000000000
FFFFFC0000000000000000000000
FFFFFC0000000000000000000000
FFFFFC0000000000000000000000
FFFFFC0000000000000000000000
FFFFFC0000000000000000000000
FFFFFC0000000000000000000000
FFFFFC0000000000000000000000
FFFFFC0000000000000000000000
FFFFFC0000000000000000000000
FFFFFC0000000000000000000000
FFFFFC0000000000000000000000
FFFFFC0000000000000000000000
FFFFFC0000000000000000000000
FFFFFC0000000000000000000000
FFFFFC0000000000000000000000
FFFFFC0000000000000000000000
FFFFFFFFFFFFFFFFFFFFFFFFFFF0
FFFFFFFFFFFFFFFFFFFFFFFFFFF0
FFFFFFFFFFFFFFFFFFFFFFFFFFF0
FFFFFFFFFFFFFFFFFFFFFFFFFFF0
7FFFFFFFFFFFFFFFFFFFFFFFFFF0
7FFFFFFFFFFFFFFFFFFFFFFFFFF0
7FFFFFFFFFFFFFFFFFFFFFFFFFF0
7FFFFFFFFFFFFFFFFFFFFFFFFFF0
3FFFFFFFFFFFFFFFFFFFFFFFFFF0
3FFFFFFFFFFFFFFFFFFFFFFFFFF0
1FFFFFFFFFFFFFFFFFFFFFFFFFF0
1FFFFFFFFFFFFFFFFFFFFFFFFFF0
0FFFFFFFFFFFFFFFFFFFFFFFFFF0
07FFFFFFFFFFFFFFFFFFFFFFFFF0
03FFFFFFFFFFFFFFFFFFFFFFFFF0
01FFFFFFFFFFFFFFFFFFFFFFFFF0
00FFFFFFFFFFFFFFFFFFFFFFFFF0
007FFFFFFFFFFFFFFFFFFFFFFFF0
003FFFFFFFFFFFFFFFFFFFFFFFF0
000FFFFFFFFFFFFFFFFFFFFFFFF0
0003FFFFFFFFFFFFFFFFFFFFFFF0
00003FFFFFFFFFFFFFFFFFFFFFF0
ENDCHAR
STARTCHAR 0044
ENCODING 68
SWIDTH 694 0
DWIDTH 125 0
BBX 108 125 1 0
BITMAP
FFFFFFFFFFFFFFFFFFFFFFE00000
FFFFFFFFFFFFFFFFFFFFFFFC0000
FFFFFFFFFFFFFFFFFFFFFFFF0000
FFFFFFFFFFFFFFFFFFFFFFFFC000
FFFFFFFFFFFFFFFFFFFFFFFFE000
FFFFFFFFFFFFFFFFFFFFFFFFF800
FFFFFFFFFFFFFFFFFFFFFFFFFC00
FFFFFFFFFFFFFFFFFFFFFFFFFE00
FFFFFFFFFFFFFFFFFFFFFFFFFE00
FFFFFFFFFFFFFFFFFFFFFFFFFF00
FFFFFFFFFFFFFFFFFFFFFFFFFF80
FFFFFFFFFFFFFFFFFFFFFFFFFF80
FFFFFFFFFFFFFFFFFFFFFFFFFFC0
FFFFFFFFFFFFFFFFFFFFFFFFFFC0
FFFFFFFFFFFFFFFFFFFFFFFFFFE0
FFFFFFFFFFFFFFFFFFFFFFFFFFE0
FFFFFFFFFFFFFFFFFFFFFFFFFFE0
FFFFFFFFFFFFFFFFFFFFFFFFFFE0
FFFFFFFFFFFFFFFFFFFFFFFFFFF0
FFFFFFFFFFFFFFFFFFFFFFFFFFF0
FFFFFFFFFFFFFFFFFFFFFFFFFFF0
FFFFFFFFFFFFFFFFFFFFFFFFFFF0
FFFFFC0000000000000003FFFFF0
FFFFFC0000000000000003FFFFF0
FFFFFC0000000000000003FFFFF0
FFFFFC0000000000000003FFFFF0
FFFFFC0000000000000003FFFFF0
FFFFFC0000000000000003FFFFF0
FFFFFC0000000000000003FFFFF0
FFFFFC0000000000000003FFFFF0
FFFFFC0000000000000003FFFFF0
FFFFFC0000000000000003FFFFF0
FFFFFC0000000000000003FFFFF0
FFFFFC0000000000000003FFFFF0
FFFFFC0000000000000003FFFFF0
FFFFFC0000000000000003FFFFF0
FFFFFC0000000000000003FFFFF0
FFFFFC0000000000000003FFFFF0
FFFFFC0000000000000003FFFFF0
FFFFFC0000000000000003FFFFF0
FFFFFC0000000000000003FFFFF0
FFFFFC0000000000000003FFFFF0
FFFFFC0000000000000003FFFFF0
FFFFFC0000000000000003FFFFF0
FFFFFC0000000000000003FFFFF0
FFFFFC0000000000000003FFFFF0
FFFFFC0000000000000003FFFFF0
FFFFFC0000000000000003FFFFF0
FFFFFC0000000000000003FFFFF0
FFFFFC0000000000000003FFFFF0
FFFFFC0000000000000003FFFFF0
FFFFFC0000000000000003FFFFF0
FFFFFC0000000000000003FFFFF0
FFFFFC0000000000000003FFFFF0
FFFFFC0000000000000003FFFFF0
FFFFFC0000000000000003FFFFF0
FFFFFC0000000000000003FFFFF0
FFFFFC0000000000000003FFFFF0
FFFFFC0000000000000003FFFFF0
FFFFFC0000000000000003FFFFF0
FFFFFC0000000000000003FFFFF0
FFFFFC0000000000000003FFFFF0
FFFFFC0000000000000003FFFFF0
FFFFFC0000000000000003FFFFF0
FFFFFC0000000000000003FFFFF0
FFFFFC0000000000000003FFFFF0
FFFFFC0000000000000003FFFFF0
FFFFFC0000000000000003FFFFF0
FFFFFC0000000000000003FFFFF0
FFFFFC0000000000000003FFFFF0
FFFFFC0000000000000003FFFFF0
FFFFFC0000000000000003FFFFF0
FFFFFC0000000000000003FFFFF0
FFFFFC0000000000000003FFFFF0
FFFFFC0000000000000003FFFFF0
FFFFFC0000000000000003FFFFF0
FFFFFC0000000000000003FFFFF0
FFFFFC0000000000000003FFFFF0
FFFFFC0000000000000003FFFFF0
FFFFFC0000000000000003FFFFF0
FFFFFC0000000000000003FFFFF0
FFFFFC0000000000000003FFFFF0
FFFFFC0000000000000003FFFFF0
FFFFFC0000000000000003FFFFF0
FFFFFC0000000000000003FFFFF0
FFFFFC0000000000000003FFFFF0
FFFFFC0000000000000003FFFFF0
FFFFFC0000000000000003FFFFF0
FFFFFC0000000000000003FFFFF0
FFFFFC0000000000000003FFFFF0
FFFFFC0000000000000003FFFFF0
FFFFFC0000000000000003FFFFF0
FFFFFC0000000000000003FFFFF0
FFFFFC0000000000000003FFFFF0
FFFFFC0000000000000003FFFFF0
FFFFFC0000000000000003FFFFF0
FFFFFC0000000000000003FFFFF0
FFFFFC0000000000000003FFFFF0
FFFFFC0000000000000003FFFFF0
FFFFFC0000000000000003FFFFF0
FFFFFC0000000000000003FFFFF0
FFFFFC0000000000000003FFFFF0
FFFFFC0000000000000003FFFFF0
FFFFFFFFFFFFFFFFFFFFFFFFFFF0
FFFFFFFFFFFFFFFFFFFFFFFFFFF0
FFFFFFFFFFFFFFFFFFFFFFFFFFF0
FFFFFFFFFFFFFFFFFFFFFFFFFFF0
FFFFFFFFFFFFFFFFFFFFFFFFFFF0
FFFFFFFFFFFFFFFFFFFFFFFFFFE0
FFFFFFFFFFFFFFFFFFFFFFFFFFE0
FFFFFFFFFFFFFFFFFFFFFFFFFFE0
FFFFFFFFFFFFFFFFFFFFFFFFFFC0
FFFFFFFFFFFFFFFFFFFFFFFFFFC0
FFFFFFFFFFFFFFFFFFFFFFFFFF80
FFFFFFFFFFFFFFFFFFFFFFFFFF80
FFFFFFFFFFFFFFFFFFFFFFFFFF00
FFFFFFFFFFFFFFFFFFFFFFFFFE00
FFFFFFFFFFFFFFFFFFFFFFFFFC00
FFFFFFFFFFFFFFFFFFFFFFFFF800
FFFFFFFFFFFFFFFFFFFFFFFFF000
FFFFFFFFFFFFFFFFFFFFFFFFE000
FFFFFFFFFFFFFFFFFFFFFFFFC000
FFFFFFFFFFFFFFFFFFFFFFFF0000
FFFFFFFFFFFFFFFFFFFFFFFC0000
FFFFFFFFFFFFFFFFFFFFFFE00000
ENDCHAR
STARTCHAR 0045
ENCODING 69
SWIDTH 661 0
DWIDTH 119 0
BBX 108 125 1 0
BITMAP
00003FFFFFFFFFFFFFFFFFFFFFF0
0003FFFFFFFFFFFFFFFFFFFFFFF0
000FFFFFFFFFFFFFFFFFFFFFFFF0
003FFFFFFFFFFFFFFFFFFFFFFFF0
007FFFFFFFFFFFFFFFFFFFFFFFF0
00FFFFFFFFFFFFFFFFFFFFFFFFF0
01FFFFFFFFFFFFFFFFFFFFFFFFF0
03FFFFFFFFFFFFFFFFFFFFFFFFF0
07FFFFFFFFFFFFFFFFFFFFFFFFF0
0FFFFFFFFFFFFFFFFFFFFFFFFFF0
1FFFFFFFFFFFFFFFFFFFFFFFFFF0
1FFFFFFFFFFFFFFFFFFFFFFFFFF0
3FFFFFFFFFFFFFFFFFFFFFFFFFF0
3FFFFFFFFFFFFFFFFFFFFFFFFFF0
7FFFFFFFFFFFFFFFFFFFFFFFFFF0
7FFFFFFFFFFFFFFFFFFFFFFFFFF0
7FFFFFFFFFFFFFFFFFFFFFFFFFF0
FFFFFFFFFFFFFFFFFFFFFFFFFFF0
FFFFFFFFFFFFFFFFFFFFFFFFFFF0
FFFFFFFFFFFFFFFFFFFFFFFFFFF0
FFFFFFFFFFFFFFFFFFFFFFFFFFF0
FFFFFFFFFFFFFFFFFFFFFFFFFFF0
FFFFFC0000000000000000000000
FFFFFC0000000000000000000000
FFFFFC0000000000000000000000
FFFFFC0000000000000000000000
FFFFFC0000000000000000000000
FFFFFC0000000000000000000000
FFFFFC0000000000000000000000
FFFFFC0000000000000000000000
FFFFFC0000000000000000000000
FFFFFC0000000000000000000000
FFFFFC0000000000000000000000
FFFFFC0000000000000000000000
FFFFFC0000000000000000000000
FFFFFC0000000000000000000000
FFFFFC0000000000000000000000
FFFFFC0000000000000000000000
FFFFFC0000000000000000000000
FFFFFC0000000000000000000000
FFFFFC0000000000000000000000
FFFFFC0000000000000000000000
FFFFFC0000000000000000000000
FFFFFC0000000000000000000000
FFFFFC0000000000000000000000
FFFFFC0000000000000000000000
FFFFFC0000000000000000000000
FFFFFC0000000000000000000000
FFFFFC0000000000000000000000
FFFFFC0000000000000000000000
FFFFFC0000000000000000000000
FFFFFC0000000000000000000000
FFFFFFFFFFFFFFFFFFFFFFFFFFF0
FFFFFFFFFFFFFFFFFFFFFFFFFFF0
FFFFFFFFFFFFFFFFFFFFFFFFFFF0
FFFFFFFFFFFFFFFFFFFFFFFFFFF0
FFFFFFFFFFFFFFFFFFFFFFFFFFF0
FFFFFFFFFFFFFFFFFFFFFFFFFFF0
FFFFFFFFFFFFFFFFFFFFFFFFFFF0
FFFFFFFFFFFFFFFFFFFFFFFFFFF0
FFFFFFFFFFFFFFFFFFFFFFFFFFF0
FFFFFFFFFFFFFFFFFFFFFFFFFFF0
FFFFFFFFFFFFFFFFFFFFFFFFFFF0
FFFFFFFFFFFFFFFFFFFFFFFFFFF0
FFFFFFFFFFFFFFFFFFFFFFFFFFF0
FFFFFFFFFFFFFFFFFFFFFFFFFFF0
FFFFFFFFFFFFFFFFFFFFFFFFFFF0
FFFFFFFFFFFFFFFFFFFFFFFFFFF0
FFFFFFFFFFFFFFFFFFFFFFFFFFF0
FFFFFFFFFFFFFFFFFFFFFFFFFFF0
FFFFFFFFFFFFFFFFFFFFFFFFFFF0
FFFFFFFFFFFFFFFFFFFFFFFFFFF0
FFFFFFFFFFFFFFFFFFFFFFFFFFF0
FFFFFFFFFFFFFFFFFFFFFFFFFFF0
FFFFFC0000000000000000000000
FFFFFC0000000000000000000000
FFFFFC0000000000000000000000
FFFFFC0000000000000000000000
FFFFFC0000000000000000000000
FFFFFC0000000000000000000000
FFFFFC0000000000000000000000
FFFFFC0000000000000000000000
FFFFFC0000000000000000000000
FFFFFC0000000000000000000000
FFFFFC0000000000000000000000
FFFFFC0000000000000000000000
FFFFFC0000000000000000000000
FFFFFC0000000000000000000000
FFFFFC0000000000000000000000
FFFFFC0000000000000000000000
FFFFFC0000000000000000000000
FFFFFC0000000000000000000000
FFFFFC0000000000000000000000
FFFFFC0000000000000000000000
FFFFFC0000000000000000000000
FFFFFC0000000000000000000000
FFFFFC0000000000000000000000
FFFFFC0000000000000000000000
FFFFFC0000000000000000000000
FFFFFC0000000000000000000000
FFFFFC0000000000000000000000
FFFFFC0000000000000000000000
FFFFFC0000000000000000000000
FFFFFFFFFFFFFFFFFFFFFFFFFFF0
FFFFFFFFFFFFFFFFFFFFFFFFFFF0
FFFFFFFFFFFFFFFFFFFFFFFFFFF0
FFFFFFFFFFFFFFFFFFFFFFFFFFF0
7FFFFFFFFFFFFFFFFFFFFFFFFFF0
7FFFFFFFFFFFFFFFFFFFFFFFFFF0
7FFFFFFFFFFFFFFFFFFFFFFFFFF0
7FFFFFFFFFFFFFFFFFFFFFFFFFF0
3FFFFFFFFFFFFFFFFFFFFFFFFFF0
3FFFFFFFFFFFFFFFFFFFFFFFFFF0
1FFFFFFFFFFFFFFFFFFFFFFFFFF0
1FFFFFFFFFFFFFFFFFFFFFFFFFF0
0FFFFFFFFFFFFFFFFFFFFFFFFFF0
07FFFFFFFFFFFFFFFFFFFFFFFFF0
03FFFFFFFFFFFFFFFFFFFFFFFFF0
01FFFFFFFFFFFFFFFFFFFFFFFFF0
00FFFFFFFFFFFFFFFFFFFFFFFFF0
007FFFFFFFFFFFFFFFFFFFFFFFF0
003FFFFFFFFFFFFFFFFFFFFFFFF0
000FFFFFFFFFFFFFFFFFFFFFFFF0
0003FFFFFFFFFFFFFFFFFFFFFFF0
00003FFFFFFFFFFFFFFFFFFFFFF0
ENDCHAR
STARTCHAR 0046
ENCODING 70
SWIDTH 644 0
DWIDTH 116 0
BBX 108 125 1 0
BITMAP
00003FFFFFFFFFFFFFFFFFFFFFF0
0003FFFFFFFFFFFFFFFFFFFFFFF0
000FFFFFFFFFFFFFFFFFFFFFFFF0
003FFFFFFFFFFFFFFFFFFFFFFFF0
007FFFFFFFFFFFFFFFFFFFFFFFF0
00FFFFFFFFFFFFFFFFFFFFFFFFF0
01FFFFFFFFFFFFFFFFFFFFFFFFF0
03FFFFFFFFFFFFFFFFFFFFFFFFF0
07FFFFFFFFFFFFFFFFFFFFFFFFF0
0FFFFFFFFFFFFFFFFFFFFFFFFFF0
1FFFFFFFFFFFFFFFFFFFFFFFFFF0
1FFFFFFFFFFFFFFFFFFFFFFFFFF0
3FFFFFFFFFFFFFFFFFFFFFFFFFF0
3FFFFFFFFFFFFFFFFFFFFFFFFFF0
7FFFFFFFFFFFFFFFFFFFFFFFFFF0
7FFFFFFFFFFFFFFFFFFFFFFFFFF0
7FFFFFFFFFFFFFFFFFFFFFFFFFF0
FFFFFFFFFFFFFFFFFFFFFFFFFFF0
FFFFFFFFFFFFFFFFFFFFFFFFFFF0
FFFFFFFFFFFFFFFFFFFFFFFFFFF0
FFFFFFFFFFFFFFFFFFFFFFFFFFF0
FFFFFFFFFFFFFFFFFFFFFFFFFFF0
FFFFFC0000000000000000000000
FFFFFC0000000000000000000000
FFFFFC0000000000000000000000
FFFFFC0000000000000000000000
FFFFFC0000000000000000000000
FFFFFC0000000000000000000000
FFFFFC0000000000000000000000
FFFFFC0000000000000000000000
FFFFFC0000000000000000000000
FFFFFC0000000000000000000000
FFFFFC0000000000000000000000
FFFFFC0000000000000000000000
FFFFFC0000000000000000000000
FFFFFC0000000000000000000000
FFFFFC0000000000000000000000
FFFFFC0000000000000000000000
FFFFFC0000000000000000000000
FFFFFC0000000000000000000000
FFFFFC0000000000000000000000
FFFFFC0000000000000000000000
FFFFFC0000000000000000000000
FFFFFC0000000000000000000000
FFFFFC0000000000000000000000
FFFFFC0000000000000000000000
FFFFFC0000000000000000000000
FFFFFC0000000000000000000000
FFFFFC0000000000000000000000
FFFFFC0000000000000000000000
FFFFFC0000000000000000000000
FFFFFC0000000000000000000000
FFFFFFFFFFFFFFFFFFFFFFFFFFF0
FFFFFFFFFFFFFFFFFFFFFFFFFFF0
FFFFFFFFFFFFFFFFFFFFFFFFFFF0
FFFFFFFFFFFFFFFFFFFFFFFFFFF0
FFFFFFFFFFFFFFFFFFFFFFFFFFF0
FFFFFFFFFFFFFFFFFFFFFFFFFFF0
FFFFFFFFFFFFFFFFFFFFFFFFFFF0
FFFFFFFFFFFFFFFFFFFFFFFFFFF0
FFFFFFFFFFFFFFFFFFFFFFFFFFF0
FFFFFFFFFFFFFFFFFFFFFFFFFFF0
FFFFFFFFFFFFFFFFFFFFFFFFFFF0
FFFFFFFFFFFFFFFFFFFFFFFFFFF0
FFFFFFFFFFFFFFFFFFFFFFFFFFF0
FFFFFFFFFFFFFFFFFFFFFFFFFFF0
FFFFFFFFFFFFFFFFFFFFFFFFFFF0
FFFFFFFFFFFFFFFFFFFFFFFFFFF0
FFFFFFFFFFFFFFFFFFFFFFFFFFF0
FFFFFFFFFFFFFFFFFFFFFFFFFFF0
FFFFFFFFFFFFFFFFFFFFFFFFFFF0
FFFFFFFFFFFFFFFFFFFFFFFFFFF0
FFFFFFFFFFFFFFFFFFFFFFFFFFF0
FFFFFFFFFFFFFFFFFFFFFFFFFFF0
FFFFFC0000000000000000000000
FFFFFC0000000000000000000000
FFFFFC0000000000000000000000
FFFFFC0000000000000000000000
FFFFFC0000000000000000000000
FFFFFC0000000000000000000000
FFFFFC0000000000000000000000
FFFFFC0000000000000000000000
FFFFFC0000000000000000000000
FFFFFC0000000000000000000000
FFFFFC0000000000000000000000
FFFFFC0000000000000000000000
FFFFFC0000000000000000000000
FFFFFC0000000000000000000000
FFFFFC0000000000000000000000
FFFFFC0000000000000000000000
FFFFFC0000000000000000000000
FFFFFC0000000000000000000000
FFFFFC0000000000000000000000
FFFFFC0000000000000000000000
FFFFFC0000000000000000000000
FFFFFC0000000000000000000000
FFFFFC0000000000000000000000
FFFFFC0000000000000000000000
FFFFFC0000000000000000000000
FFFFFC0000000000000000000000
FFFFFC0000000000000000000000
FFFFFC0000000000000000000000
FFFFFC0000000000000000000000
FFFFFC0000000000000000000000
FFFFFC0000000000000000000000
FFFFFC0000000000000000000000
FFFFFC0000000000000000000000
FFFFFC0000000000000000000000
FFFFFC0000000000000000000000
FFFFFC0000000000000000000000
FFFFFC0000000000000000000000
FFFFFC0000000000000000000000
FFFFFC0000000000000000000000
FFFFFC0000000000000000000000
FFFFFC0000000000000000000000
FFFFFC0000000000000000000000
FFFFFC0000000000000000000000
FFFFFC0000000000000000000000
FFFFFC0000000000000000000000
FFFFFC0000000000000000000000
FFFFFC0000000000000000000000
FFFFFC0000000000000000000000
FFFFFC0000000000000000000000
FFFFFC0000000000000000000000
FFFFFC0000000000000000000000
ENDCHAR
STARTCHAR 0047
ENCODING 71
SWIDTH 694 0
DWIDTH 125 0
BBX 108 125 1 0
BITMAP
00007FFFFFFFFFFFFFFFFFFFFFF0
0003FFFFFFFFFFFFFFFFFFFFFFF0
000FFFFFFFFFFFFFFFFFFFFFFFF0
003FFFFFFFFFFFFFFFFFFFFFFFF0
007FFFFFFFFFFFFFFFFFFFFFFFF0
00FFFFFFFFFFFFFFFFFFFFFFFFF0
03FFFFFFFFFFFFFFFFFFFFFFFFF0
03FFFFFFFFFFFFFFFFFFFFFFFFF0
07FFFFFFFFFFFFFFFFFFFFFFFFF0
0FFFFFFFFFFFFFFFFFFFFFFFFFF0
1FFFFFFFFFFFFFFFFFFFFFFFFFF0
1FFFFFFFFFFFFFFFFFFFFFFFFFF0
3FFFFFFFFFFFFFFFFFFFFFFFFFF0
3FFFFFFFFFFFFFFFFFFFFFFFFFF0
7FFFFFFFFFFFFFFFFFFFFFFFFFF0
7FFFFFFFFFFFFFFFFFFFFFFFFFF0
7FFFFFFFFFFFFFFFFFFFFFFFFFF0
FFFFFFFFFFFFFFFFFFFFFFFFFFF0
FFFFFFFFFFFFFFFFFFFFFFFFFFF0
FFFFFFFFFFFFFFFFFFFFFFFFFFF0
FFFFFFFFFFFFFFFFFFFFFFFFFFF0
FFFFFFFFFFFFFFFFFFFFFFFFFFF0
FFFFFC0000000000000000000000
FFFFFC0000000000000000000000
FFFFFC0000000000000000000000
FFFFFC0000000000000000000000
FFFFFC0000000000000000000000
FFFFFC0000000000000000000000
FFFFFC0000000000000000000000
FFFFFC0000000000000000000000
FFFFFC0000000000000000000000
FFFFFC0000000000000000000000
FFFFFC0000000000000000000000
FFFFFC0000000000000000000000
FFFFFC0000000000000000000000
FFFFFC0000000000000000000000
FFFFFC0000000000000000000000
FFFFFC0000000000000000000000
FFFFFC0000000000000000000000
FFFFFC0000000000000000000000
FFFFFC0000000000000000000000
FFFFFC0000000000000000000000
FFFFFC0000000000000000000000
FFFFFC0000000000000000000000
FFFFFC0000000000000000000000
FFFFFC0000000000000000000000
FFFFFC0000000000000000000000
FFFFFC0000000000000000000000
FFFFFC0000000000000000000000
FFFFFC0000000000000000000000
FFFFFC0000000000000000000000
FFFFFC0000000000000000000000
FFFFFC000001FFFFFFFFFFFFFFF0
FFFFFC000001FFFFFFFFFFFFFFF0
FFFFFC000001FFFFFFFFFFFFFFF0
FFFFFC000001FFFFFFFFFFFFFFF0
FFFFFC000001FFFFFFFFFFFFFFF0
FFFFFC000001FFFFFFFFFFFFFFF0
FFFFFC000001FFFFFFFFFFFFFFF0
FFFFFC000001FFFFFFFFFFFFFFF0
FFFFFC000001FFFFFFFFFFFFFFF0
FFFFFC000001FFFFFFFFFFFFFFF0
FFFFFC000001FFFFFFFFFFFFFFF0
FFFFFC000001FFFFFFFFFFFFFFF0
FFFFFC000001FFFFFFFFFFFFFFF0
FFFFFC000001FFFFFFFFFFFFFFF0
FFFFFC000001FFFFFFFFFFFFFFF0
FFFFFC000001FFFFFFFFFFFFFFF0
FFFFFC000001FFFFFFFFFFFFFFF0
FFFFFC000001FFFFFFFFFFFFFFF0
FFFFFC000001FFFFFFFFFFFFFFF0
FFFFFC000001FFFFFFFFFFFFFFF0
FFFFFC000001FFFFFFFFFFFFFFF0
FFFFFC000001FFFFFFFFFFFFFFF0
FFFFFC0000000000000003FFFFF0
FFFFFC0000000000000003FFFFF0
FFFFFC0000000000000003FFFFF0
FFFFFC0000000000000003FFFFF0
FFFFFC0000000000000003FFFFF0
FFFFFC0000000000000003FFFFF0
FFFFFC0000000000000003FFFFF0
FFFFFC0000000000000003FFFFF0
FFFFFC0000000000000003FFFFF0
FFFFFC0000000000000003FFFFF0
FFFFFC0000000000000003FFFFF0
FFFFFC0000000000000003FFFFF0
FFFFFC0000000000000003FFFFF0
FFFFFC0000000000000003FFFFF0
FFFFFC0000000000000003FFFFF0
FFFFFC0000000000000003FFFFF0
FFFFFC0000000000000003FFFFF0
FFFFFC0000000000000003FFFFF0
FFFFFC0000000000000003FFFFF0
FFFFFC0000000000000003FFFFF0
FFFFFC0000000000000003FFFFF0
FFFFFC0000000000000003FFFFF0
FFFFFC0000000000000003FFFFF0
FFFFFC0000000000000003FFFFF0
FFFFFC0000000000000003FFFFF0
FFFFFC0000000000000003FFFFF0
FFFFFC0000000000000003FFFFF0
FFFFFC0000000000000003FFFFF0
FFFFFC0000000000000003FFFFF0
FFFFFFFFFFFFFFFFFFFFFFFFFFF0
FFFFFFFFFFFFFFFFFFFFFFFFFFF0
FFFFFFFFFFFFFFFFFFFFFFFFFFF0
FFFFFFFFFFFFFFFFFFFFFFFFFFF0
7FFFFFFFFFFFFFFFFFFFFFFFFFF0
7FFFFFFFFFFFFFFFFFFFFFFFFFF0
7FFFFFFFFFFFFFFFFFFFFFFFFFF0
7FFFFFFFFFFFFFFFFFFFFFFFFFF0
3FFFFFFFFFFFFFFFFFFFFFFFFFF0
3FFFFFFFFFFFFFFFFFFFFFFFFFF0
1FFFFFFFFFFFFFFFFFFFFFFFFFF0
1FFFFFFFFFFFFFFFFFFFFFFFFFF0
0FFFFFFFFFFFFFFFFFFFFFFFFFF0
07FFFFFFFFFFFFFFFFFFFFFFFFF0
03FFFFFFFFFFFFFFFFFFFFFFFFF0
01FFFFFFFFFFFFFFFFFFFFFFFFF0
00FFFFFFFFFFFFFFFFFFFFFFFFF0
007FFFFFFFFFFFFFFFFFFFFFFFF0
003FFFFFFFFFFFFFFFFFFFFFFFF0
000FFFFFFFFFFFFFFFFFFFFFFFF0
0003FFFFFFFFFFFFFFFFFFFFFFF0
00003FFFFFFFFFFFFFFFFFFFFFF0
ENDCHAR
STARTCHAR 0048
ENCODING 72
SWIDTH 700 0
DWIDTH 126 0
BBX 108 125 1 0
BITMAP
FFFFFC0000000000000003FFFFF0
FFFFFC0000000000000003FFFFF0
FFFFFC0000000000000003FFFFF0
FFFFFC0000000000000003FFFFF0
FFFFFC0000000000000003FFFFF0
FFFFFC0000000000000003FFFFF0
FFFFFC0000000000000003FFFFF0
FFFFFC0000000000000003FFFFF0
FFFFFC0000000000000003FFFFF0
FFFFFC0000000000000003FFFFF0
FFFFFC0000000000000003FFFFF0
FFFFFC0000000000000003FFFFF0
FFFFFC0000000000000003FFFFF0
FFFFFC0000000000000003FFFFF0
FFFFFC0000000000000003FFFFF0
FFFFFC0000000000000003FFFFF0
FFFFFC0000000000000003FFFFF0
FFFFFC0000000000000003FFFFF0
FFFFFC0000000000000003FFFFF0
FFFFFC0000000000000003FFFFF0
FFFFFC0000000000000003FFFFF0
FFFFFC0000000000000003FFFFF0
FFFFFC0000000000000003FFFFF0
FFFFFC0000000000000003FFFFF0
FFFFFC0000000000000003FFFFF0
FFFFFC0000000000000003FFFFF0
FFFFFC0000000000000003FFFFF0
FFFFFC0000000000000003FFFFF0
FFFFFC0000000000000003FFFFF0
FFFFFC0000000000000003FFFFF0
FFFFFC0000000000000003FFFFF0
FFFFFC0000000000000003FFFFF0
FFFFFC0000000000000003FFFFF0
FFFFFC0000000000000003FFFFF0
FFFFFC0000000000000003FFFFF0
FFFFFC0000000000000003FFFFF0
FFFFFC0000000000000003FFFFF0
FFFFFC0000000000000003FFFFF0
FFFFFC0000000000000003FFFFF0
FFFFFC0000000000000003FFFFF0
FFFFFC0000000000000003FFFFF0
FFFFFC0000000000000003FFFFF0
FFFFFC0000000000000003FFFFF0
FFFFFC0000000000000003FFFFF0
FFFFFC0000000000000003FFFFF0
FFFFFC0000000000000003FFFFF0
FFFFFC0000000000000003FFFFF0
FFFFFC0000000000000003FFFFF0
FFFFFC0000000000000003FFFFF0
FFFFFC0000000000000003FFFFF0
FFFFFC0000000000000003FFFFF0
FFFFFC0000000000000003FFFFF0
FFFFFFFFFFFFFFFFFFFFFFFFFFF0
FFFFFFFFFFFFFFFFFFFFFFFFFFF0
FFFFFFFFFFFFFFFFFFFFFFFFFFF0
FFFFFFFFFFFFFFFFFFFFFFFFFFF0
FFFFFFFFFFFFFFFFFFFFFFFFFFF0
FFFFFFFFFFFFFFFFFFFFFFFFFFF0
FFFFFFFFFFFFFFFFFFFFFFFFFFF0
FFFFFFFFFFFFFFFFFFFFFFFFFFF0
FFFFFFFFFFFFFFFFFFFFFFFFFFF0
FFFFFFFFFFFFFFFFFFFFFFFFFFF0
FFFFFFFFFFFFFFFFFFFFFFFFFFF0
FFFFFFFFFFFFFFFFFFFFFFFFFFF0
FFFFFFFFFFFFFFFFFFFFFFFFFFF0
FFFFFFFFFFFFFFFFFFFFFFFFFFF0
FFFFFFFFFFFFFFFFFFFFFFFFFFF0
FFFFFFFFFFFFFFFFFFFFFFFFFFF0
FFFFFFFFFFFFFFFFFFFFFFFFFFF0
FFFFFFFFFFFFFFFFFFFFFFFFFFF0
FFFFFFFFFFFFFFFFFFFFFFFFFFF0
FFFFFFFFFFFFFFFFFFFFFFFFFFF0
FFFFFFFFFFFFFFFFFFFFFFFFFFF0
FFFFFFFFFFFFFFFFFFFFFFFFFFF0
FFFFFC0000000000000003FFFFF0
FFFFFC0000000000000003FFFFF0
FFFFFC0000000000000003FFFFF0
FFFFFC0000000000000003FFFFF0
FFFFFC0000000000000003FFFFF0
FFFFFC0000000000000003FFFFF0
FFFFFC0000000000000003FFFFF0
FFFFFC0000000000000003FFFFF0
FFFFFC0000000000000003FFFFF0
FFFFFC0000000000000003FFFFF0
FFFFFC0000000000000003FFFFF0
FFFFFC0000000000000003FFFFF0
FFFFFC0000000000000003FFFFF0
FFFFFC0000000000000003FFFFF0
FFFFFC0000000000000003FFFFF0
FFFFFC0000000000000003FFFFF0
FFFFFC0000000000000003FFFFF0
FFFFFC0000000000000003FFFFF0
FFFFFC0000000000000003FFFFF0
FFFFFC0000000000000003FFFFF0
FFFFFC0000000000000003FFFFF0
FFFFFC0000000000000003FFFFF0
FFFFFC0000000000000003FFFFF0
FFFFFC0000000000000003FFFFF0
FFFFFC0000000000000003FFFFF0
FFFFFC0000000000000003FFFFF0
FFFFFC0000000000000003FFFFF0
FFFFFC0000000000000003FFFFF0
FFFFFC0000000000000003FFFFF0
FFFFFC0000000000000003FFFFF0
FFFFFC0000000000000003FFFFF0
FFFFFC0000000000000003FFFFF0
FFFFFC0000000000000003FFFFF0
FFFFFC0000000000000003FFFFF0
FFFFFC0000000000000003FFFFF0
FFFFFC0000000000000003FFFFF0
FFFFFC0000000000000003FFFFF0
FFFFFC0000000000000003FFFFF0
FFFFFC0000000000000003FFFFF0
FFFFFC0000000000000003FFFFF0
FFFFFC0000000000000003FFFFF0
FFFFFC0000000000000003FFFFF0
FFFFFC0000000000000003FFFFF0
FFFFFC0000000000000003FFFFF0
FFFFFC0000000000000003FFFFF0
FFFFFC0000000000000003FFFFF0
FFFFFC0000000000000003FFFFF0
FFFFFC0000000000000003FFFFF0
FFFFFC0000000000000003FFFFF0
FFFFFC0000000000000003FFFFF0
FFFFFC0000000000000003FFFFF0
ENDCHAR
STARTCHAR 0049
ENCODING 73
SWIDTH 577 0
DWIDTH 104 0
BBX 90 125 1 0
BITMAP
FFFFFFFFFFFFFFFFFFFFFFC0
FFFFFFFFFFFFFFFFFFFFFFC0
FFFFFFFFFFFFFFFFFFFFFFC0
FFFFFFFFFFFFFFFFFFFFFFC0
FFFFFFFFFFFFFFFFFFFFFFC0
FFFFFFFFFFFFFFFFFFFFFFC0
FFFFFFFFFFFFFFFFFFFFFFC0
FFFFFFFFFFFFFFFFFFFFFFC0
FFFFFFFFFFFFFFFFFFFFFFC0
FFFFFFFFFFFFFFFFFFFFFFC0
FFFFFFFFFFFFFFFFFFFFFFC0
FFFFFFFFFFFFFFFFFFFFFFC0
FFFFFFFFFFFFFFFFFFFFFFC0
FFFFFFFFFFFFFFFFFFFFFFC0
FFFFFFFFFFFFFFFFFFFFFFC0
FFFFFFFFFFFFFFFFFFFFFFC0
FFFFFFFFFFFFFFFFFFFFFFC0
FFFFFFFFFFFFFFFFFFFFFFC0
FFFFFFFFFFFFFFFFFFFFFFC0
FFFFFFFFFFFFFFFFFFFFFFC0
FFFFFFFFFFFFFFFFFFFFFFC0
FFFFFFFFFFFFFFFFFFFFFFC0
000000003FFFFF0000000000
000000003FFFFF0000000000
000000003FFFFF0000000000
000000003FFFFF0000000000
000000003FFFFF0000000000
000000003FFFFF0000000000
000000003FFFFF0000000000
000000003FFFFF0000000000
000000003FFFFF0000000000
000000003FFFFF0000000000
000000003FFFFF0000000000
000000003FFFFF0000000000
000000003FFFFF0000000000
000000003FFFFF0000000000
000000003FFFFF0000000000
000000003FFFFF0000000000
000000003FFFFF0000000000
000000003FFFFF0000000000
000000003FFFFF0000000000
000000003FFFFF0000000000
000000003FFFFF0000000000
000000003FFFFF0000000000
000000003FFFFF0000000000
000000003FFFFF0000000000
000000003FFFFF0000000000
000000003FFFFF0000000000
000000003FFFFF0000000000
000000003FFFFF0000000000
000000003FFFFF0000000000
000000003FFFFF0000000000
000000003FFFFF0000000000
000000003FFFFF0000000000
000000003FFFFF0000000000
000000003FFFFF0000000000
000000003FFFFF0000000000
000000003FFFFF0000000000
000000003FFFFF0000000000
000000003FFFFF0000000000
000000003FFFFF0000000000
000000003FFFFF0000000000
000000003FFFFF0000000000
000000003FFFFF0000000000
000000003FFFFF0000000000
000000003FFFFF0000000000
000000003FFFFF0000000000
000000003FFFFF0000000000
000000003FFFFF0000000000
000000003FFFFF0000000000
000000003FFFFF0000000000
000000003FFFFF0000000000
000000003FFFFF0000000000
000000003FFFFF0000000000
000000003FFFFF0000000000
000000003FFFFF0000000000
000000003FFFFF0000000000
000000003FFFFF0000000000
000000003FFFFF0000000000
000000003FFFFF0000000000
000000003FFFFF0000000000
000000003FFFFF0000000000
000000003FFFFF0000000000
000000003FFFFF0000000000
000000003FFFFF0000000000
000000003FFFFF0000000000
000000003FFFFF0000000000
000000003FFFFF0000000000
000000003FFFFF0000000000
000000003FFFFF0000000000
000000003FFFFF0000000000
000000003FFFFF0000000000
000000003FFFFF0000000000
000000003FFFFF0000000000
000000003FFFFF0000000000
000000003FFFFF0000000000
000000003FFFFF0000000000
000000003FFFFF0000000000
000000003FFFFF0000000000
000000003FFFFF0000000000
000000003FFFFF0000000000
000000003FFFFF0000000000
000000003FFFFF0000000000
FFFFFFFFFFFFFFFFFFFFFFC0
FFFFFFFFFFFFFFFFFFFFFFC0
FFFFFFFFFFFFFFFFFFFFFFC0
FFFFFFFFFFFFFFFFFFFFFFC0
FFFFFFFFFFFFFFFFFFFFFFC0
FFFFFFFFFFFFFFFFFFFFFFC0
FFFFFFFFFFFFFFFFFFFFFFC0
FFFFFFFFFFFFFFFFFFFFFFC0
FFFFFFFFFFFFFFFFFFFFFFC0
FFFFFFFFFFFFFFFFFFFFFFC0
FFFFFFFFFFFFFFFFFFFFFFC0
FFFFFFFFFFFFFFFFFFFFFFC0
FFFFFFFFFFFFFFFFFFFFFFC0
FFFFFFFFFFFFFFFFFFFFFFC0
FFFFFFFFFFFFFFFFFFFFFFC0
FFFFFFFFFFFFFFFFFFFFFFC0
FFFFFFFFFFFFFFFFFFFFFFC0
FFFFFFFFFFFFFFFFFFFFFFC0
FFFFFFFFFFFFFFFFFFFFFFC0
FFFFFFFFFFFFFFFFFFFFFFC0
FFFFFFFFFFFFFFFFFFFFFFC0
FFFFFFFFFFFFFFFFFFFFFFC0
ENDCHAR
STARTCHAR 004A
ENCODING 74
SWIDTH 700 0
DWIDTH 126 0
BBX 108 125 1 0
BITMAP
000000000000000000001FFFFFF0
000000000000000000001FFFFFF0
000000000000000000001FFFFFF0
000000000000000000001FFFFFF0
000000000000000000001FFFFFF0
000000000000000000001FFFFFF0
000000000000000000001FFFFFF0
000000000000000000001FFFFFF0
000000000000000000001FFFFFF0
000000000000000000001FFFFFF0
000000000000000000001FFFFFF0
000000000000000000001FFFFFF0
000000000000000000001FFFFFF0
000000000000000000001FFFFFF0
000000000000000000001FFFFFF0
000000000000000000001FFFFFF0
000000000000000000001FFFFFF0
000000000000000000001FFFFFF0
000000000000000000001FFFFFF0
000000000000000000001FFFFFF0
000000000000000000001FFFFFF0
000000000000000000001FFFFFF0
000000000000000000001FFFFFF0
000000000000000000001FFFFFF0
000000000000000000001FFFFFF0
000000000000000000001FFFFFF0
000000000000000000001FFFFFF0
000000000000000000001FFFFFF0
000000000000000000001FFFFFF0
000000000000000000001FFFFFF0
000000000000000000001FFFFFF0
000000000000000000001FFFFFF0
000000000000000000001FFFFFF0
000000000000000000001FFFFFF0
000000000000000000001FFFFFF0
000000000000000000001FFFFFF0
000000000000000000001FFFFFF0
000000000000000000001FFFFFF0
000000000000000000001FFFFFF0
000000000000000000001FFFFFF0
000000000000000000001FFFFFF0
000000000000000000001FFFFFF0
000000000000000000001FFFFFF0
000000000000000000001FFFFFF0
000000000000000000001FFFFFF0
000000000000000000001FFFFFF0
000000000000000000001FFFFFF0
000000000000000000001FFFFFF0
000000000000000000001FFFFFF0
000000000000000000001FFFFFF0
000000000000000000001FFFFFF0
000000000000000000001FFFFFF0
000000000000000000001FFFFFF0
000000000000000000001FFFFFF0
000000000000000000001FFFFFF0
000000000000000000001FFFFFF0
000000000000000000001FFFFFF0
000000000000000000001FFFFFF0
000000000000000000001FFFFFF0
000000000000000000001FFFFFF0
000000000000000000001FFFFFF0
000000000000000000001FFFFFF0
000000000000000000001FFFFFF0
000000000000000000001FFFFFF0
000000000000000000001FFFFFF0
000000000000000000001FFFFFF0
000000000000000000001FFFFFF0
000000000000000000001FFFFFF0
000000000000000000001FFFFFF0
000000000000000000001FFFFFF0
000000000000000000001FFFFFF0
000000000000000000001FFFFFF0
FFFFFF800000000000001FFFFFF0
FFFFFF800000000000001FFFFFF0
FFFFFF800000000000001FFFFFF0
FFFFFF800000000000001FFFFFF0
FFFFFF800000000000001FFFFFF0
FFFFFF800000000000001FFFFFF0
FFFFFF800000000000001FFFFFF0
FFFFFF800000000000001FFFFFF0
FFFFFF800000000000001FFFFFF0
FFFFFF800000000000001FFFFFF0
FFFFFF800000000000001FFFFFF0
FFFFFF800000000000001FFFFFF0
FFFFFF800000000000001FFFFFF0
FFFFFF800000000000001FFFFFF0
FFFFFF800000000000001FFFFFF0
FFFFFF800000000000001FFFFFF0
FFFFFF800000000000001FFFFFF0
FFFFFF800000000000001FFFFFF0
FFFFFF800000000000001FFFFFF0
FFFFFF800000000000001FFFFFF0
FFFFFF800000000000001FFFFFF0
FFFFFF800000000000001FFFFFF0
FFFFFF800000000000001FFFFFF0
FFFFFF800000000000001FFFFFF0
FFFFFF800000000000001FFFFFF0
FFFFFF800000000000001FFFFFF0
FFFFFF800000000000001FFFFFF0
FFFFFF800000000000001FFFFFF0
FFFFFFFFFFFFFFFFFFFFFFFFFFF0
FFFFFFFFFFFFFFFFFFFFFFFFFFF0
FFFFFFFFFFFFFFFFFFFFFFFFFFF0
FFFFFFFFFFFFFFFFFFFFFFFFFFF0
FFFFFFFFFFFFFFFFFFFFFFFFFFF0
FFFFFFFFFFFFFFFFFFFFFFFFFFF0
FFFFFFFFFFFFFFFFFFFFFFFFFFF0
7FFFFFFFFFFFFFFFFFFFFFFFFFE0
7FFFFFFFFFFFFFFFFFFFFFFFFFE0
7FFFFFFFFFFFFFFFFFFFFFFFFFE0
7FFFFFFFFFFFFFFFFFFFFFFFFFE0
3FFFFFFFFFFFFFFFFFFFFFFFFFC0
3FFFFFFFFFFFFFFFFFFFFFFFFFC0
1FFFFFFFFFFFFFFFFFFFFFFFFF80
1FFFFFFFFFFFFFFFFFFFFFFFFF80
0FFFFFFFFFFFFFFFFFFFFFFFFF00
07FFFFFFFFFFFFFFFFFFFFFFFE00
03FFFFFFFFFFFFFFFFFFFFFFFC00
01FFFFFFFFFFFFFFFFFFFFFFF800
00FFFFFFFFFFFFFFFFFFFFFFF000
007FFFFFFFFFFFFFFFFFFFFFE000
003FFFFFFFFFFFFFFFFFFFFFC000
000FFFFFFFFFFFFFFFFFFFFF0000
0003FFFFFFFFFFFFFFFFFFFC0000
00003FFFFFFFFFFFFFFFFFE00000
ENDCHAR
STARTCHAR 004B
ENCODING 75
SWIDTH 677 0
DWIDTH 122 0
BBX 108 125 1 0
BITMAP
FFFFFC000000000000003FFFFFF0
FFFFFC000000000000003FFFFFE0
FFFFFC000000000000007FFFFFC0
FFFFFC00000000000000FFFFFFC0
FFFFFC00000000000001FFFFFF80
FFFFFC00000000000001FFFFFF00
FFFFFC00000000000003FFFFFE00
FFFFFC00000000000007FFFFFC00
FFFFFC0000000000000FFFFFFC00
FFFFFC0000000000001FFFFFF800
FFFFFC0000000000001FFFFFF000
FFFFFC0000000000003FFFFFE000
FFFFFC0000000000007FFFFFE000
FFFFFC000000000000FFFFFFC000
FFFFFC000000000000FFFFFF8000
FFFFFC000000000001FFFFFF0000
FFFFFC000000000003FFFFFE0000
FFFFFC000000000007FFFFFE0000
FFFFFC00000000000FFFFFFC0000
FFFFFC00000000000FFFFFF80000
FFFFFC00000000001FFFFFF00000
FFFFFC00000000003FFFFFE00000
FFFFFC00000000007FFFFFE00000
FFFFFC00000000007FFFFFC00000
FFFFFC0000000000FFFFFF800000
FFFFFC0000000001FFFFFF000000
FFFFFC0000000003FFFFFF000000
FFFFFC0000000007FFFFFE000000
FFFFFC0000000007FFFFFC000000
FFFFFC000000000FFFFFF8000000
FFFFFC000000001FFFFFF0000000
FFFFFC000000003FFFFFF0000000
FFFFFC000000003FFFFFE0000000
FFFFFC000000007FFFFFC0000000
FFFFFC00000000FFFFFF80000000
FFFFFC00000001FFFFFF80000000
FFFFFC00000003FFFFFF00000000
FFFFFC00000003FFFFFE00000000
FFFFFC00000007FFFFFC00000000
FFFFFC0000000FFFFFF800000000
FFFFFC0000001FFFFFF800000000
FFFFFC0000001FFFFFF000000000
FFFFFC0000003FFFFFE000000000
FFFFFC0000007FFFFFC000000000
FFFFFC000000FFFFFFC000000000
FFFFFC000001FFFFFF8000000000
FFFFFC000001FFFFFF0000000000
FFFFFC000003FFFFFE0000000000
FFFFFC000007FFFFFC0000000000
FFFFFC00000FFFFFFC0000000000
FFFFFC00000FFFFFF80000000000
FFFFFC00001FFFFFF00000000000
FFFFFFFFFFFFFFFFE00000000000
FFFFFFFFFFFFFFFFE00000000000
FFFFFFFFFFFFFFFFC00000000000
FFFFFFFFFFFFFFFF800000000000
FFFFFFFFFFFFFFFF000000000000
FFFFFFFFFFFFFFFE000000000000
FFFFFFFFFFFFFFFE000000000000
FFFFFFFFFFFFFFFC000000000000
FFFFFFFFFFFFFFF8000000000000
FFFFFFFFFFFFFFF0000000000000
FFFFFFFFFFFFFFF0000000000000
FFFFFFFFFFFFFFF0000000000000
FFFFFFFFFFFFFFF0000000000000
FFFFFFFFFFFFFFF8000000000000
FFFFFFFFFFFFFFFC000000000000
FFFFFFFFFFFFFFFE000000000000
FFFFFFFFFFFFFFFF000000000000
FFFFFFFFFFFFFFFF000000000000
FFFFFFFFFFFFFFFF800000000000
FFFFFFFFFFFFFFFFC00000000000
FFFFFFFFFFFFFFFFE00000000000
FFFFFFFFFFFFFFFFF00000000000
FFFFFC00001FFFFFF00000000000
FFFFFC00000FFFFFF80000000000
FFFFFC00000FFFFFFC0000000000
FFFFFC000007FFFFFE0000000000
FFFFFC000003FFFFFE0000000000
FFFFFC000001FFFFFF0000000000
FFFFFC000000FFFFFF8000000000
FFFFFC000000FFFFFFC000000000
FFFFFC0000007FFFFFE000000000
FFFFFC0000003FFFFFE000000000
FFFFFC0000001FFFFFF000000000
FFFFFC0000000FFFFFF800000000
FFFFFC0000000FFFFFFC00000000
FFFFFC00000007FFFFFE00000000
FFFFFC00000003FFFFFE00000000
FFFFFC00000001FFFFFF00000000
FFFFFC00000000FFFFFF80000000
FFFFFC00000000FFFFFFC0000000
FFFFFC000000007FFFFFE0000000
FFFFFC000000003FFFFFE0000000
FFFFFC000000001FFFFFF0000000
FFFFFC000000001FFFFFF8000000
FFFFFC000000000FFFFFFC000000
FFFFFC0000000007FFFFFE000000
FFFFFC0000000003FFFFFE000000
FFFFFC0000000001FFFFFF000000
FFFFFC0000000001FFFFFF800000
FFFFFC0000000000FFFFFFC00000
FFFFFC00000000007FFFFFE00000
FFFFFC00000000003FFFFFE00000
FFFFFC00000000001FFFFFF00000
FFFFFC00000000001FFFFFF80000
FFFFFC00000000000FFFFFFC0000
FFFFFC000000000007FFFFFE0000
FFFFFC000000000003FFFFFE0000
FFFFFC000000000001FFFFFF0000
FFFFFC000000000001FFFFFF8000
FFFFFC000000000000FFFFFFC000
FFFFFC0000000000007FFFFFC000
FFFFFC0000000000003FFFFFE000
FFFFFC0000000000001FFFFFF000
FFFFFC0000000000001FFFFFF800
FFFFFC0000000000000FFFFFFC00
FFFFFC00000000000007FFFFFC00
FFFFFC00000000000003FFFFFE00
FFFFFC00000000000001FFFFFF00
FFFFFC00000000000001FFFFFF80
FFFFFC00000000000000FFFFFFC0
FFFFFC000000000000007FFFFFC0
FFFFFC000000000000003FFFFFE0
FFFFFC000000000000003FFFFFF0
ENDCHAR
STARTCHAR 004C
ENCODING 76
SWIDTH 550 0
DWIDTH 99 0
BBX 90 125 1 0
BITMAP
FFFFFF800000000000000000
FFFFFF800000000000000000
FFFFFF800000000000000000
FFFFFF800000000000000000
FFFFFF800000000000000000
FFFFFF800000000000000000
FFFFFF800000000000000000
FFFFFF800000000000000000
FFFFFF800000000000000000
FFFFFF800000000000000000
FFFFFF800000000000000000
FFFFFF800000000000000000
FFFFFF800000000000000000
FFFFFF800000000000000000
FFFFFF800000000000000000
FFFFFF800000000000000000
FFFFFF800000000000000000
FFFFFF800000000000000000
FFFFFF800000000000000000
FFFFFF800000000000000000
FFFFFF800000000000000000
FFFFFF800000000000000000
FFFFFF800000000000000000
FFFFFF800000000000000000
FFFFFF800000000000000000
FFFFFF800000000000000000
FFFFFF800000000000000000
FFFFFF800000000000000000
FFFFFF800000000000000000
FFFFFF800000000000000000
FFFFFF800000000000000000
FFFFFF800000000000000000
FFFFFF800000000000000000
FFFFFF800000000000000000
FFFFFF800000000000000000
FFFFFF800000000000000000
FFFFFF800000000000000000
FFFFFF800000000000000000
FFFFFF800000000000000000
FFFFFF800000000000000000
FFFFFF800000000000000000
FFFFFF800000000000000000
FFFFFF800000000000000000
FFFFFF800000000000000000
FFFFFF800000000000000000
FFFFFF800000000000000000
FFFFFF800000000000000000
FFFFFF800000000000000000
FFFFFF800000000000000000
FFFFFF800000000000000000
FFFFFF800000000000000000
FFFFFF800000000000000000
FFFFFF800000000000000000
FFFFFF800000000000000000
FFFFFF800000000000000000
FFFFFF800000000000000000
FFFFFF800000000000000000
FFFFFF800000000000000000
FFFFFF800000000000000000
FFFFFF800000000000000000
FFFFFF800000000000000000
FFFFFF800000000000000000
FFFFFF800000000000000000
FFFFFF800000000000000000
FFFFFF800000000000000000
FFFFFF800000000000000000
FFFFFF800000000000000000
FFFFFF800000000000000000
FFFFFF800000000000000000
FFFFFF800000000000000000
FFFFFF800000000000000000
FFFFFF800000000000000000
FFFFFF800000000000000000
FFFFFF800000000000000000
FFFFFF800000000000000000
FFFFFF800000000000000000
FFFFFF800000000000000000
FFFFFF800000000000000000
FFFFFF800000000000000000
FFFFFF800000000000000000
FFFFFF800000000000000000
FFFFFF800000000000000000
FFFFFF800000000000000000
FFFFFF800000000000000000
FFFFFF800000000000000000
FFFFFF800000000000000000
FFFFFF800000000000000000
FFFFFF800000000000000000
FFFFFF800000000000000000
FFFFFF800000000000000000
FFFFFF800000000000000000
FFFFFF800000000000000000
FFFFFF800000000000000000
FFFFFF800000000000000000
FFFFFF800000000000000000
FFFFFF800000000000000000
FFFFFF800000000000000000
FFFFFF800000000000000000
FFFFFF800000000000000000
FFFFFF800000000000000000
FFFFFFFFFFFFFFFFFFFFFFC0
FFFFFFFFFFFFFFFFFFFFFFC0
FFFFFFFFFFFFFFFFFFFFFFC0
FFFFFFFFFFFFFFFFFFFFFFC0
FFFFFFFFFFFFFFFFFFFFFFC0
FFFFFFFFFFFFFFFFFFFFFFC0
FFFFFFFFFFFFFFFFFFFFFFC0
7FFFFFFFFFFFFFFFFFFFFFC0
7FFFFFFFFFFFFFFFFFFFFFC0
7FFFFFFFFFFFFFFFFFFFFFC0
7FFFFFFFFFFFFFFFFFFFFFC0
3FFFFFFFFFFFFFFFFFFFFFC0
3FFFFFFFFFFFFFFFFFFFFFC0
1FFFFFFFFFFFFFFFFFFFFFC0
1FFFFFFFFFFFFFFFFFFFFFC0
0FFFFFFFFFFFFFFFFFFFFFC0
07FFFFFFFFFFFFFFFFFFFFC0
03FFFFFFFFFFFFFFFFFFFFC0
01FFFFFFFFFFFFFFFFFFFFC0
00FFFFFFFFFFFFFFFFFFFFC0
007FFFFFFFFFFFFFFFFFFFC0
003FFFFFFFFFFFFFFFFFFFC0
000FFFFFFFFFFFFFFFFFFFC0
0003FFFFFFFFFFFFFFFFFFC0
00003FFFFFFFFFFFFFFFFFC0
ENDCHAR
STARTCHAR 004D
ENCODING 77
SWIDTH 894 0
DWIDTH 161 0
BBX 144 125 1 0
BITMAP
00003FFFFFFFFFF000003FFFFFFFFFFE0000
0003FFFFFFFFFFFE0003FFFFFFFFFFFFC000
000FFFFFFFFFFFFF800FFFFFFFFFFFFFF000
003FFFFFFFFFFFFFE03FFFFFFFFFFFFFFC00
007FFFFFFFFFFFFFF07FFFFFFFFFFFFFFE00
00FFFFFFFFFFFFFFF8FFFFFFFFFFFFFFFF80
01FFFFFFFFFFFFFFFDFFFFFFFFFFFFFFFFC0
03FFFFFFFFFFFFFFFFFFFFFFFFFFFFFFFFE0
07FFFFFFFFFFFFFFFFFFFFFFFFFFFFFFFFE0
0FFFFFFFFFFFFFFFFFFFFFFFFFFFFFFFFFF0
1FFFFFFFFFFFFFFFFFFFFFFFFFFFFFFFFFF8
1FFFFFFFFFFFFFFFFFFFFFFFFFFFFFFFFFF8
3FFFFFFFFFFFFFFFFFFFFFFFFFFFFFFFFFFC
3FFFFFFFFFFFFFFFFFFFFFFFFFFFFFFFFFFC
7FFFFFFFFFFFFFFFFFFFFFFFFFFFFFFFFFFE
7FFFFFFFFFFFFFFFFFFFFFFFFFFFFFFFFFFE
7FFFFFFFFFFFFFFFFFFFFFFFFFFFFFFFFFFE
FFFFFFFFFFFFFFFFFFFFFFFFFFFFFFFFFFFE
FFFFFFFFFFFFFFFFFFFFFFFFFFFFFFFFFFFF
FFFFFFFFFFFFFFFFFFFFFFFFFFFFFFFFFFFF
FFFFFFFFFFFFFFFFFFFFFFFFFFFFFFFFFFFF
FFFFFFFFFFFFFFFFFFFFFFFFFFFFFFFFFFFF
FFFFFFFFFFFFFFFFFFFFFFFFFFFFFFFFFFFF
FFFFFFFFFFFFFFFFFFFFFFFFFFFFFFFFFFFF
FFFFFFFFFFFFFFFFFFFFFFFFFFFFFFFFFFFF
FFFFFC000000000FFFFFC0000000003FFFFF
FFFFFC000000000FFFFFC0000000003FFFFF
FFFFFC000000000FFFFFC0000000003FFFFF
FFFFFC000000000FFFFFC0000000003FFFFF
FFFFFC000000000FFFFFC0000000003FFFFF
FFFFFC000000000FFFFFC0000000003FFFFF
FFFFFC000000000FFFFFC0000000003FFFFF
FFFFFC000000000FFFFFC0000000003FFFFF
FFFFFC000000000FFFFFC0000000003FFFFF
FFFFFC000000000FFFFFC0000000003FFFFF
FFFFFC000000000FFFFFC0000000003FFFFF
FFFFFC000000000FFFFFC0000000003FFFFF
FFFFFC000000000FFFFFC0000000003FFFFF
FFFFFC000000000FFFFFC0000000003FFFFF
FFFFFC000000000FFFFFC0000000003FFFFF
FFFFFC000000000FFFFFC0000000003FFFFF
FFFFFC000000000FFFFFC0000000003FFFFF
FFFFFC000000000FFFFFC0000000003FFFFF
FFFFFC000000000FFFFFC0000000003FFFFF
FFFFFC000000000FFFFFC0000000003FFFFF
FFFFFC000000000FFFFFC0000000003FFFFF
FFFFFC000000000FFFFFC0000000003FFFFF
FFFFFC000000000FFFFFC0000000003FFFFF
FFFFFC000000000FFFFFC0000000003FFFFF
FFFFFC000000000FFFFFC0000000003FFFFF
FFFFFC000000000FFFFFC0000000003FFFFF
FFFFFC000000000FFFFFC0000000003FFFFF
FFFFFC000000000FFFFFC0000000003FFFFF
FFFFFC000000000FFFFFC0000000003FFFFF
FFFFFC000000000FFFFFC0000000003FFFFF
FFFFFC000000000FFFFFC0000000003FFFFF
FFFFFC000000000FFFFFC0000000003FFFFF
FFFFFC000000000FFFFFC0000000003FFFFF
FFFFFC000000000FFFFFC0000000003FFFFF
FFFFFC000000000FFFFFC0000000003FFFFF
FFFFFC000000000FFFFFC0000000003FFFFF
FFFFFC000000000FFFFFC0000000003FFFFF
FFFFFC000000000FFFFFC0000000003FFFFF
FFFFFC000000000FFFFFC0000000003FFFFF
FFFFFC000000000FFFFFC0000000003FFFFF
FFFFFC000000000FFFFFC0000000003FFFFF
FFFFFC000000000FFFFFC0000000003FFFFF
FFFFFC000000000FFFFFC0000000003FFFFF
FFFFFC000000000FFFFFC0000000003FFFFF
FFFFFC000000000FFFFFC0000000003FFFFF
FFFFFC000000000FFFFFC0000000003FFFFF
FFFFFC000000000FFFFFC0000000003FFFFF
FFFFFC000000000FFFFFC0000000003FFFFF
FFFFFC000000000FFFFFC0000000003FFFFF
FFFFFC000000000FFFFFC0000000003FFFFF
FFFFFC000000000FFFFFC0000000003FFFFF
FFFFFC000000000FFFFFC0000000003FFFFF
FFFFFC000000000FFFFFC0000000003FFFFF
FFFFFC000000000FFFFFC0000000003FFFFF
FFFFFC000000000FFFFFC0000000003FFFFF
FFFFFC000000000FFFFFC0000000003FFFFF
FFFFFC000000000FFFFFC0000000003FFFFF
FFFFFC000000000FFFFFC0000000003FFFFF
FFFFFC000000000FFFFFC0000000003FFFFF
FFFFFC000000000FFFFFC0000000003FFFFF
FFFFFC000000000FFFFFC0000000003FFFFF
FFFFFC000000000FFFFFC0000000003FFFFF
FFFFFC000000000FFFFFC0000000003FFFFF
FFFFFC000000000FFFFFC0000000003FFFFF
FFFFFC000000000FFFFFC0000000003FFFFF
FFFFFC000000000FFFFFC0000000003FFFFF
FFFFFC000000000FFFFFC0000000003FFFFF
FFFFFC000000000FFFFFC0000000003FFFFF
FFFFFC000000000FFFFFC0000000003FFFFF
FFFFFC000000000FFFFFC0000000003FFFFF
FFFFFC000000000FFFFFC0000000003FFFFF
FFFFFC000000000FFFFFC0000000003FFFFF
FFFFFC000000000FFFFFC0000000003FFFFF
FFFFFC000000000FFFFFC0000000003FFFFF
FFFFFC000000000FFFFFC0000000003FFFFF
FFFFFC000000000FFFFFC0000000003FFFFF
FFFFFC000000000FFFFFC0000000003FFFFF
FFFFFC000000000FFFFFC0000000003FFFFF
FFFFFC000000000FFFFFC0000000003FFFFF
FFFFFC000000000FFFFFC0000000003FFFFF
FFFFFC000000000FFFFFC0000000003FFFFF
FFFFFC000000000FFFFFC0000000003FFFFF
FFFFFC000000000FFFFFC0000000003FFFFF
FFFFFC000000000FFFFFC0000000003FFFFF
FFFFFC000000000FFFFFC0000000003FFFFF
FFFFFC000000000FFFFFC0000000003FFFFF
FFFFFC000000000FFFFFC0000000003FFFFF
FFFFFC000000000FFFFFC0000000003FFFFF
FFFFFC000000000FFFFFC0000000003FFFFF
FFFFFC000000000FFFFFC0000000003FFFFF
FFFFFC000000000FFFFFC0000000003FFFFF
FFFFFC000000000FFFFFC0000000003FFFFF
FFFFFC000000000FFFFFC0000000003FFFFF
FFFFFC000000000FFFFFC0000000003FFFFF
FFFFFC000000000FFFFFC0000000003FFFFF
FFFFFC000000000FFFFFC0000000003FFFFF
FFFFFC000000000FFFFFC0000000003FFFFF
FFFFFC000000000FFFFFC0000000003FFFFF
FFFFFC000000000FFFFFC0000000003FFFFF
FFFFFC000000000FFFFFC0000000003FFFFF
ENDCHAR
STARTCHAR 004E
ENCODING 78
SWIDTH 700 0
DWIDTH 126 0
BBX 108 125 1 0
BITMAP
FFFFFE0000000000000003FFFFF0
FFFFFF0000000000000003FFFFF0
FFFFFF0000000000000003FFFFF0
FFFFFF8000000000000003FFFFF0
FFFFFFC000000000000003FFFFF0
FFFFFFE000000000000003FFFFF0
FFFFFFE000000000000003FFFFF0
FFFFFFF000000000000003FFFFF0
FFFFFFF800000000000003FFFFF0
FFFFFFFC00000000000003FFFFF0
FFFFFFFC00000000000003FFFFF0
FFFFFFFE00000000000003FFFFF0
FFFFFFFF00000000000003FFFFF0
FFFFFFFF00000000000003FFFFF0
FFFFFFFF80000000000003FFFFF0
FFFFFFFFC0000000000003FFFFF0
FFFFFFFFE0000000000003FFFFF0
FFFFFFFFE0000000000003FFFFF0
FFFFFFFFF0000000000003FFFFF0
FFFFFFFFF8000000000003FFFFF0
FFFFFFFFFC000000000003FFFFF0
FFFFFFFFFC000000000003FFFFF0
FFFFFFFFFE000000000003FFFFF0
FFFFFFFFFF000000000003FFFFF0
FFFFFFFFFF800000000003FFFFF0
FFFFFFFFFF800000000003FFFFF0
FFFFFFFFFFC00000000003FFFFF0
FFFFFFFFFFE00000000003FFFFF0
FFFFFFFFFFF00000000003FFFFF0
FFFFFFFFFFF00000000003FFFFF0
FFFFFFFFFFF80000000003FFFFF0
FFFFFFFFFFFC0000000003FFFFF0
FFFFFFFFFFFE0000000003FFFFF0
FFFFFFFFFFFE0000000003FFFFF0
FFFFFFFFFFFF0000000003FFFFF0
FFFFFFFFFFFF8000000003FFFFF0
FFFFFFFFFFFFC000000003FFFFF0
FFFFFFFFFFFFC000000003FFFFF0
FFFFFFFFFFFFE000000003FFFFF0
FFFFFDFFFFFFF000000003FFFFF0
FFFFFCFFFFFFF800000003FFFFF0
FFFFFC7FFFFFF800000003FFFFF0
FFFFFC7FFFFFFC00000003FFFFF0
FFFFFC3FFFFFFE00000003FFFFF0
FFFFFC1FFFFFFE00000003FFFFF0
FFFFFC0FFFFFFF00000003FFFFF0
FFFFFC0FFFFFFF80000003FFFFF0
FFFFFC07FFFFFFC0000003FFFFF0
FFFFFC03FFFFFFC0000003FFFFF0
FFFFFC01FFFFFFE0000003FFFFF0
FFFFFC01FFFFFFF0000003FFFFF0
FFFFFC00FFFFFFF8000003FFFFF0
FFFFFC007FFFFFF8000003FFFFF0
FFFFFC007FFFFFFC000003FFFFF0
FFFFFC003FFFFFFE000003FFFFF0
FFFFFC001FFFFFFF000003FFFFF0
FFFFFC000FFFFFFF000003FFFFF0
FFFFFC000FFFFFFF800003FFFFF0
FFFFFC0007FFFFFFC00003FFFFF0
FFFFFC0003FFFFFFE00003FFFFF0
FFFFFC0001FFFFFFE00003FFFFF0
FFFFFC0001FFFFFFF00003FFFFF0
FFFFFC0000FFFFFFF80003FFFFF0
FFFFFC00007FFFFFFC0003FFFFF0
FFFFFC00003FFFFFFC0003FFFFF0
FFFFFC00003FFFFFFE0003FFFFF0
FFFFFC00001FFFFFFF0003FFFFF0
FFFFFC00000FFFFFFF8003FFFFF0
FFFFFC000007FFFFFF8003FFFFF0
FFFFFC000007FFFFFFC003FFFFF0
FFFFFC000003FFFFFFE003FFFFF0
FFFFFC000001FFFFFFE003FFFFF0
FFFFFC000000FFFFFFF003FFFFF0
FFFFFC000000FFFFFFF803FFFFF0
FFFFFC0000007FFFFFFC03FFFFF0
FFFFFC0000003FFFFFFC03FFFFF0
FFFFFC0000001FFFFFFE03FFFFF0
FFFFFC0000001FFFFFFF03FFFFF0
FFFFFC0000000FFFFFFF83FFFFF0
FFFFFC00000007FFFFFF83FFFFF0
FFFFFC00000003FFFFFFC3FFFFF0
FFFFFC00000003FFFFFFE3FFFFF0
FFFFFC00000001FFFFFFF3FFFFF0
FFFFFC00000000FFFFFFF3FFFFF0
FFFFFC00000000FFFFFFFBFFFFF0
FFFFFC000000007FFFFFFFFFFFF0
FFFFFC000000003FFFFFFFFFFFF0
FFFFFC000000001FFFFFFFFFFFF0
FFFFFC000000001FFFFFFFFFFFF0
FFFFFC000000000FFFFFFFFFFFF0
FFFFFC0000000007FFFFFFFFFFF0
FFFFFC0000000003FFFFFFFFFFF0
FFFFFC0000000003FFFFFFFFFFF0
FFFFFC0000000001FFFFFFFFFFF0
FFFFFC0000000000FFFFFFFFFFF0
FFFFFC00000000007FFFFFFFFFF0
FFFFFC00000000007FFFFFFFFFF0
FFFFFC00000000003FFFFFFFFFF0
FFFFFC00000000001FFFFFFFFFF0
FFFFFC00000000000FFFFFFFFFF0
FFFFFC00000000000FFFFFFFFFF0
FFFFFC000000000007FFFFFFFFF0
FFFFFC000000000003FFFFFFFFF0
FFFFFC000000000001FFFFFFFFF0
FFFFFC000000000001FFFFFFFFF0
FFFFFC000000000000FFFFFFFFF0
FFFFFC0000000000007FFFFFFFF0
FFFFFC0000000000003FFFFFFFF0
FFFFFC0000000000003FFFFFFFF0
FFFFFC0000000000001FFFFFFFF0
FFFFFC0000000000000FFFFFFFF0
FFFFFC0000000000000FFFFFFFF0
FFFFFC00000000000007FFFFFFF0
FFFFFC00000000000003FFFFFFF0
FFFFFC00000000000001FFFFFFF0
FFFFFC00000000000001FFFFFFF0
FFFFFC00000000000000FFFFFFF0
FFFFFC000000000000007FFFFFF0
FFFFFC000000000000003FFFFFF0
FFFFFC000000000000003FFFFFF0
FFFFFC000000000000001FFFFFF0
FFFFFC000000000000000FFFFFF0
FFFFFC0000000000000007FFFFF0
FFFFFC0000000000000007FFFFF0
FFFFFC0000000000000003FFFFF0
ENDCHAR
STARTCHAR 004F
ENCODING 79
SWIDTH 794 0
DWIDTH 143 0
BBX 126 125 1 0
BITMAP
00003FFFFFFFFFFFFFFFFFFFFFF80000
0003FFFFFFFFFFFFFFFFFFFFFFFF0000
000FFFFFFFFFFFFFFFFFFFFFFFFFC000
003FFFFFFFFFFFFFFFFFFFFFFFFFF000
007FFFFFFFFFFFFFFFFFFFFFFFFFF800
00FFFFFFFFFFFFFFFFFFFFFFFFFFFC00
03FFFFFFFFFFFFFFFFFFFFFFFFFFFF00
03FFFFFFFFFFFFFFFFFFFFFFFFFFFF00
07FFFFFFFFFFFFFFFFFFFFFFFFFFFF80
0FFFFFFFFFFFFFFFFFFFFFFFFFFFFFC0
1FFFFFFFFFFFFFFFFFFFFFFFFFFFFFE0
1FFFFFFFFFFFFFFFFFFFFFFFFFFFFFE0
3FFFFFFFFFFFFFFFFFFFFFFFFFFFFFF0
3FFFFFFFFFFFFFFFFFFFFFFFFFFFFFF0
7FFFFFFFFFFFFFFFFFFFFFFFFFFFFFF8
7FFFFFFFFFFFFFFFFFFFFFFFFFFFFFF8
7FFFFFFFFFFFFFFFFFFFFFFFFFFFFFF8
FFFFFFFFFFFFFFFFFFFFFFFFFFFFFFF8
FFFFFFFFFFFFFFFFFFFFFFFFFFFFFFFC
FFFFFFFFFFFFFFFFFFFFFFFFFFFFFFFC
FFFFFFFFFFFFFFFFFFFFFFFFFFFFFFFC
FFFFFFFFFFFFFFFFFFFFFFFFFFFFFFFC
FFFFFC00000000000000000000FFFFFC
FFFFFC00000000000000000000FFFFFC
FFFFFC00000000000000000000FFFFFC
FFFFFC00000000000000000000FFFFFC
FFFFFC00000000000000000000FFFFFC
FFFFFC00000000000000000000FFFFFC
FFFFFC00000000000000000000FFFFFC
FFFFFC00000000000000000000FFFFFC
FFFFFC00000000000000000000FFFFFC
FFFFFC00000000000000000000FFFFFC
FFFFFC00000000000000000000FFFFFC
FFFFFC00000000000000000000FFFFFC
FFFFFC00000000000000000000FFFFFC
FFFFFC00000000000000000000FFFFFC
FFFFFC00000000000000000000FFFFFC
FFFFFC00000000000000000000FFFFFC
FFFFFC00000000000000000000FFFFFC
FFFFFC00000000000000000000FFFFFC
FFFFFC00000000000000000000FFFFFC
FFFFFC00000000000000000000FFFFFC
FFFFFC00000000000000000000FFFFFC
FFFFFC00000000000000000000FFFFFC
FFFFFC00000000000000000000FFFFFC
FFFFFC00000000000000000000FFFFFC
FFFFFC00000000000000000000FFFFFC
FFFFFC00000000000000000000FFFFFC
FFFFFC00000000000000000000FFFFFC
FFFFFC00000000000000000000FFFFFC
FFFFFC00000000000000000000FFFFFC
FFFFFC00000000000000000000FFFFFC
FFFFFC00000000000000000000FFFFFC
FFFFFC00000000000000000000FFFFFC
FFFFFC00000000000000000000FFFFFC
FFFFFC00000000000000000000FFFFFC
FFFFFC00000000000000000000FFFFFC
FFFFFC00000000000000000000FFFFFC
FFFFFC00000000000000000000FFFFFC
FFFFFC00000000000000000000FFFFFC
FFFFFC00000000000000000000FFFFFC
FFFFFC00000000000000000000FFFFFC
FFFFFC00000000000000000000FFFFFC
FFFFFC00000000000000000000FFFFFC
FFFFFC00000000000000000000FFFFFC
FFFFFC00000000000000000000FFFFFC
FFFFFC00000000000000000000FFFFFC
FFFFFC00000000000000000000FFFFFC
FFFFFC00000000000000000000FFFFFC
FFFFFC00000000000000000000FFFFFC
FFFFFC00000000000000000000FFFFFC
FFFFFC00000000000000000000FFFFFC
FFFFFC00000000000000000000FFFFFC
FFFFFC00000000000000000000FFFFFC
FFFFFC00000000000000000000FFFFFC
FFFFFC00000000000000000000FFFFFC
FFFFFC00000000000000000000FFFFFC
FFFFFC00000000000000000000FFFFFC
FFFFFC00000000000000000000FFFFFC
FFFFFC00000000000000000000FFFFFC
FFFFFC00000000000000000000FFFFFC
FFFFFC00000000000000000000FFFFFC
FFFFFC00000000000000000000FFFFFC
FFFFFC00000000000000000000FFFFFC
FFFFFC00000000000000000000FFFFFC
FFFFFC00000000000000000000FFFFFC
FFFFFC00000000000000000000FFFFFC
FFFFFC00000000000000000000FFFFFC
FFFFFC00000000000000000000FFFFFC
FFFFFC00000000000000000000FFFFFC
FFFFFC00000000000000000000FFFFFC
FFFFFC00000000000000000000FFFFFC
FFFFFC00000000000000000000FFFFFC
FFFFFC00000000000000000000FFFFFC
FFFFFC00000000000000000000FFFFFC
FFFFFC00000000000000000000FFFFFC
FFFFFC00000000000000000000FFFFFC
FFFFFC00000000000000000000FFFFFC
FFFFFC00000000000000000000FFFFFC
FFFFFC00000000000000000000FFFFFC
FFFFFC00000000000000000000FFFFFC
FFFFFC00000000000000000000FFFFFC
FFFFFC00000000000000000000FFFFFC
FFFFFFFFFFFFFFFFFFFFFFFFFFFFFFFC
FFFFFFFFFFFFFFFFFFFFFFFFFFFFFFFC
FFFFFFFFFFFFFFFFFFFFFFFFFFFFFFFC
FFFFFFFFFFFFFFFFFFFFFFFFFFFFFFFC
7FFFFFFFFFFFFFFFFFFFFFFFFFFFFFFC
7FFFFFFFFFFFFFFFFFFFFFFFFFFFFFF8
7FFFFFFFFFFFFFFFFFFFFFFFFFFFFFF8
7FFFFFFFFFFFFFFFFFFFFFFFFFFFFFF8
3FFFFFFFFFFFFFFFFFFFFFFFFFFFFFF0
3FFFFFFFFFFFFFFFFFFFFFFFFFFFFFF0
1FFFFFFFFFFFFFFFFFFFFFFFFFFFFFE0
1FFFFFFFFFFFFFFFFFFFFFFFFFFFFFE0
0FFFFFFFFFFFFFFFFFFFFFFFFFFFFFC0
07FFFFFFFFFFFFFFFFFFFFFFFFFFFF80
03FFFFFFFFFFFFFFFFFFFFFFFFFFFF00
01FFFFFFFFFFFFFFFFFFFFFFFFFFFE00
00FFFFFFFFFFFFFFFFFFFFFFFFFFFC00
007FFFFFFFFFFFFFFFFFFFFFFFFFF800
003FFFFFFFFFFFFFFFFFFFFFFFFFF000
000FFFFFFFFFFFFFFFFFFFFFFFFFC000
0003FFFFFFFFFFFFFFFFFFFFFFFF0000
00003FFFFFFFFFFFFFFFFFFFFFF80000
ENDCHAR
STARTCHAR 0050
ENCODING 80
SWIDTH 661 0
DWIDTH 119 0
BBX 108 125 1 0
BITMAP
FFFFFFFFFFFFFFFFFFFFFFE00000
FFFFFFFFFFFFFFFFFFFFFFFC0000
FFFFFFFFFFFFFFFFFFFFFFFF0000
FFFFFFFFFFFFFFFFFFFFFFFFC000
FFFFFFFFFFFFFFFFFFFFFFFFE000
FFFFFFFFFFFFFFFFFFFFFFFFF000
FFFFFFFFFFFFFFFFFFFFFFFFFC00
FFFFFFFFFFFFFFFFFFFFFFFFFC00
FFFFFFFFFFFFFFFFFFFFFFFFFE00
FFFFFFFFFFFFFFFFFFFFFFFFFF00
FFFFFFFFFFFFFFFFFFFFFFFFFF80
FFFFFFFFFFFFFFFFFFFFFFFFFF80
FFFFFFFFFFFFFFFFFFFFFFFFFFC0
FFFFFFFFFFFFFFFFFFFFFFFFFFC0
FFFFFFFFFFFFFFFFFFFFFFFFFFE0
FFFFFFFFFFFFFFFFFFFFFFFFFFE0
FFFFFFFFFFFFFFFFFFFFFFFFFFE0
FFFFFFFFFFFFFFFFFFFFFFFFFFE0
FFFFFFFFFFFFFFFFFFFFFFFFFFF0
FFFFFFFFFFFFFFFFFFFFFFFFFFF0
FFFFFFFFFFFFFFFFFFFFFFFFFFF0
FFFFFFFFFFFFFFFFFFFFFFFFFFF0
FFFFFC0000000000000003FFFFF0
FFFFFC0000000000000003FFFFF0
FFFFFC0000000000000003FFFFF0
FFFFFC0000000000000003FFFFF0
FFFFFC0000000000000003FFFFF0
FFFFFC0000000000000003FFFFF0
FFFFFC0000000000000003FFFFF0
FFFFFC0000000000000003FFFFF0
FFFFFC0000000000000003FFFFF0
FFFFFC0000000000000003FFFFF0
FFFFFC0000000000000003FFFFF0
FFFFFC0000000000000003FFFFF0
FFFFFC0000000000000003FFFFF0
FFFFFC0000000000000003FFFFF0
FFFFFC0000000000000003FFFFF0
FFFFFC0000000000000003FFFFF0
FFFFFC0000000000000003FFFFF0
FFFFFC0000000000000003FFFFF0
FFFFFC0000000000000003FFFFF0
FFFFFC0000000000000003FFFFF0
FFFFFC0000000000000003FFFFF0
FFFFFC0000000000000003FFFFF0
FFFFFC0000000000000003FFFFF0
FFFFFC0000000000000003FFFFF0
FFFFFC0000000000000003FFFFF0
FFFFFC0000000000000003FFFFF0
FFFFFC0000000000000003FFFFF0
FFFFFC0000000000000003FFFFF0
FFFFFC0000000000000003FFFFF0
FFFFFC0000000000000003FFFFF0
FFFFFC0000000000000003FFFFF0
FFFFFFFFFFFFFFFFFFFFFFFFFFF0
FFFFFFFFFFFFFFFFFFFFFFFFFFF0
FFFFFFFFFFFFFFFFFFFFFFFFFFF0
FFFFFFFFFFFFFFFFFFFFFFFFFFF0
FFFFFFFFFFFFFFFFFFFFFFFFFFE0
FFFFFFFFFFFFFFFFFFFFFFFFFFE0
FFFFFFFFFFFFFFFFFFFFFFFFFFE0
FFFFFFFFFFFFFFFFFFFFFFFFFFE0
FFFFFFFFFFFFFFFFFFFFFFFFFFC0
FFFFFFFFFFFFFFFFFFFFFFFFFFC0
FFFFFFFFFFFFFFFFFFFFFFFFFF80
FFFFFFFFFFFFFFFFFFFFFFFFFF80
FFFFFFFFFFFFFFFFFFFFFFFFFF00
FFFFFFFFFFFFFFFFFFFFFFFFFE00
FFFFFFFFFFFFFFFFFFFFFFFFFC00
FFFFFFFFFFFFFFFFFFFFFFFFF800
FFFFFFFFFFFFFFFFFFFFFFFFF000
FFFFFFFFFFFFFFFFFFFFFFFFE000
FFFFFFFFFFFFFFFFFFFFFFFFC000
FFFFFFFFFFFFFFFFFFFFFFFF0000
FFFFFFFFFFFFFFFFFFFFFFFC0000
FFFFFFFFFFFFFFFFFFFFFFE00000
FFFFFC0000000000000000000000
FFFFFC0000000000000000000000
FFFFFC0000000000000000000000
FFFFFC0000000000000000000000
FFFFFC0000000000000000000000
FFFFFC0000000000000000000000
FFFFFC0000000000000000000000
FFFFFC0000000000000000000000
FFFFFC0000000000000000000000
FFFFFC0000000000000000000000
FFFFFC0000000000000000000000
FFFFFC0000000000000000000000
FFFFFC0000000000000000000000
FFFFFC0000000000000000000000
FFFFFC0000000000000000000000
FFFFFC0000000000000000000000
FFFFFC0000000000000000000000
FFFFFC0000000000000000000000
FFFFFC0000000000000000000000
FFFFFC0000000000000000000000
FFFFFC0000000000000000000000
FFFFFC0000000000000000000000
FFFFFC0000000000000000000000
FFFFFC0000000000000000000000
FFFFFC0000000000000000000000
FFFFFC0000000000000000000000
FFFFFC0000000000000000000000
FFFFFC0000000000000000000000
FFFFFC0000000000000000000000
FFFFFC0000000000000000000000
FFFFFC0000000000000000000000
FFFFFC0000000000000000000000
FFFFFC0000000000000000000000
FFFFFC0000000000000000000000
FFFFFC0000000000000000000000
FFFFFC0000000000000000000000
FFFFFC0000000000000000000000
FFFFFC0000000000000000000000
FFFFFC0000000000000000000000
FFFFFC0000000000000000000000
FFFFFC0000000000000000000000
FFFFFC0000000000000000000000
FFFFFC0000000000000000000000
FFFFFC0000000000000000000000
FFFFFC0000000000000000000000
FFFFFC0000000000000000000000
FFFFFC0000000000000000000000
FFFFFC0000000000000000000000
FFFFFC0000000000000000000000
FFFFFC0000000000000000000000
ENDCHAR
STARTCHAR 0051
ENCODING 81
SWIDTH 794 0
DWIDTH 143 0
BBX 126 143 1 -18
BITMAP
00003FFFFFFFFFFFFFFFFFFFFFF80000
0003FFFFFFFFFFFFFFFFFFFFFFFF0000
000FFFFFFFFFFFFFFFFFFFFFFFFFC000
003FFFFFFFFFFFFFFFFFFFFFFFFFF000
007FFFFFFFFFFFFFFFFFFFFFFFFFF800
00FFFFFFFFFFFFFFFFFFFFFFFFFFFE00
03FFFFFFFFFFFFFFFFFFFFFFFFFFFF00
03FFFFFFFFFFFFFFFFFFFFFFFFFFFF00
07FFFFFFFFFFFFFFFFFFFFFFFFFFFF80
0FFFFFFFFFFFFFFFFFFFFFFFFFFFFFC0
1FFFFFFFFFFFFFFFFFFFFFFFFFFFFFE0
1FFFFFFFFFFFFFFFFFFFFFFFFFFFFFE0
3FFFFFFFFFFFFFFFFFFFFFFFFFFFFFF0
3FFFFFFFFFFFFFFFFFFFFFFFFFFFFFF0
7FFFFFFFFFFFFFFFFFFFFFFFFFFFFFF8
7FFFFFFFFFFFFFFFFFFFFFFFFFFFFFF8
7FFFFFFFFFFFFFFFFFFFFFFFFFFFFFF8
FFFFFFFFFFFFFFFFFFFFFFFFFFFFFFF8
FFFFFFFFFFFFFFFFFFFFFFFFFFFFFFFC
FFFFFFFFFFFFFFFFFFFFFFFFFFFFFFFC
FFFFFFFFFFFFFFFFFFFFFFFFFFFFFFFC
FFFFFFFFFFFFFFFFFFFFFFFFFFFFFFFC
FFFFFC00000000000000000000FFFFFC
FFFFFC00000000000000000000FFFFFC
FFFFFC00000000000000000000FFFFFC
FFFFFC00000000000000000000FFFFFC
FFFFFC00000000000000000000FFFFFC
FFFFFC00000000000000000000FFFFFC
FFFFFC00000000000000000000FFFFFC
FFFFFC00000000000000000000FFFFFC
FFFFFC00000000000000000000FFFFFC
FFFFFC00000000000000000000FFFFFC
FFFFFC00000000000000000000FFFFFC
FFFFFC00000000000000000000FFFFFC
FFFFFC00000000000000000000FFFFFC
FFFFFC00000000000000000000FFFFFC
FFFFFC00000000000000000000FFFFFC
FFFFFC00000000000000000000FFFFFC
FFFFFC00000000000000000000FFFFFC
FFFFFC00000000000000000000FFFFFC
FFFFFC00000000000000000000FFFFFC
FFFFFC00000000000000000000FFFFFC
FFFFFC00000000000000000000FFFFFC
FFFFFC00000000000000000000FFFFFC
FFFFFC00000000000000000000FFFFFC
FFFFFC00000000000000000000FFFFFC
FFFFFC00000000000000000000FFFFFC
FFFFFC00000000000000000000FFFFFC
FFFFFC00000000000000000000FFFFFC
FFFFFC00000000000000000000FFFFFC
FFFFFC00000000000000000000FFFFFC
FFFFFC00000000000000000000FFFFFC
FFFFFC00000000000000000000FFFFFC
FFFFFC00000000000000000000FFFFFC
FFFFFC00000000000000000000FFFFFC
FFFFFC00000000000000000000FFFFFC
FFFFFC00000000000000000000FFFFFC
FFFFFC00000000000000000000FFFFFC
FFFFFC00000000000000000000FFFFFC
FFFFFC00000000000000000000FFFFFC
FFFFFC00000000000000000000FFFFFC
FFFFFC00000000000000000000FFFFFC
FFFFFC00000000000000000000FFFFFC
FFFFFC00000000000000000000FFFFFC
FFFFFC00000000000000000000FFFFFC
FFFFFC00000000000000000000FFFFFC
FFFFFC00000000000000000000FFFFFC
FFFFFC00000000000000000000FFFFFC
FFFFFC00000000000000000000FFFFFC
FFFFFC00000000000000000000FFFFFC
FFFFFC00000000000000000000FFFFFC
FFFFFC00000000000000000000FFFFFC
FFFFFC00000000000000000000FFFFFC
FFFFFC00000000000000000000FFFFFC
FFFFFC00000000000000000000FFFFFC
FFFFFC00000000000000000000FFFFFC
FFFFFC00000000000000000000FFFFFC
FFFFFC00000000000000000000FFFFFC
FFFFFC00000000000000000000FFFFFC
FFFFFC00000000000000000000FFFFFC
FFFFFC00000000000000000000FFFFFC
FFFFFC0000003FFFFFFC000000FFFFFC
FFFFFC0000001FFFFFFE000000FFFFFC
FFFFFC0000000FFFFFFE000000FFFFFC
FFFFFC0000000FFFFFFF000000FFFFFC
FFFFFC00000007FFFFFF800000FFFFFC
FFFFFC00000003FFFFFF800000FFFFFC
FFFFFC00000001FFFFFFC00000FFFFFC
FFFFFC00000000FFFFFFE00000FFFFFC
FFFFFC000000007FFFFFE00000FFFFFC
FFFFFC000000007FFFFFF00000FFFFFC
FFFFFC000000003FFFFFF80000FFFFFC
FFFFFC000000001FFFFFFC0000FFFFFC
FFFFFC000000000FFFFFFC0000FFFFFC
FFFFFC0000000007FFFFFE0000FFFFFC
FFFFFC0000000007FFFFFF0000FFFFFC
FFFFFC0000000003FFFFFF0000FFFFFC
FFFFFC0000000001FFFFFF8000FFFFFC
FFFFFC0000000000FFFFFFC000FFFFFC
FFFFFC00000000007FFFFFE000FFFFFC
FFFFFC00000000007FFFFFE000FFFFFC
FFFFFC00000000003FFFFFF000FFFFFC
FFFFFC00000000001FFFFFF800FFFFFC
FFFFFFFFFFFFFFFFFFFFFFFFFFFFFFFC
FFFFFFFFFFFFFFFFFFFFFFFFFFFFFFFC
FFFFFFFFFFFFFFFFFFFFFFFFFFFFFFFC
FFFFFFFFFFFFFFFFFFFFFFFFFFFFFFFC
7FFFFFFFFFFFFFFFFFFFFFFFFFFFFFF8
7FFFFFFFFFFFFFFFFFFFFFFFFFFFFFF8
7FFFFFFFFFFFFFFFFFFFFFFFFFFFFFF8
7FFFFFFFFFFFFFFFFFFFFFFFFFFFFFF8
3FFFFFFFFFFFFFFFFFFFFFFFFFFFFFF0
3FFFFFFFFFFFFFFFFFFFFFFFFFFFFFF0
1FFFFFFFFFFFFFFFFFFFFFFFFFFFFFE0
1FFFFFFFFFFFFFFFFFFFFFFFFFFFFFC0
0FFFFFFFFFFFFFFFFFFFFFFFFFFFFFC0
07FFFFFFFFFFFFFFFFFFFFFFFFFFFF80
03FFFFFFFFFFFFFFFFFFFFFFFFFFFF00
01FFFFFFFFFFFFFFFFFFFFFFFFFFFE00
00FFFFFFFFFFFFFFFFFFFFFFFFFFFC00
007FFFFFFFFFFFFFFFFFFFFFFFFFF800
003FFFFFFFFFFFFFFFFFFFFFFFFFE000
000FFFFFFFFFFFFFFFFFFFFFFFFFC000
0003FFFFFFFFFFFFFFFFFFFFFFFF0000
00003FFFFFFFFFFFFFFFFFFFFFFF8000
0000000000000000000001FFFFFFC000
0000000000000000000001FFFFFFC000
0000000000000000000000FFFFFFE000
00000000000000000000007FFFFFF000
00000000000000000000003FFFFFF800
00000000000000000000001FFFFFF800
00000000000000000000001FFFFFFC00
00000000000000000000000FFFFFFE00
000000000000000000000007FFFFFF00
000000000000000000000003FFFFFF00
000000000000000000000001FFFFFF80
000000000000000000000000FFFFFFC0
000000000000000000000000FFFFFFE0
0000000000000000000000007FFFFFE0
0000000000000000000000003FFFFFF0
0000000000000000000000001FFFFFF8
0000000000000000000000000FFFFFFC
0000000000000000000000000FFFFFFC
ENDCHAR
STARTCHAR 0052
ENCODING 82
SWIDTH 694 0
DWIDTH 125 0
BBX 108 125 1 0
BITMAP
FFFFFFFFFFFFFFFFFFFFFFE00000
FFFFFFFFFFFFFFFFFFFFFFFC0000
FFFFFFFFFFFFFFFFFFFFFFFF0000
FFFFFFFFFFFFFFFFFFFFFFFFC000
FFFFFFFFFFFFFFFFFFFFFFFFE000
FFFFFFFFFFFFFFFFFFFFFFFFF000
FFFFFFFFFFFFFFFFFFFFFFFFFC00
FFFFFFFFFFFFFFFFFFFFFFFFFC00
FFFFFFFFFFFFFFFFFFFFFFFFFE00
FFFFFFFFFFFFFFFFFFFFFFFFFF00
FFFFFFFFFFFFFFFFFFFFFFFFFF80
FFFFFFFFFFFFFFFFFFFFFFFFFF80
FFFFFFFFFFFFFFFFFFFFFFFFFFC0
FFFFFFFFFFFFFFFFFFFFFFFFFFC0
FFFFFFFFFFFFFFFFFFFFFFFFFFE0
FFFFFFFFFFFFFFFFFFFFFFFFFFE0
FFFFFFFFFFFFFFFFFFFFFFFFFFE0
FFFFFFFFFFFFFFFFFFFFFFFFFFE0
FFFFFFFFFFFFFFFFFFFFFFFFFFF0
FFFFFFFFFFFFFFFFFFFFFFFFFFF0
FFFFFFFFFFFFFFFFFFFFFFFFFFF0
FFFFFFFFFFFFFFFFFFFFFFFFFFF0
FFFFFC0000000000000003FFFFF0
FFFFFC0000000000000003FFFFF0
FFFFFC0000000000000003FFFFF0
FFFFFC0000000000000003FFFFF0
FFFFFC0000000000000003FFFFF0
FFFFFC0000000000000003FFFFF0
FFFFFC0000000000000003FFFFF0
FFFFFC0000000000000003FFFFF0
FFFFFC0000000000000003FFFFF0
FFFFFC0000000000000003FFFFF0
FFFFFC0000000000000003FFFFF0
FFFFFC0000000000000003FFFFF0
FFFFFC0000000000000003FFFFF0
FFFFFC0000000000000003FFFFF0
FFFFFC0000000000000003FFFFF0
FFFFFC0000000000000003FFFFF0
FFFFFC0000000000000003FFFFF0
FFFFFC0000000000000003FFFFF0
FFFFFC0000000000000003FFFFF0
FFFFFC0000000000000003FFFFF0
FFFFFC0000000000000003FFFFF0
FFFFFC0000000000000003FFFFF0
FFFFFC0000000000000003FFFFF0
FFFFFC0000000000000003FFFFF0
FFFFFC0000000000000003FFFFF0
FFFFFC0000000000000003FFFFF0
FFFFFC0000000000000003FFFFF0
FFFFFC0000000000000003FFFFF0
FFFFFC0000000000000003FFFFF0
FFFFFC0000000000000003FFFFF0
FFFFFC0000000000000003FFFFF0
FFFFFFFFFFFFFFFFFFFFFFFFFFF0
FFFFFFFFFFFFFFFFFFFFFFFFFFF0
FFFFFFFFFFFFFFFFFFFFFFFFFFF0
FFFFFFFFFFFFFFFFFFFFFFFFFFF0
FFFFFFFFFFFFFFFFFFFFFFFFFFE0
FFFFFFFFFFFFFFFFFFFFFFFFFFE0
FFFFFFFFFFFFFFFFFFFFFFFFFFE0
FFFFFFFFFFFFFFFFFFFFFFFFFFE0
FFFFFFFFFFFFFFFFFFFFFFFFFFC0
FFFFFFFFFFFFFFFFFFFFFFFFFFC0
FFFFFFFFFFFFFFFFFFFFFFFFFF80
FFFFFFFFFFFFFFFFFFFFFFFFFF80
FFFFFFFFFFFFFFFFFFFFFFFFFF00
FFFFFFFFFFFFFFFFFFFFFFFFFE00
FFFFFFFFFFFFFFFFFFFFFFFFFC00
FFFFFFFFFFFFFFFFFFFFFFFFF800
FFFFFFFFFFFFFFFFFFFFFFFFF000
FFFFFFFFFFFFFFFFFFFFFFFFE000
FFFFFFFFFFFFFFFFFFFFFFFFC000
FFFFFFFFFFFFFFFFFFFFFFFF0000
FFFFFFFFFFFFFFFFFFFFFFFC0000
FFFFFFFFFFFFFFFFFFFFFFE00000
FFFFFC00007FFFFFFF0000000000
FFFFFC00007FFFFFFF8000000000
FFFFFC00003FFFFFFF8000000000
FFFFFC00001FFFFFFFC000000000
FFFFFC00000FFFFFFFE000000000
FFFFFC00000FFFFFFFE000000000
FFFFFC000007FFFFFFF000000000
FFFFFC000003FFFFFFF800000000
FFFFFC000001FFFFFFFC00000000
FFFFFC000001FFFFFFFC00000000
FFFFFC000000FFFFFFFE00000000
FFFFFC0000007FFFFFFF00000000
FFFFFC0000003FFFFFFF80000000
FFFFFC0000003FFFFFFF80000000
FFFFFC0000001FFFFFFFC0000000
FFFFFC0000000FFFFFFFE0000000
FFFFFC00000007FFFFFFE0000000
FFFFFC00000007FFFFFFF0000000
FFFFFC00000003FFFFFFF8000000
FFFFFC00000001FFFFFFFC000000
FFFFFC00000000FFFFFFFC000000
FFFFFC00000000FFFFFFFE000000
FFFFFC000000007FFFFFFF000000
FFFFFC000000003FFFFFFF800000
FFFFFC000000001FFFFFFF800000
FFFFFC000000001FFFFFFFC00000
FFFFFC000000000FFFFFFFE00000
FFFFFC0000000007FFFFFFF00000
FFFFFC0000000003FFFFFFF00000
FFFFFC0000000003FFFFFFF80000
FFFFFC0000000001FFFFFFFC0000
FFFFFC0000000000FFFFFFFC0000
FFFFFC00000000007FFFFFFE0000
FFFFFC00000000007FFFFFFF0000
FFFFFC00000000003FFFFFFF8000
FFFFFC00000000001FFFFFFF8000
FFFFFC00000000000FFFFFFFC000
FFFFFC00000000000FFFFFFFE000
FFFFFC000000000007FFFFFFF000
FFFFFC000000000003FFFFFFF000
FFFFFC000000000001FFFFFFF800
FFFFFC000000000001FFFFFFFC00
FFFFFC000000000000FFFFFFFC00
FFFFFC0000000000007FFFFFFE00
FFFFFC0000000000003FFFFFFF00
FFFFFC0000000000003FFFFFFF80
FFFFFC0000000000001FFFFFFF80
FFFFFC0000000000000FFFFFFFC0
FFFFFC00000000000007FFFFFFE0
FFFFFC00000000000003FFFFFFF0
ENDCHAR
STARTCHAR 0053
ENCODING 83
SWIDTH 694 0
DWIDTH 125 0
BBX 108 125 1 0
BITMAP
00007FFFFFFFFFFFFFFFFFFFFFF0
0003FFFFFFFFFFFFFFFFFFFFFFF0
000FFFFFFFFFFFFFFFFFFFFFFFF0
003FFFFFFFFFFFFFFFFFFFFFFFF0
007FFFFFFFFFFFFFFFFFFFFFFFF0
00FFFFFFFFFFFFFFFFFFFFFFFFF0
01FFFFFFFFFFFFFFFFFFFFFFFFF0
03FFFFFFFFFFFFFFFFFFFFFFFFF0
07FFFFFFFFFFFFFFFFFFFFFFFFF0
0FFFFFFFFFFFFFFFFFFFFFFFFFF0
1FFFFFFFFFFFFFFFFFFFFFFFFFF0
1FFFFFFFFFFFFFFFFFFFFFFFFFF0
3FFFFFFFFFFFFFFFFFFFFFFFFFF0
3FFFFFFFFFFFFFFFFFFFFFFFFFF0
7FFFFFFFFFFFFFFFFFFFFFFFFFF0
7FFFFFFFFFFFFFFFFFFFFFFFFFF0
7FFFFFFFFFFFFFFFFFFFFFFFFFF0
7FFFFFFFFFFFFFFFFFFFFFFFFFF0
FFFFFFFFFFFFFFFFFFFFFFFFFFF0
FFFFFFFFFFFFFFFFFFFFFFFFFFF0
FFFFFFFFFFFFFFFFFFFFFFFFFFF0
FFFFFFFFFFFFFFFFFFFFFFFFFFF0
FFFFFF8000000000000000000000
FFFFFF8000000000000000000000
FFFFFF8000000000000000000000
FFFFFF8000000000000000000000
FFFFFF8000000000000000000000
FFFFFF8000000000000000000000
FFFFFF8000000000000000000000
FFFFFF8000000000000000000000
FFFFFF8000000000000000000000
FFFFFF8000000000000000000000
FFFFFF8000000000000000000000
FFFFFF8000000000000000000000
FFFFFF8000000000000000000000
FFFFFF8000000000000000000000
FFFFFF8000000000000000000000
FFFFFF8000000000000000000000
FFFFFF8000000000000000000000
FFFFFF8000000000000000000000
FFFFFF8000000000000000000000
FFFFFF8000000000000000000000
FFFFFF8000000000000000000000
FFFFFF8000000000000000000000
FFFFFF8000000000000000000000
FFFFFF8000000000000000000000
FFFFFF8000000000000000000000
FFFFFF8000000000000000000000
FFFFFF8000000000000000000000
FFFFFF8000000000000000000000
FFFFFF8000000000000000000000
FFFFFF8000000000000000000000
FFFFFFFFFFFFFFFFFFFFFFF00000
FFFFFFFFFFFFFFFFFFFFFFFF0000
FFFFFFFFFFFFFFFFFFFFFFFFC000
FFFFFFFFFFFFFFFFFFFFFFFFF000
FFFFFFFFFFFFFFFFFFFFFFFFF800
FFFFFFFFFFFFFFFFFFFFFFFFFC00
7FFFFFFFFFFFFFFFFFFFFFFFFE00
7FFFFFFFFFFFFFFFFFFFFFFFFF00
7FFFFFFFFFFFFFFFFFFFFFFFFF00
3FFFFFFFFFFFFFFFFFFFFFFFFF80
3FFFFFFFFFFFFFFFFFFFFFFFFFC0
3FFFFFFFFFFFFFFFFFFFFFFFFFC0
1FFFFFFFFFFFFFFFFFFFFFFFFFC0
0FFFFFFFFFFFFFFFFFFFFFFFFFE0
0FFFFFFFFFFFFFFFFFFFFFFFFFE0
07FFFFFFFFFFFFFFFFFFFFFFFFE0
03FFFFFFFFFFFFFFFFFFFFFFFFF0
01FFFFFFFFFFFFFFFFFFFFFFFFF0
00FFFFFFFFFFFFFFFFFFFFFFFFF0
003FFFFFFFFFFFFFFFFFFFFFFFF0
000FFFFFFFFFFFFFFFFFFFFFFFF0
0000FFFFFFFFFFFFFFFFFFFFFFF0
000000000000000000001FFFFFF0
000000000000000000001FFFFFF0
000000000000000000001FFFFFF0
000000000000000000001FFFFFF0
000000000000000000001FFFFFF0
000000000000000000001FFFFFF0
000000000000000000001FFFFFF0
000000000000000000001FFFFFF0
000000000000000000001FFFFFF0
000000000000000000001FFFFFF0
000000000000000000001FFFFFF0
000000000000000000001FFFFFF0
000000000000000000001FFFFFF0
000000000000000000001FFFFFF0
000000000000000000001FFFFFF0
000000000000000000001FFFFFF0
000000000000000000001FFFFFF0
000000000000000000001FFFFFF0
000000000000000000001FFFFFF0
000000000000000000001FFFFFF0
000000000000000000001FFFFFF0
000000000000000000001FFFFFF0
000000000000000000001FFFFFF0
000000000000000000001FFFFFF0
000000000000000000001FFFFFF0
000000000000000000001FFFFFF0
000000000000000000001FFFFFF0
000000000000000000001FFFFFF0
FFFFFFFFFFFFFFFFFFFFFFFFFFF0
FFFFFFFFFFFFFFFFFFFFFFFFFFF0
FFFFFFFFFFFFFFFFFFFFFFFFFFF0
FFFFFFFFFFFFFFFFFFFFFFFFFFF0
FFFFFFFFFFFFFFFFFFFFFFFFFFF0
FFFFFFFFFFFFFFFFFFFFFFFFFFF0
FFFFFFFFFFFFFFFFFFFFFFFFFFE0
FFFFFFFFFFFFFFFFFFFFFFFFFFE0
FFFFFFFFFFFFFFFFFFFFFFFFFFE0
FFFFFFFFFFFFFFFFFFFFFFFFFFC0
FFFFFFFFFFFFFFFFFFFFFFFFFFC0
FFFFFFFFFFFFFFFFFFFFFFFFFF80
FFFFFFFFFFFFFFFFFFFFFFFFFF80
FFFFFFFFFFFFFFFFFFFFFFFFFF00
FFFFFFFFFFFFFFFFFFFFFFFFFE00
FFFFFFFFFFFFFFFFFFFFFFFFFC00
FFFFFFFFFFFFFFFFFFFFFFFFF800
FFFFFFFFFFFFFFFFFFFFFFFFF000
FFFFFFFFFFFFFFFFFFFFFFFFE000
FFFFFFFFFFFFFFFFFFFFFFFFC000
FFFFFFFFFFFFFFFFFFFFFFFF0000
FFFFFFFFFFFFFFFFFFFFFFFC0000
FFFFFFFFFFFFFFFFFFFFFFC00000
ENDCHAR
STARTCHAR 0054
ENCODING 84
SWIDTH 661 0
DWIDTH 119 0
BBX 108 125 1 0
BITMAP
FFFFFFFFFFFFFFFFFFFFFFFFFFF0
FFFFFFFFFFFFFFFFFFFFFFFFFFF0
FFFFFFFFFFFFFFFFFFFFFFFFFFF0
FFFFFFFFFFFFFFFFFFFFFFFFFFF0
FFFFFFFFFFFFFFFFFFFFFFFFFFF0
FFFFFFFFFFFFFFFFFFFFFFFFFFF0
FFFFFFFFFFFFFFFFFFFFFFFFFFF0
FFFFFFFFFFFFFFFFFFFFFFFFFFF0
FFFFFFFFFFFFFFFFFFFFFFFFFFF0
FFFFFFFFFFFFFFFFFFFFFFFFFFF0
FFFFFFFFFFFFFFFFFFFFFFFFFFF0
FFFFFFFFFFFFFFFFFFFFFFFFFFF0
FFFFFFFFFFFFFFFFFFFFFFFFFFF0
FFFFFFFFFFFFFFFFFFFFFFFFFFF0
FFFFFFFFFFFFFFFFFFFFFFFFFFF0
FFFFFFFFFFFFFFFFFFFFFFFFFFF0
FFFFFFFFFFFFFFFFFFFFFFFFFFF0
FFFFFFFFFFFFFFFFFFFFFFFFFFF0
FFFFFFFFFFFFFFFFFFFFFFFFFFF0
FFFFFFFFFFFFFFFFFFFFFFFFFFF0
FFFFFFFFFFFFFFFFFFFFFFFFFFF0
FFFFFFFFFFFFFFFFFFFFFFFFFFF0
00000000001FFFFF800000000000
00000000001FFFFF800000000000
00000000001FFFFF800000000000
00000000001FFFFF800000000000
00000000001FFFFF800000000000
00000000001FFFFF800000000000
00000000001FFFFF800000000000
00000000001FFFFF800000000000
00000000001FFFFF800000000000
00000000001FFFFF800000000000
00000000001FFFFF800000000000
00000000001FFFFF800000000000
00000000001FFFFF800000000000
00000000001FFFFF800000000000
00000000001FFFFF800000000000
00000000001FFFFF800000000000
00000000001FFFFF800000000000
00000000001FFFFF800000000000
00000000001FFFFF800000000000
00000000001FFFFF800000000000
00000000001FFFFF800000000000
00000000001FFFFF800000000000
00000000001FFFFF800000000000
00000000001FFFFF800000000000
00000000001FFFFF800000000000
00000000001FFFFF800000000000
00000000001FFFFF800000000000
00000000001FFFFF800000000000
00000000001FFFFF800000000000
00000000001FFFFF800000000000
00000000001FFFFF800000000000
00000000001FFFFF800000000000
00000000001FFFFF800000000000
00000000001FFFFF800000000000
00000000001FFFFF800000000000
00000000001FFFFF800000000000
00000000001FFFFF800000000000
00000000001FFFFF800000000000
00000000001FFFFF800000000000
00000000001FFFFF800000000000
00000000001FFFFF800000000000
00000000001FFFFF800000000000
00000000001FFFFF800000000000
00000000001FFFFF800000000000
00000000001FFFFF800000000000
00000000001FFFFF800000000000
00000000001FFFFF800000000000
00000000001FFFFF800000000000
00000000001FFFFF800000000000
00000000001FFFFF800000000000
00000000001FFFFF800000000000
00000000001FFFFF800000000000
00000000001FFFFF800000000000
00000000001FFFFF800000000000
00000000001FFFFF800000000000
00000000001FFFFF800000000000
00000000001FFFFF800000000000
00000000001FFFFF800000000000
00000000001FFFFF800000000000
00000000001FFFFF800000000000
00000000001FFFFF800000000000
00000000001FFFFF800000000000
00000000001FFFFF800000000000
00000000001FFFFF800000000000
00000000001FFFFF800000000000
00000000001FFFFF800000000000
00000000001FFFFF800000000000
00000000001FFFFF800000000000
00000000001FFFFF800000000000
00000000001FFFFF800000000000
00000000001FFFFF800000000000
00000000001FFFFF800000000000
00000000001FFFFF800000000000
00000000001FFFFF800000000000
00000000001FFFFF800000000000
00000000001FFFFF800000000000
00000000001FFFFF800000000000
00000000001FFFFF800000000000
00000000001FFFFF800000000000
00000000001FFFFF800000000000
00000000001FFFFF800000000000
00000000001FFFFF800000000000
00000000001FFFFF800000000000
00000000001FFFFF800000000000
00000000001FFFFF800000000000
00000000001FFFFF800000000000
00000000001FFFFF800000000000
00000000001FFFFF800000000000
00000000001FFFFF800000000000
00000000001FFFFF800000000000
00000000001FFFFF800000000000
00000000001FFFFF800000000000
00000000001FFFFF800000000000
00000000001FFFFF800000000000
00000000001FFFFF800000000000
00000000001FFFFF800000000000
00000000001FFFFF800000000000
00000000001FFFFF800000000000
00000000001FFFFF800000000000
00000000001FFFFF800000000000
00000000001FFFFF800000000000
00000000001FFFFF800000000000
00000000001FFFFF800000000000
ENDCHAR
STARTCHAR 0055
ENCODING 85
SWIDTH 700 0
DWIDTH 126 0
BBX 108 125 1 0
BITMAP
FFFFFC0000000000000003FFFFF0
FFFFFC0000000000000003FFFFF0
FFFFFC0000000000000003FFFFF0
FFFFFC0000000000000003FFFFF0
FFFFFC0000000000000003FFFFF0
FFFFFC0000000000000003FFFFF0
FFFFFC0000000000000003FFFFF0
FFFFFC0000000000000003FFFFF0
FFFFFC0000000000000003FFFFF0
FFFFFC0000000000000003FFFFF0
FFFFFC0000000000000003FFFFF0
FFFFFC0000000000000003FFFFF0
FFFFFC0000000000000003FFFFF0
FFFFFC0000000000000003FFFFF0
FFFFFC0000000000000003FFFFF0
FFFFFC0000000000000003FFFFF0
FFFFFC0000000000000003FFFFF0
FFFFFC0000000000000003FFFFF0
FFFFFC0000000000000003FFFFF0
FFFFFC0000000000000003FFFFF0
FFFFFC0000000000000003FFFFF0
FFFFFC0000000000000003FFFFF0
FFFFFC0000000000000003FFFFF0
FFFFFC0000000000000003FFFFF0
FFFFFC0000000000000003FFFFF0
FFFFFC0000000000000003FFFFF0
FFFFFC0000000000000003FFFFF0
FFFFFC0000000000000003FFFFF0
FFFFFC0000000000000003FFFFF0
FFFFFC0000000000000003FFFFF0
FFFFFC0000000000000003FFFFF0
FFFFFC0000000000000003FFFFF0
FFFFFC0000000000000003FFFFF0
FFFFFC0000000000000003FFFFF0
FFFFFC0000000000000003FFFFF0
FFFFFC0000000000000003FFFFF0
FFFFFC0000000000000003FFFFF0
FFFFFC0000000000000003FFFFF0
FFFFFC0000000000000003FFFFF0
FFFFFC0000000000000003FFFFF0
FFFFFC0000000000000003FFFFF0
FFFFFC0000000000000003FFFFF0
FFFFFC0000000000000003FFFFF0
FFFFFC0000000000000003FFFFF0
FFFFFC0000000000000003FFFFF0
FFFFFC0000000000000003FFFFF0
FFFFFC0000000000000003FFFFF0
FFFFFC0000000000000003FFFFF0
FFFFFC0000000000000003FFFFF0
FFFFFC0000000000000003FFFFF0
FFFFFC0000000000000003FFFFF0
FFFFFC0000000000000003FFFFF0
FFFFFC0000000000000003FFFFF0
FFFFFC0000000000000003FFFFF0
FFFFFC0000000000000003FFFFF0
FFFFFC0000000000000003FFFFF0
FFFFFC0000000000000003FFFFF0
FFFFFC0000000000000003FFFFF0
FFFFFC0000000000000003FFFFF0
FFFFFC0000000000000003FFFFF0
FFFFFC0000000000000003FFFFF0
FFFFFC0000000000000003FFFFF0
FFFFFC0000000000000003FFFFF0
FFFFFC0000000000000003FFFFF0
FFFFFC0000000000000003FFFFF0
FFFFFC0000000000000003FFFFF0
FFFFFC0000000000000003FFFFF0
FFFFFC0000000000000003FFFFF0
FFFFFC0000000000000003FFFFF0
FFFFFC0000000000000003FFFFF0
FFFFFC0000000000000003FFFFF0
FFFFFC0000000000000003FFFFF0
FFFFFC0000000000000003FFFFF0
FFFFFC0000000000000003FFFFF0
FFFFFC0000000000000003FFFFF0
FFFFFC0000000000000003FFFFF0
FFFFFC0000000000000003FFFFF0
FFFFFC0000000000000003FFFFF0
FFFFFC0000000000000003FFFFF0
FFFFFC0000000000000003FFFFF0
FFFFFC0000000000000003FFFFF0
FFFFFC0000000000000003FFFFF0
FFFFFC0000000000000003FFFFF0
FFFFFC0000000000000003FFFFF0
FFFFFC0000000000000003FFFFF0
FFFFFC0000000000000003FFFFF0
FFFFFC0000000000000003FFFFF0
FFFFFC0000000000000003FFFFF0
FFFFFC0000000000000003FFFFF0
FFFFFC0000000000000003FFFFF0
FFFFFC0000000000000003FFFFF0
FFFFFC0000000000000003FFFFF0
FFFFFC0000000000000003FFFFF0
FFFFFC0000000000000003FFFFF0
FFFFFC0000000000000003FFFFF0
FFFFFC0000000000000003FFFFF0
FFFFFC0000000000000003FFFFF0
FFFFFC0000000000000003FFFFF0
FFFFFC0000000000000003FFFFF0
FFFFFC0000000000000003FFFFF0
FFFFFC0000000000000003FFFFF0
FFFFFC0000000000000003FFFFF0
FFFFFC0000000000000003FFFFF0
FFFFFFFFFFFFFFFFFFFFFFFFFFF0
FFFFFFFFFFFFFFFFFFFFFFFFFFF0
FFFFFFFFFFFFFFFFFFFFFFFFFFF0
FFFFFFFFFFFFFFFFFFFFFFFFFFF0
7FFFFFFFFFFFFFFFFFFFFFFFFFE0
7FFFFFFFFFFFFFFFFFFFFFFFFFE0
7FFFFFFFFFFFFFFFFFFFFFFFFFE0
7FFFFFFFFFFFFFFFFFFFFFFFFFE0
3FFFFFFFFFFFFFFFFFFFFFFFFFC0
3FFFFFFFFFFFFFFFFFFFFFFFFFC0
1FFFFFFFFFFFFFFFFFFFFFFFFF80
1FFFFFFFFFFFFFFFFFFFFFFFFF80
0FFFFFFFFFFFFFFFFFFFFFFFFF00
07FFFFFFFFFFFFFFFFFFFFFFFE00
03FFFFFFFFFFFFFFFFFFFFFFFC00
01FFFFFFFFFFFFFFFFFFFFFFF800
00FFFFFFFFFFFFFFFFFFFFFFF000
007FFFFFFFFFFFFFFFFFFFFFE000
003FFFFFFFFFFFFFFFFFFFFFC000
000FFFFFFFFFFFFFFFFFFFFF0000
0003FFFFFFFFFFFFFFFFFFFC0000
00003FFFFFFFFFFFFFFFFFE00000
ENDCHAR
STARTCHAR 0056
ENCODING 86
SWIDTH 655 0
DWIDTH 118 0
BBX 108 125 1 0
BITMAP
FFFFF80000000000000001FFFFF0
FFFFFC0000000000000001FFFFF0
7FFFFC0000000000000003FFFFE0
7FFFFC0000000000000003FFFFE0
7FFFFE0000000000000003FFFFE0
3FFFFE0000000000000007FFFFC0
3FFFFE0000000000000007FFFFC0
3FFFFF0000000000000007FFFFC0
1FFFFF000000000000000FFFFF80
1FFFFF000000000000000FFFFF80
1FFFFF800000000000000FFFFF80
0FFFFF800000000000001FFFFF00
0FFFFF800000000000001FFFFF00
0FFFFFC00000000000001FFFFF00
07FFFFC00000000000003FFFFE00
07FFFFC00000000000003FFFFE00
07FFFFE00000000000003FFFFE00
03FFFFE00000000000007FFFFC00
03FFFFE00000000000007FFFFC00
03FFFFF00000000000007FFFFC00
01FFFFF0000000000000FFFFF800
01FFFFF0000000000000FFFFF800
01FFFFF8000000000000FFFFF800
00FFFFF8000000000001FFFFF000
00FFFFF8000000000001FFFFF000
00FFFFFC000000000001FFFFF000
007FFFFC000000000003FFFFE000
007FFFFC000000000003FFFFE000
007FFFFE000000000003FFFFE000
003FFFFE000000000007FFFFC000
003FFFFE000000000007FFFFC000
003FFFFF000000000007FFFFC000
001FFFFF00000000000FFFFF8000
001FFFFF00000000000FFFFF8000
001FFFFF80000000000FFFFF8000
000FFFFF80000000001FFFFF0000
000FFFFF80000000001FFFFF0000
000FFFFFC0000000001FFFFF0000
0007FFFFC0000000003FFFFE0000
0007FFFFC0000000003FFFFE0000
0007FFFFE0000000003FFFFE0000
0003FFFFE0000000007FFFFC0000
0003FFFFE0000000007FFFFC0000
0003FFFFF0000000007FFFFC0000
0001FFFFF000000000FFFFF80000
0001FFFFF000000000FFFFF80000
0001FFFFF800000000FFFFF80000
0000FFFFF800000001FFFFF00000
0000FFFFF800000001FFFFF00000
0000FFFFFC00000001FFFFF00000
00007FFFFC00000003FFFFE00000
00007FFFFC00000003FFFFE00000
00007FFFFE00000003FFFFE00000
00003FFFFE00000007FFFFE00000
00003FFFFE00000007FFFFC00000
00003FFFFF00000007FFFFC00000
00001FFFFF0000000FFFFFC00000
00001FFFFF0000000FFFFF800000
00001FFFFF8000000FFFFF800000
00000FFFFF8000001FFFFF800000
00000FFFFF8000001FFFFF000000
00000FFFFFC000001FFFFF000000
000007FFFFC000003FFFFF000000
000007FFFFC000003FFFFE000000
000007FFFFE000003FFFFE000000
000003FFFFE000007FFFFE000000
000003FFFFE000007FFFFC000000
000003FFFFF000007FFFFC000000
000001FFFFF00000FFFFFC000000
000001FFFFF00000FFFFF8000000
000001FFFFF00000FFFFF8000000
000000FFFFF80001FFFFF8000000
000000FFFFF80001FFFFF0000000
000000FFFFF80001FFFFF0000000
0000007FFFFC0003FFFFF0000000
0000007FFFFC0003FFFFE0000000
0000007FFFFC0003FFFFE0000000
0000003FFFFE0007FFFFE0000000
0000003FFFFE0007FFFFC0000000
0000003FFFFE0007FFFFC0000000
0000001FFFFF000FFFFFC0000000
0000001FFFFF000FFFFF80000000
0000001FFFFF000FFFFF80000000
0000000FFFFF801FFFFF80000000
0000000FFFFF801FFFFF00000000
0000000FFFFF801FFFFF00000000
00000007FFFFC03FFFFF00000000
00000007FFFFC03FFFFE00000000
00000007FFFFC03FFFFE00000000
00000003FFFFE07FFFFE00000000
00000003FFFFE07FFFFC00000000
00000003FFFFE07FFFFC00000000
00000001FFFFF0FFFFFC00000000
00000001FFFFF0FFFFF800000000
00000001FFFFF0FFFFF800000000
00000000FFFFF9FFFFF800000000
00000000FFFFF9FFFFF000000000
00000000FFFFF9FFFFF000000000
000000007FFFFFFFFFF000000000
000000007FFFFFFFFFE000000000
000000007FFFFFFFFFE000000000
000000003FFFFFFFFFE000000000
000000003FFFFFFFFFC000000000
000000003FFFFFFFFFC000000000
000000001FFFFFFFFFC000000000
000000001FFFFFFFFF8000000000
000000001FFFFFFFFF8000000000
000000000FFFFFFFFF8000000000
000000000FFFFFFFFF0000000000
000000000FFFFFFFFF0000000000
0000000007FFFFFFFF0000000000
0000000007FFFFFFFE0000000000
0000000007FFFFFFFE0000000000
0000000003FFFFFFFE0000000000
0000000003FFFFFFFC0000000000
0000000003FFFFFFFC0000000000
0000000001FFFFFFFC0000000000
0000000001FFFFFFF80000000000
0000000001FFFFFFF80000000000
0000000000FFFFFFF80000000000
0000000000FFFFFFF00000000000
0000000000FFFFFFF00000000000
00000000007FFFFFF00000000000
00000000007FFFFFE00000000000
00000000007FFFFFE00000000000
ENDCHAR
STARTCHAR 0057
ENCODING 87
SWIDTH 894 0
DWIDTH 161 0
BBX 144 125 1 0
BITMAP
FFFFFC0000000003FFFFF0000000003FFFFF
FFFFFC0000000003FFFFF0000000003FFFFF
FFFFFC0000000003FFFFF0000000003FFFFF
FFFFFC0000000003FFFFF0000000003FFFFF
FFFFFC0000000003FFFFF0000000003FFFFF
FFFFFC0000000003FFFFF0000000003FFFFF
FFFFFC0000000003FFFFF0000000003FFFFF
FFFFFC0000000003FFFFF0000000003FFFFF
FFFFFC0000000003FFFFF0000000003FFFFF
FFFFFC0000000003FFFFF0000000003FFFFF
FFFFFC0000000003FFFFF0000000003FFFFF
FFFFFC0000000003FFFFF0000000003FFFFF
FFFFFC0000000003FFFFF0000000003FFFFF
FFFFFC0000000003FFFFF0000000003FFFFF
FFFFFC0000000003FFFFF0000000003FFFFF
FFFFFC0000000003FFFFF0000000003FFFFF
FFFFFC0000000003FFFFF0000000003FFFFF
FFFFFC0000000003FFFFF0000000003FFFFF
FFFFFC0000000003FFFFF0000000003FFFFF
FFFFFC0000000003FFFFF0000000003FFFFF
FFFFFC0000000003FFFFF0000000003FFFFF
FFFFFC0000000003FFFFF0000000003FFFFF
FFFFFC0000000003FFFFF0000000003FFFFF
FFFFFC0000000003FFFFF0000000003FFFFF
FFFFFC0000000003FFFFF0000000003FFFFF
FFFFFC0000000003FFFFF0000000003FFFFF
FFFFFC0000000003FFFFF0000000003FFFFF
FFFFFC0000000003FFFFF0000000003FFFFF
FFFFFC0000000003FFFFF0000000003FFFFF
FFFFFC0000000003FFFFF0000000003FFFFF
FFFFFC0000000003FFFFF0000000003FFFFF
FFFFFC0000000003FFFFF0000000003FFFFF
FFFFFC0000000003FFFFF0000000003FFFFF
FFFFFC0000000003FFFFF0000000003FFFFF
FFFFFC0000000003FFFFF0000000003FFFFF
FFFFFC0000000003FFFFF0000000003FFFFF
FFFFFC0000000003FFFFF0000000003FFFFF
FFFFFC0000000003FFFFF0000000003FFFFF
FFFFFC0000000003FFFFF0000000003FFFFF
FFFFFC0000000003FFFFF0000000003FFFFF
FFFFFC0000000003FFFFF0000000003FFFFF
FFFFFC0000000003FFFFF0000000003FFFFF
FFFFFC0000000003FFFFF0000000003FFFFF
FFFFFC0000000003FFFFF0000000003FFFFF
FFFFFC0000000003FFFFF0000000003FFFFF
FFFFFC0000000003FFFFF0000000003FFFFF
FFFFFC0000000003FFFFF0000000003FFFFF
FFFFFC0000000003FFFFF0000000003FFFFF
FFFFFC0000000003FFFFF0000000003FFFFF
FFFFFC0000000003FFFFF0000000003FFFFF
FFFFFC0000000003FFFFF0000000003FFFFF
FFFFFC0000000003FFFFF0000000003FFFFF
FFFFFC0000000003FFFFF0000000003FFFFF
FFFFFC0000000003FFFFF0000000003FFFFF
FFFFFC0000000003FFFFF0000000003FFFFF
FFFFFC0000000003FFFFF0000000003FFFFF
FFFFFC0000000003FFFFF0000000003FFFFF
FFFFFC0000000003FFFFF0000000003FFFFF
FFFFFC0000000003FFFFF0000000003FFFFF
FFFFFC0000000003FFFFF0000000003FFFFF
FFFFFC0000000003FFFFF0000000003FFFFF
FFFFFC0000000003FFFFF0000000003FFFFF
FFFFFC0000000003FFFFF0000000003FFFFF
FFFFFC0000000003FFFFF0000000003FFFFF
FFFFFC0000000003FFFFF0000000003FFFFF
FFFFFC0000000003FFFFF0000000003FFFFF
FFFFFC0000000003FFFFF0000000003FFFFF
FFFFFC0000000003FFFFF0000000003FFFFF
FFFFFC0000000003FFFFF0000000003FFFFF
FFFFFC0000000003FFFFF0000000003FFFFF
FFFFFC0000000003FFFFF0000000003FFFFF
FFFFFC0000000003FFFFF0000000003FFFFF
FFFFFC0000000003FFFFF0000000003FFFFF
FFFFFC0000000003FFFFF0000000003FFFFF
FFFFFC0000000003FFFFF0000000003FFFFF
FFFFFC0000000003FFFFF0000000003FFFFF
FFFFFC0000000003FFFFF0000000003FFFFF
FFFFFC0000000003FFFFF0000000003FFFFF
FFFFFC0000000003FFFFF0000000003FFFFF
FFFFFC0000000003FFFFF0000000003FFFFF
FFFFFC0000000003FFFFF0000000003FFFFF
FFFFFC0000000003FFFFF0000000003FFFFF
FFFFFC0000000003FFFFF0000000003FFFFF
FFFFFC0000000003FFFFF0000000003FFFFF
FFFFFC0000000003FFFFF0000000003FFFFF
FFFFFC0000000003FFFFF0000000003FFFFF
FFFFFC0000000003FFFFF0000000003FFFFF
FFFFFC0000000003FFFFF0000000003FFFFF
FFFFFC0000000003FFFFF0000000003FFFFF
FFFFFC0000000003FFFFF0000000003FFFFF
FFFFFC0000000003FFFFF0000000003FFFFF
FFFFFC0000000003FFFFF0000000003FFFFF
FFFFFC0000000003FFFFF0000000003FFFFF
FFFFFC0000000003FFFFF0000000003FFFFF
FFFFFC0000000003FFFFF0000000003FFFFF
FFFFFC0000000003FFFFF0000000003FFFFF
FFFFFC0000000003FFFFF0000000003FFFFF
FFFFFC0000000003FFFFF0000000003FFFFF
FFFFFC0000000003FFFFF0000000003FFFFF
FFFFFC0000000003FFFFF0000000003FFFFF
FFFFFC0000000003FFFFF0000000003FFFFF
FFFFFC0000000003FFFFF0000000003FFFFF
FFFFFC0000000003FFFFF0000000003FFFFF
FFFFFFFFFFFFFFFFFFFFFFFFFFFFFFFFFFFF
FFFFFFFFFFFFFFFFFFFFFFFFFFFFFFFFFFFF
FFFFFFFFFFFFFFFFFFFFFFFFFFFFFFFFFFFF
FFFFFFFFFFFFFFFFFFFFFFFFFFFFFFFFFFFF
FFFFFFFFFFFFFFFFFFFFFFFFFFFFFFFFFFFF
7FFFFFFFFFFFFFFFFFFFFFFFFFFFFFFFFFFE
7FFFFFFFFFFFFFFFFFFFFFFFFFFFFFFFFFFE
7FFFFFFFFFFFFFFFFFFFFFFFFFFFFFFFFFFE
3FFFFFFFFFFFFFFFFFFFFFFFFFFFFFFFFFFC
3FFFFFFFFFFFFFFFFFFFFFFFFFFFFFFFFFFC
1FFFFFFFFFFFFFFFFFFFFFFFFFFFFFFFFFF8
1FFFFFFFFFFFFFFFFFFFFFFFFFFFFFFFFFF8
0FFFFFFFFFFFFFFFFFFFFFFFFFFFFFFFFFF0
07FFFFFFFFFFFFFFFFFFFFFFFFFFFFFFFFE0
07FFFFFFFFFFFFFFFFFFFFFFFFFFFFFFFFC0
03FFFFFFFFFFFFFFFFFFFFFFFFFFFFFFFF80
01FFFFFFFFFFFFFFFF1FFFFFFFFFFFFFFF00
007FFFFFFFFFFFFFFE0FFFFFFFFFFFFFFE00
003FFFFFFFFFFFFFFC07FFFFFFFFFFFFFC00
000FFFFFFFFFFFFFF001FFFFFFFFFFFFF000
0003FFFFFFFFFFFFC0007FFFFFFFFFFFC000
00007FFFFFFFFFFC000007FFFFFFFFFE0000
ENDCHAR
STARTCHAR 0058
ENCODING 88
SWIDTH 677 0
DWIDTH 122 0
BBX 108 125 1 0
BITMAP
FFFFFFC00000000000001FFFFFE0
7FFFFFC00000000000003FFFFFC0
3FFFFFE00000000000007FFFFF80
3FFFFFF00000000000007FFFFF80
1FFFFFF0000000000000FFFFFF00
0FFFFFF8000000000001FFFFFE00
0FFFFFFC000000000001FFFFFE00
07FFFFFC000000000003FFFFFC00
03FFFFFE000000000007FFFFF800
03FFFFFE000000000007FFFFF800
01FFFFFF00000000000FFFFFF000
00FFFFFF80000000001FFFFFE000
00FFFFFF80000000001FFFFFE000
007FFFFFC0000000003FFFFFC000
003FFFFFE0000000007FFFFF8000
003FFFFFE0000000007FFFFF8000
001FFFFFF000000000FFFFFF0000
000FFFFFF800000001FFFFFE0000
000FFFFFF800000001FFFFFE0000
0007FFFFFC00000003FFFFFC0000
0003FFFFFE00000007FFFFF80000
0003FFFFFE00000007FFFFF80000
0001FFFFFF0000000FFFFFF00000
0000FFFFFF8000001FFFFFE00000
0000FFFFFF8000001FFFFFE00000
00007FFFFFC000003FFFFFC00000
00003FFFFFE000007FFFFF800000
00003FFFFFE000007FFFFF800000
00001FFFFFF00000FFFFFF000000
00000FFFFFF80001FFFFFE000000
00000FFFFFF80001FFFFFE000000
000007FFFFFC0003FFFFFC000000
000003FFFFFE0007FFFFF8000000
000003FFFFFE0007FFFFF8000000
000001FFFFFF000FFFFFF0000000
000000FFFFFF801FFFFFE0000000
000000FFFFFF801FFFFFE0000000
0000007FFFFFC03FFFFFC0000000
0000003FFFFFE07FFFFF80000000
0000003FFFFFE07FFFFF80000000
0000001FFFFFF0FFFFFF00000000
0000000FFFFFF9FFFFFE00000000
0000000FFFFFF9FFFFFE00000000
00000007FFFFFFFFFFFC00000000
00000003FFFFFFFFFFF800000000
00000003FFFFFFFFFFF800000000
00000001FFFFFFFFFFF000000000
00000001FFFFFFFFFFE000000000
00000000FFFFFFFFFFE000000000
000000007FFFFFFFFFC000000000
000000007FFFFFFFFF8000000000
000000003FFFFFFFFF8000000000
000000001FFFFFFFFF0000000000
000000001FFFFFFFFE0000000000
000000000FFFFFFFFE0000000000
0000000007FFFFFFFC0000000000
0000000007FFFFFFF80000000000
0000000003FFFFFFF80000000000
0000000001FFFFFFF00000000000
0000000001FFFFFFE00000000000
0000000000FFFFFFE00000000000
00000000007FFFFFC00000000000
00000000007FFFFFE00000000000
00000000007FFFFFE00000000000
0000000000FFFFFFF00000000000
0000000001FFFFFFF80000000000
0000000001FFFFFFF80000000000
0000000003FFFFFFFC0000000000
0000000007FFFFFFFE0000000000
0000000007FFFFFFFE0000000000
000000000FFFFFFFFF0000000000
000000001FFFFFFFFF8000000000
000000001FFFFFFFFF8000000000
000000003FFFFFFFFFC000000000
000000007FFFFFFFFFE000000000
000000007FFFFFFFFFE000000000
00000000FFFFFFFFFFF000000000
00000001FFFFFFFFFFF800000000
00000001FFFFFFFFFFF800000000
00000003FFFFFFFFFFFC00000000
00000007FFFFFFFFFFFE00000000
00000007FFFFFBFFFFFE00000000
0000000FFFFFF1FFFFFF00000000
0000001FFFFFF1FFFFFF80000000
0000001FFFFFE0FFFFFF80000000
0000003FFFFFC07FFFFFC0000000
0000003FFFFFC07FFFFFE0000000
0000007FFFFF803FFFFFE0000000
000000FFFFFF001FFFFFF0000000
000000FFFFFF001FFFFFF8000000
000001FFFFFE000FFFFFF8000000
000003FFFFFC0007FFFFFC000000
000003FFFFFC0007FFFFFE000000
000007FFFFF80003FFFFFE000000
00000FFFFFF00001FFFFFF000000
00000FFFFFF00001FFFFFF800000
00001FFFFFE00000FFFFFF800000
00003FFFFFC000007FFFFFC00000
00003FFFFFC000007FFFFFE00000
00007FFFFF8000003FFFFFE00000
0000FFFFFF0000001FFFFFF00000
0000FFFFFF0000001FFFFFF80000
0001FFFFFE0000000FFFFFF80000
0003FFFFFC00000007FFFFFC0000
0003FFFFFC00000007FFFFFC0000
0007FFFFF800000003FFFFFE0000
000FFFFFF000000001FFFFFF0000
000FFFFFF000000001FFFFFF0000
001FFFFFE000000000FFFFFF8000
003FFFFFC0000000007FFFFFC000
003FFFFFC0000000007FFFFFC000
007FFFFF80000000003FFFFFE000
00FFFFFF00000000001FFFFFF000
00FFFFFF00000000001FFFFFF000
01FFFFFE00000000000FFFFFF800
03FFFFFC000000000007FFFFFC00
03FFFFFC000000000007FFFFFC00
07FFFFF8000000000003FFFFFE00
0FFFFFF0000000000001FFFFFF00
0FFFFFF0000000000001FFFFFF00
1FFFFFE0000000000000FFFFFF80
3FFFFFC00000000000007FFFFFC0
3FFFFFC00000000000007FFFFFC0
7FFFFF800000000000003FFFFFE0
FFFFFF000000000000001FFFFFF0
ENDCHAR
STARTCHAR 0059
ENCODING 89
SWIDTH 638 0
DWIDTH 115 0
BBX 108 125 1 0
BITMAP
FFFFFC0000000000000003FFFFF0
7FFFFE0000000000000007FFFFE0
3FFFFE0000000000000007FFFFE0
3FFFFF000000000000000FFFFFC0
1FFFFF800000000000001FFFFF80
0FFFFFC00000000000003FFFFF00
0FFFFFC00000000000003FFFFF00
07FFFFE00000000000007FFFFE00
03FFFFF0000000000000FFFFFC00
01FFFFF8000000000001FFFFFC00
01FFFFF8000000000001FFFFF800
00FFFFFC000000000003FFFFF000
007FFFFE000000000007FFFFF000
007FFFFF00000000000FFFFFE000
003FFFFF00000000000FFFFFC000
001FFFFF80000000001FFFFFC000
001FFFFFC0000000003FFFFF8000
000FFFFFE0000000007FFFFF0000
0007FFFFE0000000007FFFFE0000
0007FFFFF000000000FFFFFE0000
0003FFFFF800000001FFFFFC0000
0001FFFFFC00000001FFFFF80000
0000FFFFFC00000003FFFFF80000
0000FFFFFE00000007FFFFF00000
00007FFFFF0000000FFFFFE00000
00003FFFFF8000000FFFFFE00000
00003FFFFF8000001FFFFFC00000
00001FFFFFC000003FFFFF800000
00000FFFFFE000007FFFFF800000
00000FFFFFF000007FFFFF000000
000007FFFFF00000FFFFFE000000
000003FFFFF80001FFFFFC000000
000003FFFFFC0003FFFFFC000000
000001FFFFFE0003FFFFF8000000
000000FFFFFE0007FFFFF0000000
000000FFFFFF000FFFFFF0000000
0000007FFFFF801FFFFFE0000000
0000003FFFFF801FFFFFC0000000
0000001FFFFFC03FFFFFC0000000
0000001FFFFFE07FFFFF80000000
0000000FFFFFF0FFFFFF00000000
00000007FFFFF0FFFFFF00000000
00000007FFFFF9FFFFFE00000000
00000003FFFFFFFFFFFC00000000
00000001FFFFFFFFFFF800000000
00000001FFFFFFFFFFF800000000
00000000FFFFFFFFFFF000000000
000000007FFFFFFFFFE000000000
000000007FFFFFFFFFE000000000
000000003FFFFFFFFFC000000000
000000001FFFFFFFFF8000000000
000000001FFFFFFFFF8000000000
000000000FFFFFFFFF0000000000
0000000007FFFFFFFE0000000000
0000000003FFFFFFFE0000000000
0000000003FFFFFFFC0000000000
0000000001FFFFFFF80000000000
0000000000FFFFFFF00000000000
0000000000FFFFFFF00000000000
00000000007FFFFFE00000000000
00000000003FFFFFC00000000000
00000000003FFFFFC00000000000
00000000001FFFFF800000000000
00000000001FFFFF800000000000
00000000001FFFFF800000000000
00000000001FFFFF800000000000
00000000001FFFFF800000000000
00000000001FFFFF800000000000
00000000001FFFFF800000000000
00000000001FFFFF800000000000
00000000001FFFFF800000000000
00000000001FFFFF800000000000
00000000001FFFFF800000000000
00000000001FFFFF800000000000
00000000001FFFFF800000000000
00000000001FFFFF800000000000
00000000001FFFFF800000000000
00000000001FFFFF800000000000
00000000001FFFFF800000000000
00000000001FFFFF800000000000
00000000001FFFFF800000000000
00000000001FFFFF800000000000
00000000001FFFFF800000000000
00000000001FFFFF800000000000
00000000001FFFFF800000000000
00000000001FFFFF800000000000
00000000001FFFFF800000000000
00000000001FFFFF800000000000
00000000001FFFFF800000000000
00000000001FFFFF800000000000
00000000001FFFFF800000000000
00000000001FFFFF800000000000
00000000001FFFFF800000000000
00000000001FFFFF800000000000
00000000001FFFFF800000000000
00000000001FFFFF800000000000
00000000001FFFFF800000000000
00000000001FFFFF800000000000
00000000001FFFFF800000000000
00000000001FFFFF800000000000
00000000001FFFFF800000000000
00000000001FFFFF800000000000
00000000001FFFFF800000000000
00000000001FFFFF800000000000
00000000001FFFFF800000000000
00000000001FFFFF800000000000
00000000001FFFFF800000000000
00000000001FFFFF800000000000
00000000001FFFFF800000000000
00000000001FFFFF800000000000
00000000001FFFFF800000000000
00000000001FFFFF800000000000
00000000001FFFFF800000000000
00000000001FFFFF800000000000
00000000001FFFFF800000000000
00000000001FFFFF800000000000
00000000001FFFFF800000000000
00000000001FFFFF800000000000
00000000001FFFFF800000000000
00000000001FFFFF800000000000
00000000001FFFFF800000000000
00000000001FFFFF800000000000
00000000001FFFFF800000000000
00000000001FFFFF800000000000
00000000001FFFFF800000000000
ENDCHAR
STARTCHAR 005A
ENCODING 90
SWIDTH 672 0
DWIDTH 121 0
BBX 109 125 1 0
BITMAP
FFFFFFFFFFFFFFFFFFFFFFFFFFF8
FFFFFFFFFFFFFFFFFFFFFFFFFFF0
FFFFFFFFFFFFFFFFFFFFFFFFFFE0
FFFFFFFFFFFFFFFFFFFFFFFFFFE0
FFFFFFFFFFFFFFFFFFFFFFFFFFC0
FFFFFFFFFFFFFFFFFFFFFFFFFF80
FFFFFFFFFFFFFFFFFFFFFFFFFF80
FFFFFFFFFFFFFFFFFFFFFFFFFF00
FFFFFFFFFFFFFFFFFFFFFFFFFE00
FFFFFFFFFFFFFFFFFFFFFFFFFE00
FFFFFFFFFFFFFFFFFFFFFFFFFC00
FFFFFFFFFFFFFFFFFFFFFFFFF800
FFFFFFFFFFFFFFFFFFFFFFFFF800
FFFFFFFFFFFFFFFFFFFFFFFFF000
FFFFFFFFFFFFFFFFFFFFFFFFF000
FFFFFFFFFFFFFFFFFFFFFFFFE000
FFFFFFFFFFFFFFFFFFFFFFFFC000
FFFFFFFFFFFFFFFFFFFFFFFFC000
FFFFFFFFFFFFFFFFFFFFFFFF8000
FFFFFFFFFFFFFFFFFFFFFFFF0000
FFFFFFFFFFFFFFFFFFFFFFFF0000
FFFFFFFFFFFFFFFFFFFFFFFE0000
00000000000000003FFFFFFC0000
00000000000000007FFFFFFC0000
00000000000000007FFFFFF80000
0000000000000000FFFFFFF00000
0000000000000001FFFFFFF00000
0000000000000001FFFFFFE00000
0000000000000003FFFFFFE00000
0000000000000007FFFFFFC00000
0000000000000007FFFFFF800000
000000000000000FFFFFFF800000
000000000000001FFFFFFF000000
000000000000001FFFFFFE000000
000000000000003FFFFFFE000000
000000000000003FFFFFFC000000
000000000000007FFFFFF8000000
00000000000000FFFFFFF8000000
00000000000000FFFFFFF0000000
00000000000001FFFFFFE0000000
00000000000003FFFFFFE0000000
00000000000003FFFFFFC0000000
00000000000007FFFFFFC0000000
0000000000000FFFFFFF80000000
0000000000000FFFFFFF00000000
0000000000001FFFFFFF00000000
0000000000003FFFFFFE00000000
0000000000003FFFFFFC00000000
0000000000007FFFFFFC00000000
0000000000007FFFFFF800000000
000000000000FFFFFFF000000000
000000000001FFFFFFF000000000
000000000001FFFFFFE000000000
000000000003FFFFFFC000000000
000000000007FFFFFFC000000000
000000000007FFFFFF8000000000
00000000000FFFFFFF8000000000
00000000001FFFFFFF0000000000
00000000001FFFFFFE0000000000
00000000003FFFFFFE0000000000
00000000007FFFFFFC0000000000
00000000007FFFFFF80000000000
0000000000FFFFFFF80000000000
0000000000FFFFFFF00000000000
0000000001FFFFFFE00000000000
0000000003FFFFFFE00000000000
0000000003FFFFFFC00000000000
0000000007FFFFFF800000000000
000000000FFFFFFF800000000000
000000000FFFFFFF000000000000
000000001FFFFFFF000000000000
000000003FFFFFFE000000000000
000000003FFFFFFC000000000000
000000007FFFFFFC000000000000
00000000FFFFFFF8000000000000
00000000FFFFFFF0000000000000
00000001FFFFFFF0000000000000
00000001FFFFFFE0000000000000
00000003FFFFFFC0000000000000
00000007FFFFFFC0000000000000
00000007FFFFFF80000000000000
0000000FFFFFFF00000000000000
0000001FFFFFFF00000000000000
0000001FFFFFFE00000000000000
0000003FFFFFFE00000000000000
0000007FFFFFFC00000000000000
0000007FFFFFF800000000000000
000000FFFFFFF800000000000000
000001FFFFFFF000000000000000
000001FFFFFFE000000000000000
000003FFFFFFE000000000000000
000003FFFFFFC000000000000000
000007FFFFFF8000000000000000
00000FFFFFFF8000000000000000
00000FFFFFFF0000000000000000
00001FFFFFFF0000000000000000
00003FFFFFFE0000000000000000
00003FFFFFFC0000000000000000
00007FFFFFFC0000000000000000
0000FFFFFFF80000000000000000
0000FFFFFFF00000000000000000
0001FFFFFFF00000000000000000
0003FFFFFFE00000000000000000
0003FFFFFFFFFFFFFFFFFFFFFFF0
0007FFFFFFFFFFFFFFFFFFFFFFF0
0007FFFFFFFFFFFFFFFFFFFFFFF0
000FFFFFFFFFFFFFFFFFFFFFFFF0
001FFFFFFFFFFFFFFFFFFFFFFFF0
001FFFFFFFFFFFFFFFFFFFFFFFF0
003FFFFFFFFFFFFFFFFFFFFFFFF0
007FFFFFFFFFFFFFFFFFFFFFFFF0
007FFFFFFFFFFFFFFFFFFFFFFFF0
00FFFFFFFFFFFFFFFFFFFFFFFFF0
01FFFFFFFFFFFFFFFFFFFFFFFFF0
01FFFFFFFFFFFFFFFFFFFFFFFFF0
03FFFFFFFFFFFFFFFFFFFFFFFFF0
07FFFFFFFFFFFFFFFFFFFFFFFFF0
07FFFFFFFFFFFFFFFFFFFFFFFFF0
0FFFFFFFFFFFFFFFFFFFFFFFFFF0
0FFFFFFFFFFFFFFFFFFFFFFFFFF0
1FFFFFFFFFFFFFFFFFFFFFFFFFF0
3FFFFFFFFFFFFFFFFFFFFFFFFFF0
3FFFFFFFFFFFFFFFFFFFFFFFFFF0
7FFFFFFFFFFFFFFFFFFFFFFFFFF0
FFFFFFFFFFFFFFFFFFFFFFFFFFF0
ENDCHAR
STARTCHAR 005B
ENCODING 91
SWIDTH 377 0
DWIDTH 68 0
BBX 54 125 1 0
BITMAP
FFFFFFFFFFFFFC
FFFFFFFFFFFFFC
FFFFFFFFFFFFFC
FFFFFFFFFFFFFC
FFFFFFFFFFFFFC
FFFFFFFFFFFFFC
FFFFFFFFFFFFFC
FFFFFFFFFFFFFC
FFFFFFFFFFFFFC
FFFFFFFFFFFFFC
FFFFFFFFFFFFFC
FFFFFFFFFFFFFC
FFFFFFFFFFFFFC
FFFFFFFFFFFFFC
FFFFFFFFFFFFFC
FFFFFFFFFFFFFC
FFFFFFFFFFFFFC
FFFFFFFFFFFFFC
FFFFFFFFFFFFFC
FFFFFFFFFFFFFC
FFFFFFFFFFFFFC
FFFFFFFFFFFFFC
FFFFFC00000000
FFFFFC00000000
FFFFFC00000000
FFFFFC00000000
FFFFFC00000000
FFFFFC00000000
FFFFFC00000000
FFFFFC00000000
FFFFFC00000000
FFFFFC00000000
FFFFFC00000000
FFFFFC00000000
FFFFFC00000000
FFFFFC00000000
FFFFFC00000000
FFFFFC00000000
FFFFFC00000000
FFFFFC00000000
FFFFFC00000000
FFFFFC00000000
FFFFFC00000000
FFFFFC00000000
FFFFFC00000000
FFFFFC00000000
FFFFFC00000000
FFFFFC00000000
FFFFFC00000000
FFFFFC00000000
FFFFFC00000000
FFFFFC00000000
FFFFFC00000000
FFFFFC00000000
FFFFFC00000000
FFFFFC00000000
FFFFFC00000000
FFFFFC00000000
FFFFFC00000000
FFFFFC00000000
FFFFFC00000000
FFFFFC00000000
FFFFFC00000000
FFFFFC00000000
FFFFFC00000000
FFFFFC00000000
FFFFFC00000000
FFFFFC00000000
FFFFFC00000000
FFFFFC00000000
FFFFFC00000000
FFFFFC00000000
FFFFFC00000000
FFFFFC00000000
FFFFFC00000000
FFFFFC00000000
FFFFFC00000000
FFFFFC00000000
FFFFFC00000000
FFFFFC00000000
FFFFFC00000000
FFFFFC00000000
FFFFFC00000000
FFFFFC00000000
FFFFFC00000000
FFFFFC00000000
FFFFFC00000000
FFFFFC00000000
FFFFFC00000000
FFFFFC00000000
FFFFFC00000000
FFFFFC00000000
FFFFFC00000000
FFFFFC00000000
FFFFFC00000000
FFFFFC00000000
FFFFFC00000000
FFFFFC00000000
FFFFFC00000000
FFFFFC00000000
FFFFFC00000000
FFFFFC00000000
FFFFFC00000000
FFFFFFFFFFFFFC
FFFFFFFFFFFFFC
FFFFFFFFFFFFFC
FFFFFFFFFFFFFC
FFFFFFFFFFFFFC
FFFFFFFFFFFFFC
FFFFFFFFFFFFFC
FFFFFFFFFFFFFC
FFFFFFFFFFFFFC
FFFFFFFFFFFFFC
FFFFFFFFFFFFFC
FFFFFFFFFFFFFC
FFFFFFFFFFFFFC
FFFFFFFFFFFFFC
FFFFFFFFFFFFFC
FFFFFFFFFFFFFC
FFFFFFFFFFFFFC
FFFFFFFFFFFFFC
FFFFFFFFFFFFFC
FFFFFFFFFFFFFC
FFFFFFFFFFFFFC
FFFFFFFFFFFFFC
ENDCHAR
STARTCHAR 005C
ENCODING 92
SWIDTH 627 0
DWIDTH 113 0
BBX 108 125 1 0
BITMAP
FFFFFFC000000000000000000000
7FFFFFC000000000000000000000
3FFFFFE000000000000000000000
3FFFFFF000000000000000000000
1FFFFFF000000000000000000000
0FFFFFF800000000000000000000
0FFFFFFC00000000000000000000
07FFFFFC00000000000000000000
03FFFFFE00000000000000000000
03FFFFFE00000000000000000000
01FFFFFF00000000000000000000
00FFFFFF80000000000000000000
00FFFFFF80000000000000000000
007FFFFFC0000000000000000000
003FFFFFE0000000000000000000
003FFFFFE0000000000000000000
001FFFFFF0000000000000000000
000FFFFFF8000000000000000000
000FFFFFF8000000000000000000
0007FFFFFC000000000000000000
0003FFFFFE000000000000000000
0003FFFFFE000000000000000000
0001FFFFFF000000000000000000
0000FFFFFF800000000000000000
0000FFFFFF800000000000000000
00007FFFFFC00000000000000000
00003FFFFFE00000000000000000
00003FFFFFE00000000000000000
00001FFFFFF00000000000000000
00000FFFFFF80000000000000000
00000FFFFFF80000000000000000
000007FFFFFC0000000000000000
000003FFFFFE0000000000000000
000003FFFFFE0000000000000000
000001FFFFFF0000000000000000
000000FFFFFF8000000000000000
000000FFFFFF8000000000000000
0000007FFFFFC000000000000000
0000003FFFFFE000000000000000
0000003FFFFFE000000000000000
0000001FFFFFF000000000000000
0000000FFFFFF800000000000000
0000000FFFFFF800000000000000
00000007FFFFFC00000000000000
00000003FFFFFE00000000000000
00000003FFFFFE00000000000000
00000001FFFFFF00000000000000
00000000FFFFFF80000000000000
00000000FFFFFF80000000000000
000000007FFFFFC0000000000000
000000007FFFFFE0000000000000
000000003FFFFFE0000000000000
000000001FFFFFF0000000000000
000000001FFFFFF8000000000000
000000000FFFFFF8000000000000
0000000007FFFFFC000000000000
0000000007FFFFFE000000000000
0000000003FFFFFE000000000000
0000000001FFFFFF000000000000
0000000001FFFFFF800000000000
0000000000FFFFFF800000000000
00000000007FFFFFC00000000000
00000000007FFFFFE00000000000
00000000003FFFFFE00000000000
00000000001FFFFFF00000000000
00000000001FFFFFF80000000000
00000000000FFFFFF80000000000
000000000007FFFFFC0000000000
000000000007FFFFFE0000000000
000000000003FFFFFE0000000000
000000000001FFFFFF0000000000
000000000001FFFFFF8000000000
000000000000FFFFFF8000000000
0000000000007FFFFFC000000000
0000000000007FFFFFE000000000
0000000000003FFFFFE000000000
0000000000001FFFFFF000000000
0000000000001FFFFFF800000000
0000000000000FFFFFF800000000
00000000000007FFFFFC00000000
00000000000007FFFFFE00000000
00000000000003FFFFFE00000000
00000000000001FFFFFF00000000
00000000000001FFFFFF80000000
00000000000000FFFFFF80000000
000000000000007FFFFFC0000000
000000000000007FFFFFE0000000
000000000000003FFFFFE0000000
000000000000001FFFFFF0000000
000000000000001FFFFFF8000000
000000000000000FFFFFF8000000
0000000000000007FFFFFC000000
0000000000000007FFFFFE000000
0000000000000003FFFFFE000000
0000000000000001FFFFFF000000
0000000000000001FFFFFF800000
0000000000000000FFFFFF800000
00000000000000007FFFFFC00000
00000000000000007FFFFFE00000
00000000000000003FFFFFE00000
00000000000000001FFFFFF00000
00000000000000001FFFFFF80000
00000000000000000FFFFFF80000
000000000000000007FFFFFC0000
000000000000000007FFFFFC0000
000000000000000003FFFFFE0000
000000000000000001FFFFFF0000
000000000000000001FFFFFF0000
000000000000000000FFFFFF8000
0000000000000000007FFFFFC000
0000000000000000007FFFFFC000
0000000000000000003FFFFFE000
0000000000000000001FFFFFF000
0000000000000000001FFFFFF000
0000000000000000000FFFFFF800
00000000000000000007FFFFFC00
00000000000000000007FFFFFC00
00000000000000000003FFFFFE00
00000000000000000001FFFFFF00
00000000000000000001FFFFFF00
00000000000000000000FFFFFF80
000000000000000000007FFFFFC0
000000000000000000007FFFFFC0
000000000000000000003FFFFFE0
000000000000000000001FFFFFF0
ENDCHAR
STARTCHAR 005D
ENCODING 93
SWIDTH 400 0
DWIDTH 72 0
BBX 54 125 1 0
BITMAP
FFFFFFFFFFFFFC
FFFFFFFFFFFFFC
FFFFFFFFFFFFFC
FFFFFFFFFFFFFC
FFFFFFFFFFFFFC
FFFFFFFFFFFFFC
FFFFFFFFFFFFFC
FFFFFFFFFFFFFC
FFFFFFFFFFFFFC
FFFFFFFFFFFFFC
FFFFFFFFFFFFFC
FFFFFFFFFFFFFC
FFFFFFFFFFFFFC
FFFFFFFFFFFFFC
FFFFFFFFFFFFFC
FFFFFFFFFFFFFC
FFFFFFFFFFFFFC
FFFFFFFFFFFFFC
FFFFFFFFFFFFFC
FFFFFFFFFFFFFC
FFFFFFFFFFFFFC
FFFFFFFFFFFFFC
00000000FFFFFC
00000000FFFFFC
00000000FFFFFC
00000000FFFFFC
00000000FFFFFC
00000000FFFFFC
00000000FFFFFC
00000000FFFFFC
00000000FFFFFC
00000000FFFFFC
00000000FFFFFC
00000000FFFFFC
00000000FFFFFC
00000000FFFFFC
00000000FFFFFC
00000000FFFFFC
00000000FFFFFC
00000000FFFFFC
00000000FFFFFC
00000000FFFFFC
00000000FFFFFC
00000000FFFFFC
00000000FFFFFC
00000000FFFFFC
00000000FFFFFC
00000000FFFFFC
00000000FFFFFC
00000000FFFFFC
00000000FFFFFC
00000000FFFFFC
00000000FFFFFC
00000000FFFFFC
00000000FFFFFC
00000000FFFFFC
00000000FFFFFC
00000000FFFFFC
00000000FFFFFC
00000000FFFFFC
00000000FFFFFC
00000000FFFFFC
00000000FFFFFC
00000000FFFFFC
00000000FFFFFC
00000000FFFFFC
00000000FFFFFC
00000000FFFFFC
00000000FFFFFC
00000000FFFFFC
00000000FFFFFC
00000000FFFFFC
00000000FFFFFC
00000000FFFFFC
00000000FFFFFC
00000000FFFFFC
00000000FFFFFC
00000000FFFFFC
00000000FFFFFC
00000000FFFFFC
00000000FFFFFC
00000000FFFFFC
00000000FFFFFC
00000000FFFFFC
00000000FFFFFC
00000000FFFFFC
00000000FFFFFC
00000000FFFFFC
00000000FFFFFC
00000000FFFFFC
00000000FFFFFC
00000000FFFFFC
00000000FFFFFC
00000000FFFFFC
00000000FFFFFC
00000000FFFFFC
00000000FFFFFC
00000000FFFFFC
00000000FFFFFC
00000000FFFFFC
00000000FFFFFC
00000000FFFFFC
00000000FFFFFC
FFFFFFFFFFFFFC
FFFFFFFFFFFFFC
FFFFFFFFFFFFFC
FFFFFFFFFFFFFC
FFFFFFFFFFFFFC
FFFFFFFFFFFFFC
FFFFFFFFFFFFFC
FFFFFFFFFFFFFC
FFFFFFFFFFFFFC
FFFFFFFFFFFFFC
FFFFFFFFFFFFFC
FFFFFFFFFFFFFC
FFFFFFFFFFFFFC
FFFFFFFFFFFFFC
FFFFFFFFFFFFFC
FFFFFFFFFFFFFC
FFFFFFFFFFFFFC
FFFFFFFFFFFFFC
FFFFFFFFFFFFFC
FFFFFFFFFFFFFC
FFFFFFFFFFFFFC
FFFFFFFFFFFFFC
ENDCHAR
STARTCHAR 005E
ENCODING 94
SWIDTH 488 0
DWIDTH 88 0
BBX 72 37 1 88
BITMAP
000000003000000000
00000000FE00000000
00000007FF80000000
0000001FFFF0000000
0000007FFFFC000000
000003FFFFFF000000
00000FFFFFFFE00000
00003FFFFFFFF80000
0001FFFFFFFFFF0000
0007FFFFFFFFFFC000
001FFFFFFFFFFFF800
00FFFFFFFFFFFFFE00
03FFFFFFFFFFFFFF80
1FFFFFFFFFFFFFFFF0
7FFFFFFFFFFFFFFFFC
FFFFFFFFFFFFFFFFFF
FFFFFFFFFFFFFFFFFF
FFFFFFFFFFFFFFFFFF
FFFFFFFFFFFFFFFFFF
FFFFFFFFFFFFFFFFFF
FFFFFFFFFFFFFFFFFF
FFFFFFFFFFFFFFFFFF
FFFFFFFF87FFFFFFFF
FFFFFFFE00FFFFFFFF
FFFFFFF8003FFFFFFF
FFFFFFC00007FFFFFF
FFFFFF000001FFFFFF
FFFFFC0000007FFFFF
FFFFE00000000FFFFF
FFFF8000000003FFFF
FFFE00000000007FFF
FFF000000000001FFF
FFC0000000000007FF
FF00000000000000FF
F8000000000000003F
E00000000000000007
800000000000000001
ENDCHAR
STARTCHAR 005F
ENCODING 95
SWIDTH 800 0
DWIDTH 144 0
BBX 126 22 1 0
BITMAP
FFFFFFFFFFFFFFFFFFFFFFFFFFFFFFFC
FFFFFFFFFFFFFFFFFFFFFFFFFFFFFFFC
FFFFFFFFFFFFFFFFFFFFFFFFFFFFFFFC
FFFFFFFFFFFFFFFFFFFFFFFFFFFFFFFC
FFFFFFFFFFFFFFFFFFFFFFFFFFFFFFFC
FFFFFFFFFFFFFFFFFFFFFFFFFFFFFFFC
FFFFFFFFFFFFFFFFFFFFFFFFFFFFFFFC
FFFFFFFFFFFFFFFFFFFFFFFFFFFFFFFC
FFFFFFFFFFFFFFFFFFFFFFFFFFFFFFFC
FFFFFFFFFFFFFFFFFFFFFFFFFFFFFFFC
FFFFFFFFFFFFFFFFFFFFFFFFFFFFFFFC
FFFFFFFFFFFFFFFFFFFFFFFFFFFFFFFC
FFFFFFFFFFFFFFFFFFFFFFFFFFFFFFFC
FFFFFFFFFFFFFFFFFFFFFFFFFFFFFFFC
FFFFFFFFFFFFFFFFFFFFFFFFFFFFFFFC
FFFFFFFFFFFFFFFFFFFFFFFFFFFFFFFC
FFFFFFFFFFFFFFFFFFFFFFFFFFFFFFFC
FFFFFFFFFFFFFFFFFFFFFFFFFFFFFFFC
FFFFFFFFFFFFFFFFFFFFFFFFFFFFFFFC
FFFFFFFFFFFFFFFFFFFFFFFFFFFFFFFC
FFFFFFFFFFFFFFFFFFFFFFFFFFFFFFFC
FFFFFFFFFFFFFFFFFFFFFFFFFFFFFFFC
ENDCHAR
STARTCHAR 0060
ENCODING 96
SWIDTH 216 0
DWIDTH 39 0
BBX 22 33 1 92
BITMAP
01FE00
0FFF80
1FFFE0
3FFFF0
7FFFF8
7FFFF8
FFFFFC
FFFFFC
FFFFFC
FFFFFC
FFFFFC
FFFFFC
FFFFFC
FFFFFC
FFFFFC
FFFFFC
FFFFFC
FFFFFC
FFFFFC
FFFFFC
FFFFFC
FFFFFC
FFFFFC
3FFFFC
0FFFFC
03FFFC
00FFFC
003FFC
0007FC
0001FC
00007C
00001C
000004
ENDCHAR
STARTCHAR 0061
ENCODING 97
SWIDTH 594 0
DWIDTH 107 0
BBX 90 75 1 0
BITMAP
00000FFFFFFFFFFFFC000000
0000FFFFFFFFFFFFFFC00000
0003FFFFFFFFFFFFFFF00000
000FFFFFFFFFFFFFFFFC0000
003FFFFFFFFFFFFFFFFF0000
007FFFFFFFFFFFFFFFFF8000
00FFFFFFFFFFFFFFFFFFC000
01FFFFFFFFFFFFFFFFFFE000
03FFFFFFFFFFFFFFFFFFF000
07FFFFFFFFFFFFFFFFFFF800
0FFFFFFFFFFFFFFFFFFFFC00
1FFFFFFFFFFFFFFFFFFFFE00
1FFFFFFFFFFFFFFFFFFFFE00
3FFFFFFFFFFFFFFFFFFFFF00
3FFFFFFFFFFFFFFFFFFFFF00
7FFFFFFFFFFFFFFFFFFFFF80
7FFFFFFFFFFFFFFFFFFFFF80
7FFFFFFFFFFFFFFFFFFFFF80
FFFFFFFFFFFFFFFFFFFFFFC0
FFFFFFFFFFFFFFFFFFFFFFC0
FFFFFFFFFFFFFFFFFFFFFFC0
FFFFFFFFFFFFFFFFFFFFFFC0
FFFFFC00000000007FFFFFC0
FFFFFC00000000007FFFFFC0
FFFFFC00000000007FFFFFC0
FFFFFC00000000007FFFFFC0
FFFFFC00000000007FFFFFC0
FFFFFC00000000007FFFFFC0
FFFFFC00000000007FFFFFC0
0000000000000001FFFFFFC0
00000000000001FFFFFFFFC0
000000000001FFFFFFFFFFC0
0000000000FFFFFFFFFFFFC0
00000000FFFFFFFFFFFFFFC0
0000007FFFFFFFFFFFFFFFC0
00003FFFFFFFFFFFFFFFFFC0
0003FFFFFFFFFFFFFFFFFFC0
000FFFFFFFFFFFFFFFFFFFC0
003FFFFFFFFFFFFFFFFFFFC0
00FFFFFFFFFFFFFFFFFFFFC0
03FFFFFFFFFFFFFFFFFFFFC0
07FFFFFFFFFFFFFFFFFFFFC0
0FFFFFFFFFFFFFFFFFFFFFC0
1FFFFFFFFFFFFFFFFFFFFFC0
3FFFFFFFFFFFFFFFFFFFFFC0
3FFFFFFFFFFFFFFFFFFFFFC0
7FFFFFFFFFFFFFFFFFFFFFC0
7FFFFFFFFFFFFFFF7FFFFFC0
FFFFFFFFFFFFFF007FFFFFC0
FFFFFFFFFFFF80007FFFFFC0
FFFFFFFFFF8000007FFFFFC0
FFFFFFFF800000007FFFFFC0
FFFFFFC0000000007FFFFFC0
FFFFFFFFFFFFFFFFFFFFFFC0
FFFFFFFFFFFFFFFFFFFFFFC0
FFFFFFFFFFFFFFFFFFFFFFC0
FFFFFFFFFFFFFFFFFFFFFFC0
FFFFFFFFFFFFFFFFFFFFFFC0
7FFFFFFFFFFFFFFFFFFFFFC0
7FFFFFFFFFFFFFFFFFFFFFC0
7FFFFFFFFFFFFFFFFFFFFFC0
3FFFFFFFFFFFFFFFFFFFFFC0
3FFFFFFFFFFFFFFFFFFFFFC0
1FFFFFFFFFFFFFFFFFFFFFC0
1FFFFFFFFFFFFFFFFFFFFFC0
0FFFFFFFFFFFFFFFFFFFFFC0
07FFFFFFFFFFFFFFFFFFFFC0
03FFFFFFFFFFFFFFFFFFFFC0
01FFFFFFFFFFFFFFFFFFFFC0
00FFFFFFFFFFFFFFFFFFFFC0
007FFFFFFFFFFFFFFFFFFFC0
001FFFFFFFFFFFFFFFFFFFC0
000FFFFFFFFFFFFFFFFFFFC0
0003FFFFFFFFFFFFFFFFFFC0
00003FFFFFFFFFFFFFFFFFC0
ENDCHAR
STARTCHAR 0062
ENCODING 98
SWIDTH 594 0
DWIDTH 107 0
BBX 90 125 1 0
BITMAP
FFFFFC000000000000000000
FFFFFC000000000000000000
FFFFFC000000000000000000
FFFFFC000000000000000000
FFFFFC000000000000000000
FFFFFC000000000000000000
FFFFFC000000000000000000
FFFFFC000000000000000000
FFFFFC000000000000000000
FFFFFC000000000000000000
FFFFFC000000000000000000
FFFFFC000000000000000000
FFFFFC000000000000000000
FFFFFC000000000000000000
FFFFFC000000000000000000
FFFFFC000000000000000000
FFFFFC000000000000000000
FFFFFC000000000000000000
FFFFFC000000000000000000
FFFFFC000000000000000000
FFFFFC000000000000000000
FFFFFC000000000000000000
FFFFFC000000000000000000
FFFFFC000000000000000000
FFFFFC000000000000000000
FFFFFC000000000000000000
FFFFFC000000000000000000
FFFFFC000000000000000000
FFFFFC000000000000000000
FFFFFC000000000000000000
FFFFFC000000000000000000
FFFFFC000000000000000000
FFFFFC000000000000000000
FFFFFC000000000000000000
FFFFFC000000000000000000
FFFFFC000000000000000000
FFFFFC000000000000000000
FFFFFC000000000000000000
FFFFFC000000000000000000
FFFFFC000000000000000000
FFFFFC000000000000000000
FFFFFC000000000000000000
FFFFFC000000000000000000
FFFFFC000000000000000000
FFFFFC000000000000000000
FFFFFC000000000000000000
FFFFFC000000000000000000
FFFFFC000000000000000000
FFFFFC000000000000000000
FFFFFC000000000000000000
FFFFFFFFFFFFFFFFFC000000
FFFFFFFFFFFFFFFFFFC00000
FFFFFFFFFFFFFFFFFFF00000
FFFFFFFFFFFFFFFFFFFC0000
FFFFFFFFFFFFFFFFFFFF0000
FFFFFFFFFFFFFFFFFFFF8000
FFFFFFFFFFFFFFFFFFFFC000
FFFFFFFFFFFFFFFFFFFFE000
FFFFFFFFFFFFFFFFFFFFF000
FFFFFFFFFFFFFFFFFFFFF800
FFFFFFFFFFFFFFFFFFFFFC00
FFFFFFFFFFFFFFFFFFFFFE00
FFFFFFFFFFFFFFFFFFFFFE00
FFFFFFFFFFFFFFFFFFFFFF00
FFFFFFFFFFFFFFFFFFFFFF00
FFFFFFFFFFFFFFFFFFFFFF80
FFFFFFFFFFFFFFFFFFFFFF80
FFFFFFFFFFFFFFFFFFFFFF80
FFFFFFFFFFFFFFFFFFFFFFC0
FFFFFFFFFFFFFFFFFFFFFFC0
FFFFFFFFFFFFFFFFFFFFFFC0
FFFFFFFFFFFFFFFFFFFFFFC0
FFFFFC00000000000FFFFFC0
FFFFFC00000000000FFFFFC0
FFFFFC00000000000FFFFFC0
FFFFFC00000000000FFFFFC0
FFFFFC00000000000FFFFFC0
FFFFFC00000000000FFFFFC0
FFFFFC00000000000FFFFFC0
FFFFFC00000000000FFFFFC0
FFFFFC00000000000FFFFFC0
FFFFFC00000000000FFFFFC0
FFFFFC00000000000FFFFFC0
FFFFFC00000000000FFFFFC0
FFFFFC00000000000FFFFFC0
FFFFFC00000000000FFFFFC0
FFFFFC00000000000FFFFFC0
FFFFFC00000000000FFFFFC0
FFFFFC00000000000FFFFFC0
FFFFFC00000000000FFFFFC0
FFFFFC00000000000FFFFFC0
FFFFFC00000000000FFFFFC0
FFFFFC00000000000FFFFFC0
FFFFFC00000000000FFFFFC0
FFFFFC00000000000FFFFFC0
FFFFFC00000000000FFFFFC0
FFFFFC00000000000FFFFFC0
FFFFFC00000000000FFFFFC0
FFFFFC00000000000FFFFFC0
FFFFFC00000000000FFFFFC0
FFFFFC00000000000FFFFFC0
FFFFFC00000000000FFFFFC0
FFFFFC00000000000FFFFFC0
FFFFFFFFFFFFFFFFFFFFFFC0
FFFFFFFFFFFFFFFFFFFFFFC0
FFFFFFFFFFFFFFFFFFFFFFC0
FFFFFFFFFFFFFFFFFFFFFFC0
FFFFFFFFFFFFFFFFFFFFFF80
FFFFFFFFFFFFFFFFFFFFFF80
FFFFFFFFFFFFFFFFFFFFFF80
FFFFFFFFFFFFFFFFFFFFFF80
FFFFFFFFFFFFFFFFFFFFFF00
FFFFFFFFFFFFFFFFFFFFFF00
FFFFFFFFFFFFFFFFFFFFFE00
FFFFFFFFFFFFFFFFFFFFFE00
FFFFFFFFFFFFFFFFFFFFFC00
FFFFFFFFFFFFFFFFFFFFF800
FFFFFFFFFFFFFFFFFFFFF000
FFFFFFFFFFFFFFFFFFFFE000
FFFFFFFFFFFFFFFFFFFFC000
FFFFFFFFFFFFFFFFFFFF8000
FFFFFFFFFFFFFFFFFFFF0000
FFFFFFFFFFFFFFFFFFFC0000
FFFFFFFFFFFFFFFFFFF00000
FFFFFFFFFFFFFFFFFF800000
ENDCHAR
STARTCHAR 0063
ENCODING 99
SWIDTH 472 0
DWIDTH 85 0
BBX 72 75 1 0
BITMAP
00000FFFFFFFFFFFFF
0000FFFFFFFFFFFFFF
0003FFFFFFFFFFFFFF
000FFFFFFFFFFFFFFF
003FFFFFFFFFFFFFFF
007FFFFFFFFFFFFFFF
00FFFFFFFFFFFFFFFF
01FFFFFFFFFFFFFFFF
03FFFFFFFFFFFFFFFF
07FFFFFFFFFFFFFFFF
0FFFFFFFFFFFFFFFFF
1FFFFFFFFFFFFFFFFF
1FFFFFFFFFFFFFFFFF
3FFFFFFFFFFFFFFFFF
3FFFFFFFFFFFFFFFFF
7FFFFFFFFFFFFFFFFF
7FFFFFFFFFFFFFFFFF
7FFFFFFFFFFFFFFFFF
FFFFFFFFFFFFFFFFFF
FFFFFFFFFFFFFFFFFF
FFFFFFFFFFFFFFFFFF
FFFFFFFFFFFFFFFFFF
FFFFFC000000000000
FFFFFC000000000000
FFFFFC000000000000
FFFFFC000000000000
FFFFFC000000000000
FFFFFC000000000000
FFFFFC000000000000
FFFFFC000000000000
FFFFFC000000000000
FFFFFC000000000000
FFFFFC000000000000
FFFFFC000000000000
FFFFFC000000000000
FFFFFC000000000000
FFFFFC000000000000
FFFFFC000000000000
FFFFFC000000000000
FFFFFC000000000000
FFFFFC000000000000
FFFFFC000000000000
FFFFFC000000000000
FFFFFC000000000000
FFFFFC000000000000
FFFFFC000000000000
FFFFFC000000000000
FFFFFC000000000000
FFFFFC000000000000
FFFFFC000000000000
FFFFFC000000000000
FFFFFC000000000000
FFFFFC000000000000
FFFFFFFFFFFFFFFFFF
FFFFFFFFFFFFFFFFFF
FFFFFFFFFFFFFFFFFF
FFFFFFFFFFFFFFFFFF
FFFFFFFFFFFFFFFFFF
7FFFFFFFFFFFFFFFFF
7FFFFFFFFFFFFFFFFF
7FFFFFFFFFFFFFFFFF
3FFFFFFFFFFFFFFFFF
3FFFFFFFFFFFFFFFFF
1FFFFFFFFFFFFFFFFF
1FFFFFFFFFFFFFFFFF
0FFFFFFFFFFFFFFFFF
07FFFFFFFFFFFFFFFF
03FFFFFFFFFFFFFFFF
01FFFFFFFFFFFFFFFF
00FFFFFFFFFFFFFFFF
007FFFFFFFFFFFFFFF
003FFFFFFFFFFFFFFF
000FFFFFFFFFFFFFFF
0003FFFFFFFFFFFFFF
00003FFFFFFFFFFFFF
ENDCHAR
STARTCHAR 0064
ENCODING 100
SWIDTH 600 0
DWIDTH 108 0
BBX 90 125 1 0
BITMAP
00000000000000000FFFFFC0
00000000000000000FFFFFC0
00000000000000000FFFFFC0
00000000000000000FFFFFC0
00000000000000000FFFFFC0
00000000000000000FFFFFC0
00000000000000000FFFFFC0
00000000000000000FFFFFC0
00000000000000000FFFFFC0
00000000000000000FFFFFC0
00000000000000000FFFFFC0
00000000000000000FFFFFC0
00000000000000000FFFFFC0
00000000000000000FFFFFC0
00000000000000000FFFFFC0
00000000000000000FFFFFC0
00000000000000000FFFFFC0
00000000000000000FFFFFC0
00000000000000000FFFFFC0
00000000000000000FFFFFC0
00000000000000000FFFFFC0
00000000000000000FFFFFC0
00000000000000000FFFFFC0
00000000000000000FFFFFC0
00000000000000000FFFFFC0
00000000000000000FFFFFC0
00000000000000000FFFFFC0
00000000000000000FFFFFC0
00000000000000000FFFFFC0
00000000000000000FFFFFC0
00000000000000000FFFFFC0
00000000000000000FFFFFC0
00000000000000000FFFFFC0
00000000000000000FFFFFC0
00000000000000000FFFFFC0
00000000000000000FFFFFC0
00000000000000000FFFFFC0
00000000000000000FFFFFC0
00000000000000000FFFFFC0
00000000000000000FFFFFC0
00000000000000000FFFFFC0
00000000000000000FFFFFC0
00000000000000000FFFFFC0
00000000000000000FFFFFC0
00000000000000000FFFFFC0
00000000000000000FFFFFC0
00000000000000000FFFFFC0
00000000000000000FFFFFC0
00000000000000000FFFFFC0
00000000000000000FFFFFC0
00000FFFFFFFFFFFFFFFFFC0
0000FFFFFFFFFFFFFFFFFFC0
0003FFFFFFFFFFFFFFFFFFC0
000FFFFFFFFFFFFFFFFFFFC0
003FFFFFFFFFFFFFFFFFFFC0
007FFFFFFFFFFFFFFFFFFFC0
00FFFFFFFFFFFFFFFFFFFFC0
01FFFFFFFFFFFFFFFFFFFFC0
03FFFFFFFFFFFFFFFFFFFFC0
07FFFFFFFFFFFFFFFFFFFFC0
0FFFFFFFFFFFFFFFFFFFFFC0
1FFFFFFFFFFFFFFFFFFFFFC0
1FFFFFFFFFFFFFFFFFFFFFC0
3FFFFFFFFFFFFFFFFFFFFFC0
3FFFFFFFFFFFFFFFFFFFFFC0
7FFFFFFFFFFFFFFFFFFFFFC0
7FFFFFFFFFFFFFFFFFFFFFC0
7FFFFFFFFFFFFFFFFFFFFFC0
FFFFFFFFFFFFFFFFFFFFFFC0
FFFFFFFFFFFFFFFFFFFFFFC0
FFFFFFFFFFFFFFFFFFFFFFC0
FFFFFFFFFFFFFFFFFFFFFFC0
FFFFFC00000000000FFFFFC0
FFFFFC00000000000FFFFFC0
FFFFFC00000000000FFFFFC0
FFFFFC00000000000FFFFFC0
FFFFFC00000000000FFFFFC0
FFFFFC00000000000FFFFFC0
FFFFFC00000000000FFFFFC0
FFFFFC00000000000FFFFFC0
FFFFFC00000000000FFFFFC0
FFFFFC00000000000FFFFFC0
FFFFFC00000000000FFFFFC0
FFFFFC00000000000FFFFFC0
FFFFFC00000000000FFFFFC0
FFFFFC00000000000FFFFFC0
FFFFFC00000000000FFFFFC0
FFFFFC00000000000FFFFFC0
FFFFFC00000000000FFFFFC0
FFFFFC00000000000FFFFFC0
FFFFFC00000000000FFFFFC0
FFFFFC00000000000FFFFFC0
FFFFFC00000000000FFFFFC0
FFFFFC00000000000FFFFFC0
FFFFFC00000000000FFFFFC0
FFFFFC00000000000FFFFFC0
FFFFFC00000000000FFFFFC0
FFFFFC00000000000FFFFFC0
FFFFFC00000000000FFFFFC0
FFFFFC00000000000FFFFFC0
FFFFFC00000000000FFFFFC0
FFFFFC00000000000FFFFFC0
FFFFFC00000000000FFFFFC0
FFFFFFFFFFFFFFFFFFFFFFC0
FFFFFFFFFFFFFFFFFFFFFFC0
FFFFFFFFFFFFFFFFFFFFFFC0
FFFFFFFFFFFFFFFFFFFFFFC0
FFFFFFFFFFFFFFFFFFFFFFC0
7FFFFFFFFFFFFFFFFFFFFFC0
7FFFFFFFFFFFFFFFFFFFFFC0
7FFFFFFFFFFFFFFFFFFFFFC0
3FFFFFFFFFFFFFFFFFFFFFC0
3FFFFFFFFFFFFFFFFFFFFFC0
1FFFFFFFFFFFFFFFFFFFFFC0
1FFFFFFFFFFFFFFFFFFFFFC0
0FFFFFFFFFFFFFFFFFFFFFC0
07FFFFFFFFFFFFFFFFFFFFC0
03FFFFFFFFFFFFFFFFFFFFC0
01FFFFFFFFFFFFFFFFFFFFC0
00FFFFFFFFFFFFFFFFFFFFC0
007FFFFFFFFFFFFFFFFFFFC0
003FFFFFFFFFFFFFFFFFFFC0
000FFFFFFFFFFFFFFFFFFFC0
0003FFFFFFFFFFFFFFFFFFC0
00007FFFFFFFFFFFFFFFFFC0
ENDCHAR
STARTCHAR 0065
ENCODING 101
SWIDTH 594 0
DWIDTH 107 0
BBX 90 75 1 0
BITMAP
00000FFFFFFFFFFFFC000000
0000FFFFFFFFFFFFFFC00000
0003FFFFFFFFFFFFFFF00000
000FFFFFFFFFFFFFFFFC0000
003FFFFFFFFFFFFFFFFF0000
007FFFFFFFFFFFFFFFFF8000
00FFFFFFFFFFFFFFFFFFE000
01FFFFFFFFFFFFFFFFFFF000
03FFFFFFFFFFFFFFFFFFF800
07FFFFFFFFFFFFFFFFFFFC00
0FFFFFFFFFFFFFFFFFFFFC00
1FFFFFFFFFFFFFFFFFFFFE00
1FFFFFFFFFFFFFFFFFFFFF00
3FFFFFFFFFFFFFFFFFFFFF00
3FFFFFFFFFFFFFFFFFFFFF80
7FFFFFFFFFFFFFFFFFFFFF80
7FFFFFFFFFFFFFFFFFFFFF80
7FFFFFFFFFFFFFFFFFFFFFC0
FFFFFFFFFFFFFFFFFFFFFFC0
FFFFFFFFFFFFFFFFFFFFFFC0
FFFFFFFFFFFFFFFFFFFFFFC0
FFFFFFFFFFFFFFFFFFFFFFC0
FFFFFC00000000007FFFFFC0
FFFFFC00000000007FFFFFC0
FFFFFC00000000007FFFFFC0
FFFFFC00000000007FFFFFC0
FFFFFC00000000007FFFFFC0
FFFFFC00000000007FFFFFC0
FFFFFC00000000007FFFFFC0
FFFFFC1FFFFFFFFFFFFFFFC0
FFFFFC1FFFFFFFFFFFFFFF80
FFFFFC1FFFFFFFFFFFFFFF80
FFFFFC1FFFFFFFFFFFFFFF80
FFFFFC1FFFFFFFFFFFFFFF00
FFFFFC1FFFFFFFFFFFFFFF00
FFFFFC1FFFFFFFFFFFFFFE00
FFFFFC1FFFFFFFFFFFFFFE00
FFFFFC1FFFFFFFFFFFFFFC00
FFFFFC1FFFFFFFFFFFFFFC00
FFFFFC1FFFFFFFFFFFFFF800
FFFFFC1FFFFFFFFFFFFFF000
FFFFFC1FFFFFFFFFFFFFE000
FFFFFC1FFFFFFFFFFFFFC000
FFFFFC1FFFFFFFFFFFFF8000
FFFFFC1FFFFFFFFFFFFE0000
FFFFFC1FFFFFFFFFFFF80000
FFFFFC1FFFFFFFFFFF800000
FFFFFC000000000000000000
FFFFFC000000000000000000
FFFFFC000000000000000000
FFFFFC000000000000000000
FFFFFC000000000000000000
FFFFFC000000000000000000
FFFFFFFFFFFFFFFFFFFFFFC0
FFFFFFFFFFFFFFFFFFFFFFC0
FFFFFFFFFFFFFFFFFFFFFFC0
FFFFFFFFFFFFFFFFFFFFFFC0
FFFFFFFFFFFFFFFFFFFFFFC0
7FFFFFFFFFFFFFFFFFFFFFC0
7FFFFFFFFFFFFFFFFFFFFFC0
7FFFFFFFFFFFFFFFFFFFFFC0
3FFFFFFFFFFFFFFFFFFFFFC0
3FFFFFFFFFFFFFFFFFFFFFC0
1FFFFFFFFFFFFFFFFFFFFFC0
1FFFFFFFFFFFFFFFFFFFFFC0
0FFFFFFFFFFFFFFFFFFFFFC0
07FFFFFFFFFFFFFFFFFFFFC0
03FFFFFFFFFFFFFFFFFFFFC0
01FFFFFFFFFFFFFFFFFFFFC0
00FFFFFFFFFFFFFFFFFFFFC0
007FFFFFFFFFFFFFFFFFFFC0
003FFFFFFFFFFFFFFFFFFFC0
000FFFFFFFFFFFFFFFFFFFC0
0003FFFFFFFFFFFFFFFFFFC0
00003FFFFFFFFFFFFFFFFFC0
ENDCHAR
ENDFONT
